SplineFontDB: 3.0
FontName: Carter_SHADOW_Ad
FullName: Carter_SHADOW_Ad
FamilyName: Carter_SHADOW_Ad
Weight: Medium
Copyright: Created with the help of MyScriptFont.com\nCopyright belongs to the Creator.
Version: 001.000
ItalicAngle: 0
UnderlinePosition: -150
UnderlineWidth: 50
Ascent: 800
Descent: 200
InvalidEm: 0
sfntRevision: 0x00010000
LayerCount: 2
Layer: 0 1 "Back" 1
Layer: 1 1 "Fore" 0
XUID: [1021 164 739823016 2953]
StyleMap: 0x0000
FSType: 0
OS2Version: 4
OS2_WeightWidthSlopeOnly: 0
OS2_UseTypoMetrics: 1
CreationTime: 1277802766
ModificationTime: 1472237456
PfmFamily: 17
TTFWeight: 500
TTFWidth: 5
LineGap: 90
VLineGap: 0
Panose: 2 0 6 3 0 0 0 0 0 0
OS2TypoAscent: 800
OS2TypoAOffset: 0
OS2TypoDescent: -200
OS2TypoDOffset: 0
OS2TypoLinegap: 90
OS2WinAscent: 792
OS2WinAOffset: 0
OS2WinDescent: 76
OS2WinDOffset: 0
HheadAscent: 792
HheadAOffset: 0
HheadDescent: -76
HheadDOffset: 0
OS2SubXSize: 650
OS2SubYSize: 700
OS2SubXOff: 0
OS2SubYOff: 140
OS2SupXSize: 650
OS2SupYSize: 700
OS2SupXOff: 0
OS2SupYOff: 480
OS2StrikeYSize: 49
OS2StrikeYPos: 258
OS2CapHeight: 728
OS2XHeight: 614
OS2Vendor: 'PfEd'
OS2CodePages: 00000001.00000000
OS2UnicodeRanges: 80000007.00000002.00000000.00000000
MarkAttachClasses: 1
DEI: 91125
TtTable: prep
PUSHW_1
 511
SCANCTRL
PUSHB_1
 1
SCANTYPE
SVTCA[y-axis]
MPPEM
PUSHB_1
 8
LT
IF
PUSHB_2
 1
 1
INSTCTRL
EIF
PUSHB_2
 70
 6
CALL
IF
POP
PUSHB_1
 16
EIF
MPPEM
PUSHB_1
 20
GT
IF
POP
PUSHB_1
 128
EIF
SCVTCI
PUSHB_1
 6
CALL
NOT
IF
EIF
PUSHB_1
 20
CALL
EndTTInstrs
TtTable: fpgm
PUSHB_1
 0
FDEF
PUSHB_1
 0
SZP0
MPPEM
PUSHB_1
 42
LT
IF
PUSHB_1
 74
SROUND
EIF
PUSHB_1
 0
SWAP
MIAP[rnd]
RTG
PUSHB_1
 6
CALL
IF
RTDG
EIF
MPPEM
PUSHB_1
 42
LT
IF
RDTG
EIF
DUP
MDRP[rp0,rnd,grey]
PUSHB_1
 1
SZP0
MDAP[no-rnd]
RTG
ENDF
PUSHB_1
 1
FDEF
DUP
MDRP[rp0,min,white]
PUSHB_1
 12
CALL
ENDF
PUSHB_1
 2
FDEF
MPPEM
GT
IF
RCVT
SWAP
EIF
POP
ENDF
PUSHB_1
 3
FDEF
ROUND[Black]
RTG
DUP
PUSHB_1
 64
LT
IF
POP
PUSHB_1
 64
EIF
ENDF
PUSHB_1
 4
FDEF
PUSHB_1
 6
CALL
IF
POP
SWAP
POP
ROFF
IF

StartChar: .notdef
Encoding: 65536 -1 0
Width: 364
Flags: W
LayerCount: 2
Fore
SplineSet
33 0 m 1,0,-1
 33 666 l 1,1,-1
 298 666 l 1,2,-1
 298 0 l 1,3,-1
 33 0 l 1,0,-1
66 33 m 1,4,-1
 265 33 l 1,5,-1
 265 633 l 1,6,-1
 66 633 l 1,7,-1
 66 33 l 1,4,-1
EndSplineSet
Validated: 1
EndChar

StartChar: exclam
Encoding: 33 33 4
Width: 313
VWidth: 1058
Flags: W
LayerCount: 2
Fore
SplineSet
155.09375 758.9921875 m 0,0,1
 219.89453125 776.9921875 219.89453125 776.9921875 243.89453125 778.192382812 c 128,-1,2
 267.89453125 779.392578125 267.89453125 779.392578125 284.694335938 764.9921875 c 0,3,4
 303.89453125 749.392578125 303.89453125 749.392578125 302.694335938 710.392578125 c 128,-1,5
 301.494140625 671.392578125 301.494140625 671.392578125 277.494140625 559.791992188 c 0,6,7
 252.293945312 431.392578125 252.293945312 431.392578125 241.494140625 371.392578125 c 0,8,9
 231.89453125 317.392578125 231.89453125 317.392578125 232.494140625 305.9921875 c 128,-1,10
 233.09375 294.592773438 233.09375 294.592773438 246.293945312 281.392578125 c 0,11,12
 258.293945312 268.192382812 258.293945312 268.192382812 260.09375 253.791992188 c 128,-1,13
 261.89453125 239.392578125 261.89453125 239.392578125 259.494140625 188.9921875 c 0,14,15
 258.293945312 162.592773438 258.293945312 162.592773438 257.694335938 151.192382812 c 128,-1,16
 257.09375 139.791992188 257.09375 139.791992188 252.89453125 122.9921875 c 128,-1,17
 248.694335938 106.192382812 248.694335938 106.192382812 246.89453125 101.392578125 c 128,-1,18
 245.09375 96.5927734375 245.09375 96.5927734375 234.293945312 86.392578125 c 128,-1,19
 223.494140625 76.1923828125 223.494140625 76.1923828125 216.89453125 74.392578125 c 128,-1,20
 210.293945312 72.5927734375 210.293945312 72.5927734375 188.694335938 65.392578125 c 128,-1,21
 167.09375 58.1923828125 167.09375 58.1923828125 152.694335938 55.7919921875 c 128,-1,22
 138.293945312 53.392578125 138.293945312 53.392578125 102.293945312 46.1923828125 c 2,23,-1
 33.89453125 31.7919921875 l 1,24,-1
 13.494140625 49.7919921875 l 2,25,26
 0.2939453125 62.9921875 0.2939453125 62.9921875 -2.7060546875 75.5927734375 c 128,-1,27
 -5.7060546875 88.1923828125 -5.7060546875 88.1923828125 -5.7060546875 127.791992188 c 0,28,29
 -5.7060546875 226.192382812 -5.7060546875 226.192382812 26.6943359375 258.592773438 c 0,30,31
 38.6943359375 271.791992188 38.6943359375 271.791992188 41.09375 304.192382812 c 128,-1,32
 43.494140625 336.592773438 43.494140625 336.592773438 43.494140625 488.9921875 c 2,33,-1
 44.6943359375 701.392578125 l 1,34,-1
 65.09375 720.592773438 l 2,35,36
 84.2939453125 738.592773438 84.2939453125 738.592773438 155.09375 758.9921875 c 0,0,1
248.694335938 740.9921875 m 0,37,38
 243.89453125 748.192382812 243.89453125 748.192382812 230.694335938 746.392578125 c 128,-1,39
 217.494140625 744.592773438 217.494140625 744.592773438 163.494140625 730.192382812 c 2,40,-1
 99.89453125 713.392578125 l 1,41,-1
 97.494140625 520.192382812 l 2,42,43
 96.2939453125 343.791992188 96.2939453125 343.791992188 104.694335938 322.192382812 c 0,44,45
 111.89453125 307.791992188 111.89453125 307.791992188 138.293945312 313.791992188 c 2,46,-1
 144.293945312 314.9921875 l 2,47,48
 151.494140625 317.392578125 151.494140625 317.392578125 156.89453125 319.791992188 c 128,-1,49
 162.293945312 322.192382812 162.293945312 322.192382812 165.89453125 325.791992188 c 128,-1,50
 169.494140625 329.392578125 169.494140625 329.392578125 171.89453125 333.592773438 c 128,-1,51
 174.293945312 337.791992188 174.293945312 337.791992188 176.694335938 344.9921875 c 0,52,53
 189.89453125 397.791992188 189.89453125 397.791992188 220.494140625 566.9921875 c 128,-1,54
 251.09375 736.192382812 251.09375 736.192382812 248.694335938 740.9921875 c 0,37,38
204.293945312 214.192382812 m 0,55,56
 203.09375 247.791992188 203.09375 247.791992188 200.09375 257.392578125 c 128,-1,57
 197.09375 266.9921875 197.09375 266.9921875 186.293945312 268.192382812 c 0,58,59
 164.694335938 269.392578125 164.694335938 269.392578125 113.694335938 254.392578125 c 128,-1,60
 62.6943359375 239.392578125 62.6943359375 239.392578125 56.6943359375 230.9921875 c 0,61,62
 50.6943359375 220.192382812 50.6943359375 220.192382812 48.2939453125 170.9921875 c 128,-1,63
 45.89453125 121.791992188 45.89453125 121.791992188 50.6943359375 115.791992188 c 0,64,65
 56.6943359375 109.791992188 56.6943359375 109.791992188 119.09375 125.392578125 c 128,-1,66
 181.494140625 140.9921875 181.494140625 140.9921875 192.293945312 150.592773438 c 0,67,68
 200.694335938 158.9921875 200.694335938 158.9921875 203.09375 170.9921875 c 128,-1,69
 205.494140625 182.9921875 205.494140625 182.9921875 204.293945312 214.192382812 c 0,55,56
EndSplineSet
Validated: 524321
EndChar

StartChar: quotedbl
Encoding: 34 34 5
Width: 467
VWidth: 1029
Flags: W
LayerCount: 2
Fore
SplineSet
89.41796875 714.200195312 m 0,0,1
 113.41796875 734.599609375 113.41796875 734.599609375 132.618164062 733.400390625 c 128,-1,2
 151.818359375 732.200195312 151.818359375 732.200195312 199.818359375 707 c 2,3,-1
 255.017578125 678.200195312 l 1,4,-1
 281.41796875 707 l 2,5,6
 307.818359375 734.599609375 307.818359375 734.599609375 329.41796875 734.599609375 c 0,7,8
 343.818359375 734.599609375 343.818359375 734.599609375 367.818359375 724.400390625 c 128,-1,9
 391.818359375 714.200195312 391.818359375 714.200195312 413.41796875 699.200195312 c 128,-1,10
 435.017578125 684.200195312 435.017578125 684.200195312 444.618164062 671 c 0,11,12
 455.41796875 657.799804688 455.41796875 657.799804688 456.017578125 649.400390625 c 128,-1,13
 456.618164062 641 456.618164062 641 451.818359375 624.200195312 c 0,14,15
 443.41796875 599 443.41796875 599 451.818359375 588.200195312 c 256,16,17
 460.217773438 577.400390625 460.217773438 577.400390625 456.017578125 503.599609375 c 128,-1,18
 451.818359375 429.799804688 451.818359375 429.799804688 441.017578125 408.200195312 c 0,19,20
 433.818359375 392.599609375 433.818359375 392.599609375 426.017578125 385.400390625 c 128,-1,21
 418.217773438 378.200195312 418.217773438 378.200195312 391.818359375 373.400390625 c 128,-1,22
 365.41796875 368.599609375 365.41796875 368.599609375 328.818359375 368 c 128,-1,23
 292.217773438 367.400390625 292.217773438 367.400390625 211.818359375 367.400390625 c 0,24,25
 114.618164062 367.400390625 114.618164062 367.400390625 70.818359375 369.799804688 c 128,-1,26
 27.017578125 372.200195312 27.017578125 372.200195312 9.017578125 378.799804688 c 128,-1,27
 -8.982421875 385.400390625 -8.982421875 385.400390625 -14.982421875 401 c 0,28,29
 -20.982421875 417.799804688 -20.982421875 417.799804688 -19.181640625 468.799804688 c 128,-1,30
 -17.3818359375 519.799804688 -17.3818359375 519.799804688 -10.181640625 554.599609375 c 0,31,32
 -0.58203125 590.599609375 -0.58203125 590.599609375 30.017578125 640.400390625 c 128,-1,33
 60.6181640625 690.200195312 60.6181640625 690.200195312 89.41796875 714.200195312 c 0,0,1
199.818359375 667.400390625 m 0,34,35
 199.818359375 672.200195312 199.818359375 672.200195312 168.017578125 687.799804688 c 128,-1,36
 136.217773438 703.400390625 136.217773438 703.400390625 130.217773438 703.400390625 c 256,37,38
 124.217773438 703.400390625 124.217773438 703.400390625 104.41796875 677 c 128,-1,39
 84.6181640625 650.599609375 84.6181640625 650.599609375 65.41796875 618.200195312 c 128,-1,40
 46.2177734375 585.799804688 46.2177734375 585.799804688 42.6181640625 569 c 0,41,42
 33.017578125 533 33.017578125 533 36.6181640625 492.200195312 c 2,43,-1
 39.017578125 449 l 1,44,-1
 109.818359375 446.599609375 l 2,45,46
 181.818359375 444.200195312 181.818359375 444.200195312 189.017578125 453.799804688 c 0,47,48
 196.217773438 462.200195312 196.217773438 462.200195312 201.017578125 519.799804688 c 128,-1,49
 205.818359375 577.400390625 205.818359375 577.400390625 195.017578125 582.200195312 c 0,50,51
 166.217773438 590.599609375 166.217773438 590.599609375 164.41796875 596 c 128,-1,52
 162.618164062 601.400390625 162.618164062 601.400390625 179.41796875 627.799804688 c 0,53,54
 199.818359375 665 199.818359375 665 199.818359375 667.400390625 c 0,34,35
403.818359375 668.599609375 m 0,55,56
 403.818359375 669.799804688 403.818359375 669.799804688 397.217773438 674 c 128,-1,57
 390.618164062 678.200195312 390.618164062 678.200195312 381.017578125 683 c 128,-1,58
 371.41796875 687.799804688 371.41796875 687.799804688 361.217773438 692.599609375 c 128,-1,59
 351.017578125 697.400390625 351.017578125 697.400390625 343.217773438 700.400390625 c 128,-1,60
 335.41796875 703.400390625 335.41796875 703.400390625 333.017578125 703.400390625 c 0,61,62
 324.618164062 703.400390625 324.618164062 703.400390625 297.017578125 665.599609375 c 128,-1,63
 269.41796875 627.799804688 269.41796875 627.799804688 255.017578125 597.799804688 c 0,64,65
 239.41796875 565.400390625 239.41796875 565.400390625 237.017578125 507.799804688 c 2,66,-1
 234.618164062 449 l 1,67,-1
 309.017578125 446.599609375 l 2,68,69
 382.217773438 443 382.217773438 443 390.618164062 451.400390625 c 0,70,71
 397.818359375 459.799804688 397.818359375 459.799804688 401.41796875 523.400390625 c 0,72,73
 403.818359375 567.799804688 403.818359375 567.799804688 402.017578125 576.799804688 c 128,-1,74
 400.217773438 585.799804688 400.217773438 585.799804688 389.41796875 585.799804688 c 0,75,76
 370.217773438 585.799804688 370.217773438 585.799804688 369.017578125 596.599609375 c 128,-1,77
 367.818359375 607.400390625 367.818359375 607.400390625 383.41796875 632.599609375 c 0,78,79
 403.818359375 663.799804688 403.818359375 663.799804688 403.818359375 668.599609375 c 0,55,56
EndSplineSet
Validated: 524321
EndChar

StartChar: numbersign
Encoding: 35 35 6
Width: 680
VWidth: 1059
Flags: W
LayerCount: 2
Fore
SplineSet
403.780273438 751.484375 m 0,0,1
 415.780273438 756.284179688 415.780273438 756.284179688 424.1796875 752.68359375 c 0,2,3
 428.98046875 751.484375 428.98046875 751.484375 503.379882812 729.883789062 c 0,4,5
 547.780273438 716.68359375 547.780273438 716.68359375 567.580078125 705.284179688 c 128,-1,6
 587.379882812 693.883789062 587.379882812 693.883789062 593.379882812 679.484375 c 128,-1,7
 599.379882812 665.083984375 599.379882812 665.083984375 595.780273438 638.68359375 c 2,8,-1
 590.98046875 602.68359375 l 1,9,-1
 623.379882812 593.083984375 l 2,10,11
 704.98046875 569.083984375 704.98046875 569.083984375 642.580078125 451.484375 c 0,12,13
 614.98046875 401.083984375 614.98046875 401.083984375 614.98046875 379.484375 c 0,14,15
 614.98046875 362.68359375 614.98046875 362.68359375 598.780273438 316.484375 c 128,-1,16
 582.580078125 270.284179688 582.580078125 270.284179688 569.379882812 249.883789062 c 0,17,18
 559.780273438 233.083984375 559.780273438 233.083984375 526.1796875 221.083984375 c 0,19,20
 502.1796875 213.883789062 502.1796875 213.883789062 495.580078125 204.284179688 c 128,-1,21
 488.98046875 194.68359375 488.98046875 194.68359375 475.780273438 146.68359375 c 0,22,23
 468.580078125 116.68359375 468.580078125 116.68359375 463.1796875 101.083984375 c 128,-1,24
 457.780273438 85.484375 457.780273438 85.484375 449.379882812 71.68359375 c 128,-1,25
 440.98046875 57.8837890625 440.98046875 57.8837890625 433.1796875 53.68359375 c 128,-1,26
 425.379882812 49.484375 425.379882812 49.484375 409.1796875 48.8837890625 c 128,-1,27
 392.98046875 48.2841796875 392.98046875 48.2841796875 376.780273438 51.8837890625 c 128,-1,28
 360.580078125 55.484375 360.580078125 55.484375 330.580078125 63.8837890625 c 0,29,30
 251.379882812 85.484375 251.379882812 85.484375 247.780273438 75.8837890625 c 0,31,32
 245.379882812 67.484375 245.379882812 67.484375 222.580078125 54.2841796875 c 0,33,34
 205.780273438 45.8837890625 205.780273438 45.8837890625 193.1796875 47.083984375 c 128,-1,35
 180.580078125 48.2841796875 180.580078125 48.2841796875 139.780273438 59.083984375 c 0,36,37
 56.98046875 81.8837890625 56.98046875 81.8837890625 36.580078125 102.284179688 c 128,-1,38
 16.1796875 122.68359375 16.1796875 122.68359375 22.1796875 177.883789062 c 0,39,40
 25.7802734375 209.083984375 25.7802734375 209.083984375 23.98046875 216.883789062 c 128,-1,41
 22.1796875 224.68359375 22.1796875 224.68359375 8.98046875 228.284179688 c 0,42,43
 -30.6201171875 240.284179688 -30.6201171875 240.284179688 -37.8203125 268.484375 c 128,-1,44
 -45.01953125 296.68359375 -45.01953125 296.68359375 -19.8203125 345.883789062 c 0,45,46
 4.1796875 396.284179688 4.1796875 396.284179688 -4.2197265625 410.68359375 c 0,47,48
 -15.01953125 431.083984375 -15.01953125 431.083984375 -10.8203125 453.284179688 c 128,-1,49
 -6.6201171875 475.484375 -6.6201171875 475.484375 12.580078125 515.083984375 c 0,50,51
 31.7802734375 551.083984375 31.7802734375 551.083984375 44.98046875 563.68359375 c 128,-1,52
 58.1796875 576.284179688 58.1796875 576.284179688 100.1796875 594.284179688 c 0,53,54
 122.98046875 603.883789062 122.98046875 603.883789062 131.379882812 631.484375 c 0,55,56
 144.580078125 687.883789062 144.580078125 687.883789062 151.1796875 705.284179688 c 128,-1,57
 157.780273438 722.68359375 157.780273438 722.68359375 168.580078125 734.68359375 c 0,58,59
 182.98046875 749.083984375 182.98046875 749.083984375 211.1796875 748.484375 c 128,-1,60
 239.379882812 747.883789062 239.379882812 747.883789062 293.379882812 729.883789062 c 2,61,-1
 352.1796875 711.883789062 l 1,62,-1
 371.379882812 729.883789062 l 2,63,64
 392.98046875 747.883789062 392.98046875 747.883789062 403.780273438 751.484375 c 0,0,1
536.98046875 680.68359375 m 0,65,66
 534.580078125 684.284179688 534.580078125 684.284179688 506.379882812 695.083984375 c 128,-1,67
 478.1796875 705.883789062 478.1796875 705.883789062 447.580078125 713.68359375 c 128,-1,68
 416.98046875 721.484375 416.98046875 721.484375 412.1796875 714.284179688 c 0,69,70
 407.379882812 709.484375 407.379882812 709.484375 390.580078125 641.083984375 c 128,-1,71
 373.780273438 572.68359375 373.780273438 572.68359375 371.379882812 567.883789062 c 0,72,73
 365.379882812 557.083984375 365.379882812 557.083984375 342.580078125 554.083984375 c 128,-1,74
 319.780273438 551.083984375 319.780273438 551.083984375 313.780273438 559.484375 c 0,75,76
 308.98046875 566.68359375 308.98046875 566.68359375 324.580078125 623.083984375 c 2,77,-1
 338.98046875 680.68359375 l 1,78,-1
 312.580078125 691.484375 l 2,79,80
 294.580078125 698.68359375 294.580078125 698.68359375 269.379882812 705.883789062 c 128,-1,81
 244.1796875 713.083984375 244.1796875 713.083984375 224.379882812 716.083984375 c 128,-1,82
 204.580078125 719.083984375 204.580078125 719.083984375 202.1796875 715.484375 c 0,83,84
 199.780273438 713.083984375 199.780273438 713.083984375 182.379882812 641.083984375 c 128,-1,85
 164.98046875 569.083984375 164.98046875 569.083984375 163.780273438 567.883789062 c 0,86,87
 158.98046875 560.68359375 158.98046875 560.68359375 125.379882812 560.68359375 c 0,88,89
 97.7802734375 560.68359375 97.7802734375 560.68359375 81.580078125 547.484375 c 128,-1,90
 65.3798828125 534.284179688 65.3798828125 534.284179688 49.7802734375 499.484375 c 0,91,92
 38.98046875 471.883789062 38.98046875 471.883789062 47.3798828125 461.68359375 c 128,-1,93
 55.7802734375 451.484375 55.7802734375 451.484375 89.3798828125 451.484375 c 0,94,95
 121.780273438 451.484375 121.780273438 451.484375 128.379882812 446.083984375 c 128,-1,96
 134.98046875 440.68359375 134.98046875 440.68359375 127.780273438 422.68359375 c 0,97,98
 125.379882812 414.284179688 125.379882812 414.284179688 121.1796875 410.68359375 c 128,-1,99
 116.98046875 407.083984375 116.98046875 407.083984375 110.379882812 405.883789062 c 128,-1,100
 103.780273438 404.68359375 103.780273438 404.68359375 90.580078125 404.68359375 c 0,101,102
 68.98046875 404.68359375 68.98046875 404.68359375 60.580078125 398.68359375 c 128,-1,103
 52.1796875 392.68359375 52.1796875 392.68359375 37.7802734375 368.68359375 c 0,104,105
 14.98046875 329.083984375 14.98046875 329.083984375 16.7802734375 317.68359375 c 128,-1,106
 18.580078125 306.284179688 18.580078125 306.284179688 49.7802734375 303.883789062 c 0,107,108
 85.7802734375 301.484375 85.7802734375 301.484375 91.7802734375 295.484375 c 128,-1,109
 97.7802734375 289.484375 97.7802734375 289.484375 84.580078125 234.284179688 c 0,110,111
 71.3798828125 181.484375 71.3798828125 181.484375 76.1796875 167.083984375 c 0,112,113
 80.98046875 156.284179688 80.98046875 156.284179688 136.780273438 138.284179688 c 128,-1,114
 192.580078125 120.284179688 192.580078125 120.284179688 199.780273438 127.484375 c 0,115,116
 205.780273438 133.484375 205.780273438 133.484375 222.580078125 207.883789062 c 0,117,118
 241.780273438 284.68359375 241.780273438 284.68359375 248.379882812 292.484375 c 128,-1,119
 254.98046875 300.284179688 254.98046875 300.284179688 277.1796875 302.083984375 c 128,-1,120
 299.379882812 303.883789062 299.379882812 303.883789062 304.1796875 295.484375 c 0,121,122
 308.98046875 288.284179688 308.98046875 288.284179688 292.1796875 228.284179688 c 256,123,124
 275.379882812 168.284179688 275.379882812 168.284179688 283.780273438 159.883789062 c 0,125,126
 293.379882812 150.284179688 293.379882812 150.284179688 346.780273438 136.484375 c 128,-1,127
 400.1796875 122.68359375 400.1796875 122.68359375 406.1796875 128.68359375 c 0,128,129
 409.780273438 133.484375 409.780273438 133.484375 430.780273438 207.883789062 c 128,-1,130
 451.780273438 282.284179688 451.780273438 282.284179688 452.98046875 285.883789062 c 0,131,132
 458.98046875 294.284179688 458.98046875 294.284179688 488.98046875 294.284179688 c 256,133,134
 518.98046875 294.284179688 518.98046875 294.284179688 526.1796875 305.083984375 c 0,135,136
 535.780273438 315.883789062 535.780273438 315.883789062 550.780273438 359.68359375 c 128,-1,137
 565.780273438 403.484375 565.780273438 403.484375 562.1796875 407.083984375 c 0,138,139
 556.1796875 411.883789062 556.1796875 411.883789062 518.98046875 411.883789062 c 256,140,141
 481.780273438 411.883789062 481.780273438 411.883789062 481.780273438 415.484375 c 0,142,143
 481.780273438 420.284179688 481.780273438 420.284179688 488.98046875 438.284179688 c 0,144,145
 493.780273438 452.68359375 493.780273438 452.68359375 502.1796875 455.68359375 c 128,-1,146
 510.580078125 458.68359375 510.580078125 458.68359375 536.98046875 458.68359375 c 2,147,-1
 575.379882812 458.68359375 l 1,148,-1
 599.379882812 506.68359375 l 2,149,150
 623.379882812 553.484375 623.379882812 553.484375 618.580078125 560.68359375 c 0,151,152
 614.98046875 566.68359375 614.98046875 566.68359375 571.780273438 564.284179688 c 128,-1,153
 528.580078125 561.883789062 528.580078125 561.883789062 526.1796875 567.883789062 c 0,154,155
 520.1796875 576.284179688 520.1796875 576.284179688 532.780273438 624.883789062 c 128,-1,156
 545.379882812 673.484375 545.379882812 673.484375 536.98046875 680.68359375 c 0,65,66
278.98046875 433.484375 m 0,157,158
 282.580078125 444.284179688 282.580078125 444.284179688 289.780273438 447.883789062 c 128,-1,159
 296.98046875 451.484375 296.98046875 451.484375 312.580078125 451.484375 c 0,160,161
 332.98046875 451.484375 332.98046875 451.484375 336.580078125 447.883789062 c 128,-1,162
 340.1796875 444.284179688 340.1796875 444.284179688 338.98046875 429.883789062 c 256,163,164
 337.780273438 415.484375 337.780273438 415.484375 332.379882812 411.284179688 c 128,-1,165
 326.98046875 407.083984375 326.98046875 407.083984375 310.1796875 405.883789062 c 0,166,167
 286.1796875 403.484375 286.1796875 403.484375 278.98046875 410.083984375 c 128,-1,168
 271.780273438 416.68359375 271.780273438 416.68359375 278.98046875 433.484375 c 0,157,158
EndSplineSet
Validated: 524321
EndChar

StartChar: dollar
Encoding: 36 36 7
Width: 432
VWidth: 1061
Flags: W
LayerCount: 2
Fore
SplineSet
207.883789062 767.405273438 m 0,0,1
 348.284179688 786.60546875 348.284179688 786.60546875 348.284179688 715.805664062 c 0,2,3
 348.284179688 699.005859375 348.284179688 699.005859375 378.284179688 679.805664062 c 0,4,5
 403.484375 663.005859375 403.484375 663.005859375 411.284179688 640.206054688 c 128,-1,6
 419.083984375 617.405273438 419.083984375 617.405273438 421.484375 556.206054688 c 0,7,8
 422.68359375 519.005859375 422.68359375 519.005859375 419.68359375 506.405273438 c 128,-1,9
 416.68359375 493.805664062 416.68359375 493.805664062 405.883789062 483.005859375 c 0,10,11
 387.883789062 465.005859375 387.883789062 465.005859375 356.68359375 466.206054688 c 256,12,13
 325.484375 467.405273438 325.484375 467.405273438 325.484375 465.005859375 c 0,14,15
 325.484375 463.805664062 325.484375 463.805664062 360.284179688 426.60546875 c 0,16,17
 432.284179688 351.005859375 432.284179688 351.005859375 408.284179688 270.60546875 c 0,18,19
 387.883789062 198.60546875 387.883789062 198.60546875 330.284179688 163.805664062 c 0,20,21
 312.284179688 151.805664062 312.284179688 151.805664062 307.484375 141.60546875 c 128,-1,22
 302.68359375 131.405273438 302.68359375 131.405273438 299.083984375 99.005859375 c 0,23,24
 294.284179688 45.005859375 294.284179688 45.005859375 276.284179688 31.2060546875 c 128,-1,25
 258.284179688 17.4052734375 258.284179688 17.4052734375 188.68359375 15.005859375 c 0,26,27
 125.083984375 12.60546875 125.083984375 12.60546875 104.083984375 20.4052734375 c 128,-1,28
 83.083984375 28.2060546875 83.083984375 28.2060546875 69.8837890625 57.005859375 c 0,29,30
 59.083984375 84.60546875 59.083984375 84.60546875 43.484375 84.60546875 c 0,31,32
 8.68359375 84.60546875 8.68359375 84.60546875 -9.31640625 117.005859375 c 0,33,34
 -17.7158203125 132.60546875 -17.7158203125 132.60546875 -16.515625 147.60546875 c 128,-1,35
 -15.31640625 162.60546875 -15.31640625 162.60546875 -4.515625 209.405273438 c 0,36,37
 13.484375 279.005859375 13.484375 279.005859375 25.484375 291.005859375 c 0,38,39
 41.083984375 301.805664062 41.083984375 301.805664062 73.484375 309.005859375 c 0,40,41
 110.68359375 315.005859375 110.68359375 315.005859375 110.68359375 325.206054688 c 128,-1,42
 110.68359375 335.405273438 110.68359375 335.405273438 81.8837890625 354.60546875 c 0,43,44
 45.8837890625 378.60546875 45.8837890625 378.60546875 27.8837890625 399.60546875 c 128,-1,45
 9.8837890625 420.60546875 9.8837890625 420.60546875 -0.916015625 454.206054688 c 0,46,47
 -16.515625 499.805664062 -16.515625 499.805664062 -3.31640625 534.60546875 c 128,-1,48
 9.8837890625 569.405273438 9.8837890625 569.405273438 60.2841796875 618.60546875 c 0,49,50
 113.083984375 671.405273438 113.083984375 671.405273438 113.083984375 677.405273438 c 0,51,52
 113.083984375 696.60546875 113.083984375 696.60546875 124.484375 721.206054688 c 128,-1,53
 135.883789062 745.805664062 135.883789062 745.805664062 147.883789062 751.805664062 c 0,54,55
 164.68359375 761.405273438 164.68359375 761.405273438 207.883789062 767.405273438 c 0,0,1
289.484375 703.805664062 m 2,56,57
 289.484375 733.805664062 289.484375 733.805664062 278.68359375 738.60546875 c 128,-1,58
 267.883789062 743.405273438 267.883789062 743.405273438 216.284179688 736.206054688 c 0,59,60
 187.484375 731.405273438 187.484375 731.405273438 178.484375 721.206054688 c 128,-1,61
 169.484375 711.005859375 169.484375 711.005859375 164.68359375 677.405273438 c 0,62,63
 161.083984375 660.60546875 161.083984375 660.60546875 155.083984375 651.60546875 c 128,-1,64
 149.083984375 642.60546875 149.083984375 642.60546875 134.68359375 634.206054688 c 0,65,66
 105.883789062 619.805664062 105.883789062 619.805664062 78.2841796875 589.206054688 c 128,-1,67
 50.68359375 558.60546875 50.68359375 558.60546875 47.083984375 537.005859375 c 0,68,69
 35.083984375 474.60546875 35.083984375 474.60546875 103.484375 427.805664062 c 0,70,71
 143.083984375 400.206054688 143.083984375 400.206054688 167.68359375 375.005859375 c 128,-1,72
 192.284179688 349.805664062 192.284179688 349.805664062 189.883789062 337.805664062 c 0,73,74
 187.484375 323.405273438 187.484375 323.405273438 165.284179688 309.005859375 c 128,-1,75
 143.083984375 294.60546875 143.083984375 294.60546875 109.484375 286.206054688 c 0,76,77
 69.8837890625 277.805664062 69.8837890625 277.805664062 63.8837890625 271.805664062 c 0,78,79
 56.68359375 265.805664062 56.68359375 265.805664062 46.484375 219.60546875 c 128,-1,80
 36.2841796875 173.405273438 36.2841796875 173.405273438 41.083984375 168.60546875 c 256,81,82
 45.8837890625 163.805664062 45.8837890625 163.805664062 81.8837890625 161.405273438 c 0,83,84
 108.284179688 159.005859375 108.284179688 159.005859375 113.083984375 154.805664062 c 128,-1,85
 117.883789062 150.60546875 117.883789062 150.60546875 121.484375 127.805664062 c 2,86,-1
 125.083984375 95.4052734375 l 1,87,-1
 242.68359375 95.4052734375 l 1,88,-1
 245.083984375 144.60546875 l 2,89,90
 247.484375 177.005859375 247.484375 177.005859375 251.083984375 187.805664062 c 128,-1,91
 254.68359375 198.60546875 254.68359375 198.60546875 267.883789062 207.005859375 c 0,92,93
 355.484375 268.206054688 355.484375 268.206054688 361.484375 320.405273438 c 128,-1,94
 367.484375 372.60546875 367.484375 372.60546875 294.284179688 437.405273438 c 0,95,96
 245.083984375 481.805664062 245.083984375 481.805664062 237.883789062 496.805664062 c 128,-1,97
 230.68359375 511.805664062 230.68359375 511.805664062 251.083984375 529.805664062 c 0,98,99
 264.284179688 540.60546875 264.284179688 540.60546875 276.883789062 544.206054688 c 128,-1,100
 289.484375 547.805664062 289.484375 547.805664062 318.284179688 546.60546875 c 0,101,102
 365.083984375 544.206054688 365.083984375 544.206054688 367.484375 547.805664062 c 0,103,104
 371.083984375 551.405273438 371.083984375 551.405273438 365.083984375 600.60546875 c 2,105,-1
 360.284179688 651.005859375 l 1,106,107
 325.484375 659.405273438 325.484375 659.405273438 289.484375 669.005859375 c 1,108,-1
 289.484375 703.805664062 l 2,56,57
EndSplineSet
Validated: 524321
EndChar

StartChar: percent
Encoding: 37 37 8
Width: 839
VWidth: 1058
Flags: W
LayerCount: 2
Fore
SplineSet
83.2998046875 762.1875 m 0,0,1
 145.700195312 784.98828125 145.700195312 784.98828125 202.700195312 773.587890625 c 128,-1,2
 259.700195312 762.1875 259.700195312 762.1875 304.099609375 716.587890625 c 0,3,4
 330.5 690.1875 330.5 690.1875 347.900390625 651.1875 c 128,-1,5
 365.299804688 612.1875 365.299804688 612.1875 365.299804688 582.1875 c 0,6,7
 365.299804688 567.788085938 365.299804688 567.788085938 371.299804688 567.788085938 c 0,8,9
 374.900390625 567.788085938 374.900390625 567.788085938 420.5 615.788085938 c 0,10,11
 451.700195312 648.1875 451.700195312 648.1875 462.5 655.387695312 c 128,-1,12
 473.299804688 662.587890625 473.299804688 662.587890625 490.099609375 658.98828125 c 0,13,14
 499.700195312 656.587890625 499.700195312 656.587890625 512.299804688 651.1875 c 128,-1,15
 524.900390625 645.788085938 524.900390625 645.788085938 539.299804688 636.1875 c 128,-1,16
 553.700195312 626.587890625 553.700195312 626.587890625 563.299804688 619.387695312 c 128,-1,17
 572.900390625 612.1875 572.900390625 612.1875 587.900390625 601.387695312 c 128,-1,18
 602.900390625 590.587890625 602.900390625 590.587890625 605.299804688 588.1875 c 0,19,20
 618.5 579.788085938 618.5 579.788085938 621.5 571.387695312 c 128,-1,21
 624.5 562.98828125 624.5 562.98828125 622.099609375 544.98828125 c 0,22,23
 618.5 514.98828125 618.5 514.98828125 613.700195312 504.1875 c 0,24,25
 612.5 500.587890625 612.5 500.587890625 613.099609375 497.587890625 c 128,-1,26
 613.700195312 494.587890625 613.700195312 494.587890625 619.099609375 492.1875 c 128,-1,27
 624.5 489.788085938 624.5 489.788085938 634.099609375 487.387695312 c 128,-1,28
 643.700195312 484.98828125 643.700195312 484.98828125 659.299804688 482.587890625 c 0,29,30
 740.900390625 465.788085938 740.900390625 465.788085938 784.700195312 408.1875 c 128,-1,31
 828.5 350.587890625 828.5 350.587890625 828.5 260.587890625 c 0,32,33
 828.5 216.1875 828.5 216.1875 811.700195312 172.98828125 c 128,-1,34
 794.900390625 129.788085938 794.900390625 129.788085938 768.5 102.1875 c 0,35,36
 743.299804688 76.98828125 743.299804688 76.98828125 721.099609375 64.3876953125 c 128,-1,37
 698.900390625 51.7880859375 698.900390625 51.7880859375 656.900390625 42.1875 c 0,38,39
 629.299804688 36.1875 629.299804688 36.1875 613.099609375 36.7880859375 c 128,-1,40
 596.900390625 37.3876953125 596.900390625 37.3876953125 565.700195312 45.7880859375 c 0,41,42
 504.5 62.587890625 504.5 62.587890625 464.900390625 104.587890625 c 128,-1,43
 425.299804688 146.587890625 425.299804688 146.587890625 415.700195312 206.587890625 c 0,44,45
 409.700195312 237.788085938 409.700195312 237.788085938 400.700195312 237.788085938 c 128,-1,46
 391.700195312 237.788085938 391.700195312 237.788085938 346.099609375 182.587890625 c 0,47,48
 310.099609375 139.387695312 310.099609375 139.387695312 289.700195312 126.1875 c 128,-1,49
 269.299804688 112.98828125 269.299804688 112.98828125 246.5 119.587890625 c 128,-1,50
 223.700195312 126.1875 223.700195312 126.1875 182.900390625 158.587890625 c 0,51,52
 131.299804688 196.98828125 131.299804688 196.98828125 125.900390625 224.587890625 c 128,-1,53
 120.5 252.1875 120.5 252.1875 154.099609375 294.1875 c 0,54,55
 176.900390625 322.98828125 176.900390625 322.98828125 176.900390625 326.587890625 c 128,-1,56
 176.900390625 330.1875 176.900390625 330.1875 131.299804688 334.98828125 c 0,57,58
 76.099609375 339.788085938 76.099609375 339.788085938 34.099609375 366.788085938 c 128,-1,59
 -7.900390625 393.788085938 -7.900390625 393.788085938 -30.7001953125 439.98828125 c 128,-1,60
 -53.5 486.1875 -53.5 486.1875 -53.5 543.788085938 c 0,61,62
 -53.5 621.788085938 -53.5 621.788085938 -17.5 679.387695312 c 128,-1,63
 18.5 736.98828125 18.5 736.98828125 83.2998046875 762.1875 c 0,0,1
230.900390625 730.98828125 m 0,64,65
 158.900390625 765.788085938 158.900390625 765.788085938 89.2998046875 730.387695312 c 128,-1,66
 19.7001953125 694.98828125 19.7001953125 694.98828125 4.099609375 615.788085938 c 0,67,68
 -13.900390625 525.788085938 -13.900390625 525.788085938 28.099609375 468.788085938 c 128,-1,69
 70.099609375 411.788085938 70.099609375 411.788085938 154.099609375 410.587890625 c 0,70,71
 232.099609375 410.587890625 232.099609375 410.587890625 272.900390625 459.788085938 c 128,-1,72
 313.700195312 508.98828125 313.700195312 508.98828125 308.900390625 596.587890625 c 0,73,74
 305.299804688 649.387695312 305.299804688 649.387695312 286.700195312 681.1875 c 128,-1,75
 268.099609375 712.98828125 268.099609375 712.98828125 230.900390625 730.98828125 c 0,64,65
568.099609375 567.788085938 m 0,76,77
 565.700195312 572.587890625 565.700195312 572.587890625 527.900390625 601.387695312 c 128,-1,78
 490.099609375 630.1875 490.099609375 630.1875 484.099609375 630.1875 c 0,79,80
 479.299804688 630.1875 479.299804688 630.1875 328.099609375 446.587890625 c 128,-1,81
 176.900390625 262.98828125 176.900390625 262.98828125 176.900390625 255.788085938 c 0,82,83
 176.900390625 249.788085938 176.900390625 249.788085938 216.5 219.788085938 c 0,84,85
 241.700195312 201.788085938 241.700195312 201.788085938 251.299804688 198.1875 c 128,-1,86
 260.900390625 194.587890625 260.900390625 194.587890625 268.099609375 199.387695312 c 0,87,88
 284.900390625 213.788085938 284.900390625 213.788085938 427.099609375 388.387695312 c 128,-1,89
 569.299804688 562.98828125 569.299804688 562.98828125 568.099609375 567.788085938 c 0,76,77
710.900390625 429.788085938 m 0,90,91
 671.299804688 457.387695312 671.299804688 457.387695312 617.299804688 454.387695312 c 128,-1,92
 563.299804688 451.387695312 563.299804688 451.387695312 522.5 421.387695312 c 0,93,94
 494.900390625 399.788085938 494.900390625 399.788085938 479.900390625 360.788085938 c 128,-1,95
 464.900390625 321.788085938 464.900390625 321.788085938 464.299804688 281.587890625 c 128,-1,96
 463.700195312 241.387695312 463.700195312 241.387695312 478.099609375 202.98828125 c 128,-1,97
 492.5 164.587890625 492.5 164.587890625 520.099609375 145.387695312 c 0,98,99
 568.099609375 111.788085938 568.099609375 111.788085938 631.099609375 115.98828125 c 128,-1,100
 694.099609375 120.1875 694.099609375 120.1875 731.299804688 160.98828125 c 0,101,102
 780.5 212.587890625 780.5 212.587890625 773.299804688 303.1875 c 128,-1,103
 766.099609375 393.788085938 766.099609375 393.788085938 710.900390625 429.788085938 c 0,90,91
136.099609375 661.387695312 m 0,104,105
 151.700195312 669.788085938 151.700195312 669.788085938 162.5 667.98828125 c 128,-1,106
 173.299804688 666.1875 173.299804688 666.1875 188.900390625 650.587890625 c 0,107,108
 214.099609375 625.387695312 214.099609375 625.387695312 214.700195312 583.98828125 c 128,-1,109
 215.299804688 542.587890625 215.299804688 542.587890625 193.700195312 513.788085938 c 128,-1,110
 172.099609375 484.98828125 172.099609375 484.98828125 142.099609375 492.1875 c 0,111,112
 116.900390625 498.1875 116.900390625 498.1875 106.099609375 533.587890625 c 128,-1,113
 95.2998046875 568.98828125 95.2998046875 568.98828125 103.099609375 607.98828125 c 128,-1,114
 110.900390625 646.98828125 110.900390625 646.98828125 136.099609375 661.387695312 c 0,104,105
578.900390625 350.587890625 m 0,115,116
 594.5 372.1875 594.5 372.1875 620.299804688 372.1875 c 128,-1,117
 646.099609375 372.1875 646.099609375 372.1875 660.5 350.587890625 c 0,118,119
 677.299804688 325.387695312 677.299804688 325.387695312 675.5 281.587890625 c 128,-1,120
 673.700195312 237.788085938 673.700195312 237.788085938 655.700195312 218.587890625 c 0,121,122
 636.5 198.1875 636.5 198.1875 614.900390625 198.788085938 c 128,-1,123
 593.299804688 199.387695312 593.299804688 199.387695312 578.900390625 219.788085938 c 0,124,125
 565.700195312 241.387695312 565.700195312 241.387695312 565.700195312 285.1875 c 128,-1,126
 565.700195312 328.98828125 565.700195312 328.98828125 578.900390625 350.587890625 c 0,115,116
EndSplineSet
Validated: 524321
EndChar

StartChar: ampersand
Encoding: 38 38 9
Width: 1019
Flags: W
LayerCount: 2
Fore
SplineSet
10 -69.5 m 128,-1,1
 10 -63 10 -63 510 -63 c 128,-1,2
 1010 -63 1010 -63 1010 -69.5 c 128,-1,3
 1010 -76 1010 -76 510 -76 c 128,-1,0
 10 -76 10 -76 10 -69.5 c 128,-1,1
EndSplineSet
Validated: 1
EndChar

StartChar: parenleft
Encoding: 40 40 10
Width: 410
VWidth: 1066
Flags: W
LayerCount: 2
Fore
SplineSet
262.713867188 732.625976562 m 0,0,1
 340.713867188 760.225585938 340.713867188 760.225585938 371.314453125 732.026367188 c 128,-1,2
 401.9140625 703.826171875 401.9140625 703.826171875 399.514648438 607.826171875 c 2,3,-1
 397.114257812 540.625976562 l 1,4,-1
 369.514648438 523.826171875 l 2,5,6
 305.9140625 483.026367188 305.9140625 483.026367188 282.514648438 443.42578125 c 128,-1,7
 259.114257812 403.826171875 259.114257812 403.826171875 257.9140625 336.625976562 c 0,8,9
 256.713867188 287.42578125 256.713867188 287.42578125 266.314453125 267.026367188 c 128,-1,10
 275.9140625 246.625976562 275.9140625 246.625976562 308.314453125 225.026367188 c 0,11,12
 340.713867188 204.625976562 340.713867188 204.625976562 347.314453125 181.225585938 c 128,-1,13
 353.9140625 157.826171875 353.9140625 157.826171875 341.9140625 100.225585938 c 0,14,15
 326.314453125 25.826171875 326.314453125 25.826171875 303.514648438 4.826171875 c 128,-1,16
 280.713867188 -16.173828125 280.713867188 -16.173828125 230.314453125 -4.173828125 c 0,17,18
 87.5146484375 31.826171875 87.5146484375 31.826171875 23.9140625 154.225585938 c 128,-1,19
 -39.685546875 276.625976562 -39.685546875 276.625976562 1.1142578125 437.42578125 c 0,20,21
 19.1142578125 507.026367188 19.1142578125 507.026367188 56.314453125 566.42578125 c 128,-1,22
 93.5146484375 625.826171875 93.5146484375 625.826171875 146.314453125 669.026367188 c 128,-1,23
 199.114257812 712.225585938 199.114257812 712.225585938 262.713867188 732.625976562 c 0,0,1
346.713867188 654.625976562 m 0,24,25
 344.314453125 684.625976562 344.314453125 684.625976562 342.514648438 694.826171875 c 128,-1,26
 340.713867188 705.026367188 340.713867188 705.026367188 336.514648438 709.225585938 c 128,-1,27
 332.314453125 713.42578125 332.314453125 713.42578125 322.713867188 714.625976562 c 0,28,29
 289.114257812 717.026367188 289.114257812 717.026367188 230.314453125 684.026367188 c 128,-1,30
 171.514648438 651.026367188 171.514648438 651.026367188 131.9140625 607.826171875 c 0,31,32
 73.1142578125 541.826171875 73.1142578125 541.826171875 49.7138671875 437.42578125 c 128,-1,33
 26.314453125 333.026367188 26.314453125 333.026367188 51.5146484375 247.826171875 c 0,34,35
 70.7138671875 184.225585938 70.7138671875 184.225585938 119.314453125 136.826171875 c 128,-1,36
 167.9140625 89.42578125 167.9140625 89.42578125 230.314453125 72.6259765625 c 0,37,38
 259.114257812 65.42578125 259.114257812 65.42578125 269.9140625 73.2255859375 c 128,-1,39
 280.713867188 81.0263671875 280.713867188 81.0263671875 285.514648438 111.026367188 c 0,40,41
 286.713867188 117.026367188 286.713867188 117.026367188 289.114257812 127.826171875 c 128,-1,42
 291.514648438 138.625976562 291.514648438 138.625976562 293.314453125 148.826171875 c 128,-1,43
 295.114257812 159.026367188 295.114257812 159.026367188 296.314453125 165.026367188 c 0,44,45
 299.9140625 181.826171875 299.9140625 181.826171875 295.114257812 189.026367188 c 128,-1,46
 290.314453125 196.225585938 290.314453125 196.225585938 268.713867188 209.42578125 c 0,47,48
 213.514648438 244.225585938 213.514648438 244.225585938 203.314453125 322.826171875 c 128,-1,49
 193.114257812 401.42578125 193.114257812 401.42578125 232.713867188 486.625976562 c 0,50,51
 263.9140625 549.026367188 263.9140625 549.026367188 327.514648438 583.826171875 c 0,52,53
 344.314453125 592.225585938 344.314453125 592.225585938 346.713867188 601.826171875 c 128,-1,54
 349.114257812 611.42578125 349.114257812 611.42578125 346.713867188 654.625976562 c 0,24,25
EndSplineSet
Validated: 524321
EndChar

StartChar: parenright
Encoding: 41 41 11
Width: 398
VWidth: 1066
Flags: W
LayerCount: 2
Fore
SplineSet
59.818359375 727.869140625 m 0,0,1
 75.41796875 742.26953125 75.41796875 742.26953125 85.0185546875 745.26953125 c 128,-1,2
 94.6181640625 748.26953125 94.6181640625 748.26953125 118.618164062 744.668945312 c 0,3,4
 175.018554688 737.46875 175.018554688 737.46875 234.41796875 696.668945312 c 128,-1,5
 293.818359375 655.869140625 293.818359375 655.869140625 331.018554688 600.668945312 c 0,6,7
 394.618164062 504.668945312 394.618164062 504.668945312 386.21875 365.46875 c 128,-1,8
 377.818359375 226.26953125 377.818359375 226.26953125 302.21875 126.668945312 c 0,9,10
 256.618164062 66.6689453125 256.618164062 66.6689453125 165.41796875 22.26953125 c 128,-1,11
 74.21875 -22.130859375 74.21875 -22.130859375 32.21875 -4.130859375 c 0,12,13
 -13.3818359375 15.0693359375 -13.3818359375 15.0693359375 -13.3818359375 112.26953125 c 0,14,15
 -13.3818359375 162.668945312 -13.3818359375 162.668945312 -1.9814453125 189.069335938 c 128,-1,16
 9.41796875 215.46875 9.41796875 215.46875 37.0185546875 226.26953125 c 0,17,18
 97.0185546875 251.46875 97.0185546875 251.46875 112.618164062 329.46875 c 0,19,20
 124.618164062 387.069335938 124.618164062 387.069335938 109.018554688 439.26953125 c 128,-1,21
 93.41796875 491.46875 93.41796875 491.46875 58.6181640625 509.46875 c 0,22,23
 20.21875 528.668945312 20.21875 528.668945312 13.0185546875 556.26953125 c 128,-1,24
 5.818359375 583.869140625 5.818359375 583.869140625 22.6181640625 652.26953125 c 0,25,26
 35.818359375 706.26953125 35.818359375 706.26953125 59.818359375 727.869140625 c 0,0,1
179.818359375 693.069335938 m 0,27,28
 145.018554688 709.869140625 145.018554688 709.869140625 116.818359375 714.069335938 c 128,-1,29
 88.6181640625 718.26953125 88.6181640625 718.26953125 85.0185546875 707.46875 c 0,30,31
 76.6181640625 687.069335938 76.6181640625 687.069335938 68.21875 640.869140625 c 128,-1,32
 59.818359375 594.668945312 59.818359375 594.668945312 62.21875 589.869140625 c 0,33,34
 67.0185546875 582.668945312 67.0185546875 582.668945312 74.21875 582.668945312 c 0,35,36
 88.6181640625 582.668945312 88.6181640625 582.668945312 112.018554688 559.869140625 c 128,-1,37
 135.41796875 537.069335938 135.41796875 537.069335938 148.618164062 510.668945312 c 0,38,39
 185.818359375 427.869140625 185.818359375 427.869140625 163.618164062 336.668945312 c 128,-1,40
 141.41796875 245.46875 141.41796875 245.46875 74.21875 208.26953125 c 2,41,-1
 41.818359375 190.26953125 l 1,42,-1
 41.818359375 132.668945312 l 2,43,44
 41.818359375 73.869140625 41.818359375 73.869140625 49.0185546875 69.0693359375 c 0,45,46
 57.41796875 64.26953125 57.41796875 64.26953125 110.21875 79.869140625 c 0,47,48
 183.41796875 102.668945312 183.41796875 102.668945312 238.618164062 159.668945312 c 128,-1,49
 293.818359375 216.668945312 293.818359375 216.668945312 317.818359375 295.869140625 c 0,50,51
 334.618164062 353.46875 334.618164062 353.46875 331.618164062 433.26953125 c 128,-1,52
 328.618164062 513.069335938 328.618164062 513.069335938 307.018554688 559.869140625 c 0,53,54
 289.018554688 598.26953125 289.018554688 598.26953125 252.41796875 636.668945312 c 128,-1,55
 215.818359375 675.069335938 215.818359375 675.069335938 179.818359375 693.069335938 c 0,27,28
EndSplineSet
Validated: 524321
EndChar

StartChar: asterisk
Encoding: 42 42 12
Width: 517
VWidth: 1074
Flags: W
LayerCount: 2
Fore
SplineSet
173.859375 597.966796875 m 0,0,1
 185.859375 609.966796875 185.859375 609.966796875 199.059570312 612.366210938 c 128,-1,2
 212.258789062 614.766601562 212.258789062 614.766601562 265.059570312 613.56640625 c 0,3,4
 289.059570312 612.366210938 289.059570312 612.366210938 300.458984375 611.766601562 c 128,-1,5
 311.859375 611.166992188 311.859375 611.166992188 322.659179688 609.966796875 c 128,-1,6
 333.458984375 608.766601562 333.458984375 608.766601562 338.258789062 605.166992188 c 128,-1,7
 343.059570312 601.56640625 343.059570312 601.56640625 347.258789062 597.966796875 c 128,-1,8
 351.458984375 594.366210938 351.458984375 594.366210938 358.659179688 585.966796875 c 0,9,10
 380.258789062 559.56640625 380.258789062 559.56640625 394.659179688 559.56640625 c 0,11,12
 412.659179688 559.56640625 412.659179688 559.56640625 428.859375 545.766601562 c 128,-1,13
 445.059570312 531.966796875 445.059570312 531.966796875 471.458984375 494.766601562 c 0,14,15
 509.859375 437.166992188 509.859375 437.166992188 505.059570312 406.56640625 c 128,-1,16
 500.258789062 375.966796875 500.258789062 375.966796875 446.258789062 338.766601562 c 2,17,-1
 425.859375 325.56640625 l 1,18,-1
 464.258789062 290.766601562 l 2,19,20
 502.659179688 254.766601562 502.659179688 254.766601562 502.059570312 228.366210938 c 128,-1,21
 501.458984375 201.966796875 501.458984375 201.966796875 461.859375 149.166992188 c 0,22,23
 429.458984375 107.166992188 429.458984375 107.166992188 407.859375 95.7666015625 c 128,-1,24
 386.258789062 84.3662109375 386.258789062 84.3662109375 358.659179688 95.1669921875 c 0,25,26
 343.059570312 101.166992188 343.059570312 101.166992188 338.258789062 99.3662109375 c 128,-1,27
 333.458984375 97.56640625 333.458984375 97.56640625 326.258789062 83.1669921875 c 0,28,29
 316.659179688 61.56640625 316.659179688 61.56640625 293.859375 51.966796875 c 128,-1,30
 271.059570312 42.3662109375 271.059570312 42.3662109375 229.059570312 42.3662109375 c 0,31,32
 140.258789062 42.3662109375 140.258789062 42.3662109375 119.859375 81.966796875 c 0,33,34
 107.859375 104.766601562 107.859375 104.766601562 89.859375 104.766601562 c 0,35,36
 59.859375 104.766601562 59.859375 104.766601562 21.458984375 149.766601562 c 128,-1,37
 -16.9404296875 194.766601562 -16.9404296875 194.766601562 -16.9404296875 230.766601562 c 0,38,39
 -16.9404296875 249.966796875 -16.9404296875 249.966796875 -10.9404296875 260.166992188 c 128,-1,40
 -4.9404296875 270.366210938 -4.9404296875 270.366210938 14.2587890625 285.966796875 c 0,41,42
 45.458984375 312.366210938 45.458984375 312.366210938 45.458984375 318.366210938 c 0,43,44
 45.458984375 325.56640625 45.458984375 325.56640625 10.6591796875 357.966796875 c 0,45,46
 -22.9404296875 391.56640625 -22.9404296875 391.56640625 -24.140625 415.56640625 c 128,-1,47
 -25.3408203125 439.56640625 -25.3408203125 439.56640625 7.0595703125 486.366210938 c 256,48,49
 39.458984375 533.166992188 39.458984375 533.166992188 52.6591796875 542.766601562 c 0,50,51
 63.458984375 551.166992188 63.458984375 551.166992188 93.458984375 551.766601562 c 128,-1,52
 123.458984375 552.366210938 123.458984375 552.366210938 128.258789062 543.966796875 c 0,53,54
 134.258789062 533.166992188 134.258789062 533.166992188 140.859375 537.366210938 c 128,-1,55
 147.458984375 541.56640625 147.458984375 541.56640625 152.258789062 558.366210938 c 0,56,57
 155.859375 579.966796875 155.859375 579.966796875 173.859375 597.966796875 c 0,0,1
94.6591796875 183.966796875 m 0,58,59
 98.2587890625 183.966796875 98.2587890625 183.966796875 130.059570312 203.166992188 c 128,-1,60
 161.859375 222.366210938 161.859375 222.366210938 165.458984375 222.366210938 c 0,61,62
 171.458984375 222.366210938 171.458984375 222.366210938 170.258789062 174.366210938 c 2,63,-1
 167.859375 123.966796875 l 1,64,-1
 221.859375 123.966796875 l 2,65,66
 238.659179688 123.966796875 238.659179688 123.966796875 248.859375 124.56640625 c 128,-1,67
 259.059570312 125.166992188 259.059570312 125.166992188 265.659179688 126.966796875 c 128,-1,68
 272.258789062 128.766601562 272.258789062 128.766601562 275.258789062 130.56640625 c 128,-1,69
 278.258789062 132.366210938 278.258789062 132.366210938 279.458984375 135.966796875 c 0,70,71
 290.258789062 222.366210938 290.258789062 222.366210938 298.659179688 222.366210938 c 0,72,73
 302.258789062 222.366210938 302.258789062 222.366210938 340.659179688 195.366210938 c 128,-1,74
 379.059570312 168.366210938 379.059570312 168.366210938 387.458984375 170.766601562 c 0,75,76
 393.458984375 173.166992188 393.458984375 173.166992188 407.859375 189.966796875 c 128,-1,77
 422.258789062 206.766601562 422.258789062 206.766601562 434.258789062 225.366210938 c 128,-1,78
 446.258789062 243.966796875 446.258789062 243.966796875 446.258789062 251.166992188 c 0,79,80
 446.258789062 261.966796875 446.258789062 261.966796875 395.258789062 301.56640625 c 128,-1,81
 344.258789062 341.166992188 344.258789062 341.166992188 344.258789062 348.366210938 c 0,82,83
 344.258789062 354.366210938 344.258789062 354.366210938 399.458984375 393.966796875 c 0,84,85
 453.458984375 433.56640625 453.458984375 433.56640625 453.458984375 443.166992188 c 256,86,87
 453.458984375 452.766601562 453.458984375 452.766601562 428.258789062 487.56640625 c 128,-1,88
 403.059570312 522.366210938 403.059570312 522.366210938 393.458984375 525.966796875 c 0,89,90
 381.458984375 530.766601562 381.458984375 530.766601562 346.659179688 495.966796875 c 0,91,92
 313.059570312 463.56640625 313.059570312 463.56640625 308.258789062 468.366210938 c 0,93,94
 305.859375 470.766601562 305.859375 470.766601562 308.859375 496.56640625 c 128,-1,95
 311.859375 522.366210938 311.859375 522.366210938 314.859375 548.166992188 c 128,-1,96
 317.859375 573.966796875 317.859375 573.966796875 315.458984375 576.366210938 c 0,97,98
 311.859375 583.56640625 311.859375 583.56640625 261.458984375 583.56640625 c 0,99,100
 225.458984375 583.56640625 225.458984375 583.56640625 217.059570312 580.56640625 c 128,-1,101
 208.659179688 577.56640625 208.659179688 577.56640625 202.659179688 563.166992188 c 0,102,103
 195.458984375 545.166992188 195.458984375 545.166992188 195.458984375 516.366210938 c 0,104,105
 195.458984375 488.766601562 195.458984375 488.766601562 185.859375 473.166992188 c 0,106,107
 181.059570312 462.366210938 181.059570312 462.366210938 173.258789062 465.366210938 c 128,-1,108
 165.458984375 468.366210938 165.458984375 468.366210938 136.659179688 493.56640625 c 0,109,110
 92.2587890625 529.56640625 92.2587890625 529.56640625 86.2587890625 524.766601562 c 0,111,112
 75.458984375 517.56640625 75.458984375 517.56640625 52.6591796875 482.766601562 c 128,-1,113
 29.859375 447.966796875 29.859375 447.966796875 29.859375 439.56640625 c 0,114,115
 29.859375 433.56640625 29.859375 433.56640625 46.0595703125 419.166992188 c 128,-1,116
 62.2587890625 404.766601562 62.2587890625 404.766601562 85.0595703125 390.366210938 c 0,117,118
 140.258789062 354.366210938 140.258789062 354.366210938 140.258789062 348.366210938 c 0,119,120
 140.258789062 344.766601562 140.258789062 344.766601562 85.0595703125 299.766601562 c 128,-1,121
 29.859375 254.766601562 29.859375 254.766601562 29.859375 252.366210938 c 0,122,123
 29.859375 245.166992188 29.859375 245.166992188 59.2587890625 214.56640625 c 128,-1,124
 88.6591796875 183.966796875 88.6591796875 183.966796875 94.6591796875 183.966796875 c 0,58,59
EndSplineSet
Validated: 524321
EndChar

StartChar: plus
Encoding: 43 43 13
Width: 426
VWidth: 1063
Flags: W
LayerCount: 2
Fore
SplineSet
101.575195312 525.200195312 m 0,0,1
 108.774414062 550.400390625 108.774414062 550.400390625 115.974609375 563.599609375 c 128,-1,2
 123.174804688 576.799804688 123.174804688 576.799804688 137.575195312 584.599609375 c 128,-1,3
 151.974609375 592.400390625 151.974609375 592.400390625 168.774414062 594.200195312 c 128,-1,4
 185.575195312 596 185.575195312 596 219.174804688 596 c 0,5,6
 270.774414062 596 270.774414062 596 294.174804688 581.599609375 c 128,-1,7
 317.575195312 567.200195312 317.575195312 567.200195312 323.575195312 530 c 0,8,9
 325.974609375 509.599609375 325.974609375 509.599609375 331.375 503 c 128,-1,10
 336.774414062 496.400390625 336.774414062 496.400390625 354.774414062 492.799804688 c 0,11,12
 396.774414062 482 396.774414062 482 409.375 452 c 128,-1,13
 421.974609375 422 421.974609375 422 411.174804688 359.599609375 c 0,14,15
 402.774414062 316.400390625 402.774414062 316.400390625 386.575195312 296 c 128,-1,16
 370.375 275.599609375 370.375 275.599609375 336.774414062 269.599609375 c 0,17,18
 321.174804688 266 321.174804688 266 314.575195312 262.400390625 c 128,-1,19
 307.974609375 258.799804688 307.974609375 258.799804688 304.375 251.599609375 c 128,-1,20
 300.774414062 244.400390625 300.774414062 244.400390625 294.774414062 226.400390625 c 0,21,22
 285.174804688 190.400390625 285.174804688 190.400390625 267.174804688 177.200195312 c 256,23,24
 249.174804688 164 249.174804688 164 186.774414062 164 c 128,-1,25
 124.375 164 124.375 164 106.375 177.200195312 c 0,26,27
 97.974609375 183.200195312 97.974609375 183.200195312 89.5751953125 197.599609375 c 128,-1,28
 81.1748046875 212 81.1748046875 212 76.974609375 227.599609375 c 128,-1,29
 72.7744140625 243.200195312 72.7744140625 243.200195312 73.974609375 251.599609375 c 0,30,31
 75.1748046875 256.400390625 75.1748046875 256.400390625 67.375 261.200195312 c 128,-1,32
 59.5751953125 266 59.5751953125 266 46.375 268.400390625 c 0,33,34
 0.7744140625 279.200195312 0.7744140625 279.200195312 -10.625 303.200195312 c 128,-1,35
 -22.025390625 327.200195312 -22.025390625 327.200195312 -8.8251953125 387.200195312 c 0,36,37
 0.7744140625 435.200195312 0.7744140625 435.200195312 17.5751953125 457.400390625 c 128,-1,38
 34.375 479.599609375 34.375 479.599609375 65.5751953125 485.599609375 c 0,39,40
 77.5751953125 488 77.5751953125 488 83.5751953125 491.599609375 c 128,-1,41
 89.5751953125 495.200195312 89.5751953125 495.200195312 93.1748046875 502.400390625 c 128,-1,42
 96.7744140625 509.599609375 96.7744140625 509.599609375 101.575195312 525.200195312 c 0,0,1
265.974609375 467.599609375 m 1,43,44
 265.974609375 514.400390625 265.974609375 514.400390625 264.774414062 561.200195312 c 1,45,-1
 216.774414062 563.599609375 l 2,46,47
 173.575195312 564.799804688 173.575195312 564.799804688 162.774414062 555.200195312 c 128,-1,48
 151.974609375 545.599609375 151.974609375 545.599609375 149.575195312 502.400390625 c 2,49,-1
 147.174804688 459.200195312 l 1,50,-1
 53.5751953125 452 l 1,51,-1
 43.974609375 408.799804688 l 2,52,53
 33.1748046875 364.400390625 33.1748046875 364.400390625 37.974609375 356 c 0,54,55
 40.375 346.400390625 40.375 346.400390625 85.974609375 344 c 2,56,-1
 131.575195312 341.599609375 l 1,57,-1
 131.575195312 248 l 1,58,-1
 184.375 245.599609375 l 2,59,60
 228.774414062 243.200195312 228.774414062 243.200195312 237.174804688 250.400390625 c 128,-1,61
 245.575195312 257.599609375 245.575195312 257.599609375 251.575195312 303.200195312 c 2,62,-1
 257.575195312 341.599609375 l 1,63,64
 304.375 345.200195312 304.375 345.200195312 351.174804688 350 c 1,65,-1
 357.174804688 384.799804688 l 2,66,67
 363.174804688 416 363.174804688 416 361.974609375 440 c 0,68,69
 359.575195312 453.200195312 359.575195312 453.200195312 352.375 456.799804688 c 128,-1,70
 345.174804688 460.400390625 345.174804688 460.400390625 312.774414062 462.799804688 c 2,71,-1
 265.974609375 467.599609375 l 1,43,44
EndSplineSet
Validated: 524321
EndChar

StartChar: comma
Encoding: 44 44 14
Width: 286
VWidth: 1107
Flags: W
LayerCount: 2
Fore
SplineSet
53.27734375 342.631835938 m 0,0,1
 70.0771484375 349.83203125 70.0771484375 349.83203125 151.677734375 347.431640625 c 0,2,3
 205.677734375 346.232421875 205.677734375 346.232421875 224.27734375 343.232421875 c 128,-1,4
 242.877929688 340.232421875 242.877929688 340.232421875 252.477539062 330.631835938 c 0,5,6
 284.877929688 300.631835938 284.877929688 300.631835938 269.27734375 197.431640625 c 0,7,8
 263.27734375 145.83203125 263.27734375 145.83203125 241.677734375 103.232421875 c 128,-1,9
 220.077148438 60.6318359375 220.077148438 60.6318359375 178.077148438 15.0322265625 c 0,10,11
 149.27734375 -14.9677734375 149.27734375 -14.9677734375 128.27734375 -17.9677734375 c 128,-1,12
 107.27734375 -20.9677734375 107.27734375 -20.9677734375 66.4775390625 -0.568359375 c 128,-1,13
 25.677734375 19.83203125 25.677734375 19.83203125 13.0771484375 37.232421875 c 128,-1,14
 0.4775390625 54.6318359375 0.4775390625 54.6318359375 4.0771484375 83.431640625 c 0,15,16
 8.8779296875 115.83203125 8.8779296875 115.83203125 0.4775390625 138.631835938 c 0,17,18
 -6.72265625 163.83203125 -6.72265625 163.83203125 0.4775390625 232.232421875 c 0,19,20
 6.4775390625 286.232421875 6.4775390625 286.232421875 17.27734375 308.431640625 c 128,-1,21
 28.0771484375 330.631835938 28.0771484375 330.631835938 53.27734375 342.631835938 c 0,0,1
217.677734375 309.032226562 m 0,22,23
 214.077148438 316.232421875 214.077148438 316.232421875 140.27734375 317.431640625 c 128,-1,24
 66.4775390625 318.631835938 66.4775390625 318.631835938 62.8779296875 312.631835938 c 0,25,26
 58.0771484375 305.431640625 58.0771484375 305.431640625 55.677734375 239.431640625 c 0,27,28
 53.27734375 191.431640625 53.27734375 191.431640625 55.677734375 181.83203125 c 128,-1,29
 58.0771484375 172.232421875 58.0771484375 172.232421875 71.27734375 171.032226562 c 0,30,31
 101.27734375 166.232421875 101.27734375 166.232421875 72.4775390625 130.232421875 c 0,32,33
 56.8779296875 109.83203125 56.8779296875 109.83203125 56.8779296875 97.83203125 c 0,34,35
 56.8779296875 88.232421875 56.8779296875 88.232421875 82.677734375 73.83203125 c 128,-1,36
 108.477539062 59.431640625 108.477539062 59.431640625 124.077148438 59.431640625 c 0,37,38
 126.477539062 59.431640625 126.477539062 59.431640625 134.27734375 67.232421875 c 128,-1,39
 142.077148438 75.0322265625 142.077148438 75.0322265625 152.27734375 88.232421875 c 128,-1,40
 162.477539062 101.431640625 162.477539062 101.431640625 173.27734375 117.032226562 c 0,41,42
 200.877929688 157.83203125 200.877929688 157.83203125 207.477539062 176.431640625 c 128,-1,43
 214.077148438 195.032226562 214.077148438 195.032226562 217.677734375 238.232421875 c 0,44,45
 223.677734375 301.83203125 223.677734375 301.83203125 217.677734375 309.032226562 c 0,22,23
EndSplineSet
Validated: 524321
EndChar

StartChar: hyphen
Encoding: 45 45 15
Width: 433
VWidth: 1063
Flags: W
LayerCount: 2
Fore
SplineSet
190.986328125 494.545898438 m 0,0,1
 300.186523438 500.545898438 300.186523438 500.545898438 331.385742188 499.9453125 c 128,-1,2
 362.5859375 499.345703125 362.5859375 499.345703125 382.986328125 493.345703125 c 0,3,4
 420.186523438 480.145507812 420.186523438 480.145507812 422.5859375 444.745117188 c 128,-1,5
 424.986328125 409.345703125 424.986328125 409.345703125 392.5859375 344.545898438 c 0,6,7
 363.786132812 285.745117188 363.786132812 285.745117188 344.5859375 276.145507812 c 256,8,9
 325.385742188 266.545898438 325.385742188 266.545898438 181.385742188 266.545898438 c 0,10,11
 88.986328125 266.545898438 88.986328125 266.545898438 50.5859375 271.345703125 c 128,-1,12
 12.1865234375 276.145507812 12.1865234375 276.145507812 -2.2138671875 288.745117188 c 128,-1,13
 -16.6142578125 301.345703125 -16.6142578125 301.345703125 -16.6142578125 332.545898438 c 0,14,15
 -16.6142578125 355.345703125 -16.6142578125 355.345703125 22.3857421875 409.9453125 c 128,-1,16
 61.3857421875 464.545898438 61.3857421875 464.545898438 88.986328125 480.145507812 c 0,17,18
 104.5859375 488.545898438 104.5859375 488.545898438 190.986328125 494.545898438 c 0,0,1
372.186523438 463.345703125 m 0,19,20
 366.186523438 470.545898438 366.186523438 470.545898438 318.186523438 469.345703125 c 0,21,22
 304.986328125 468.145507812 304.986328125 468.145507812 280.986328125 468.145507812 c 0,23,24
 159.786132812 463.345703125 159.786132812 463.345703125 137.5859375 460.345703125 c 128,-1,25
 115.385742188 457.345703125 115.385742188 457.345703125 99.7861328125 441.745117188 c 0,26,27
 96.1865234375 438.145507812 96.1865234375 438.145507812 94.986328125 436.9453125 c 0,28,29
 67.3857421875 410.545898438 67.3857421875 410.545898438 51.7861328125 384.745117188 c 128,-1,30
 36.1865234375 358.9453125 36.1865234375 358.9453125 43.3857421875 351.745117188 c 128,-1,31
 50.5859375 344.545898438 50.5859375 344.545898438 188.5859375 346.9453125 c 2,32,-1
 324.186523438 349.345703125 l 1,33,-1
 350.5859375 402.145507812 l 2,34,35
 375.786132812 454.9453125 375.786132812 454.9453125 372.186523438 463.345703125 c 0,19,20
EndSplineSet
Validated: 524321
EndChar

StartChar: period
Encoding: 46 46 16
Width: 278
VWidth: 1098
Flags: W
LayerCount: 2
Fore
SplineSet
44.2998046875 332.666992188 m 0,0,1
 59.900390625 339.866210938 59.900390625 339.866210938 143.900390625 339.866210938 c 0,2,3
 197.900390625 339.866210938 197.900390625 339.866210938 215.900390625 337.466796875 c 128,-1,4
 233.900390625 335.06640625 233.900390625 335.06640625 247.700195312 324.266601562 c 128,-1,5
 261.5 313.466796875 261.5 313.466796875 264.5 302.666992188 c 128,-1,6
 267.5 291.866210938 267.5 291.866210938 267.5 259.466796875 c 0,7,8
 267.5 223.466796875 267.5 223.466796875 263.900390625 190.466796875 c 128,-1,9
 260.299804688 157.466796875 260.299804688 157.466796875 253.099609375 134.06640625 c 128,-1,10
 245.900390625 110.666992188 245.900390625 110.666992188 236.299804688 102.266601562 c 0,11,12
 226.700195312 92.6669921875 226.700195312 92.6669921875 208.099609375 88.466796875 c 128,-1,13
 189.5 84.2666015625 189.5 84.2666015625 141.5 80.6669921875 c 0,14,15
 111.5 75.8662109375 111.5 75.8662109375 89.900390625 78.2666015625 c 128,-1,16
 68.2998046875 80.6669921875 68.2998046875 80.6669921875 52.099609375 81.2666015625 c 128,-1,17
 35.900390625 81.8662109375 35.900390625 81.8662109375 25.099609375 90.2666015625 c 128,-1,18
 14.2998046875 98.6669921875 14.2998046875 98.6669921875 8.2998046875 107.666992188 c 128,-1,19
 2.2998046875 116.666992188 2.2998046875 116.666992188 -0.099609375 134.666992188 c 128,-1,20
 -2.5 152.666992188 -2.5 152.666992188 -2.5 173.06640625 c 128,-1,21
 -2.5 193.466796875 -2.5 193.466796875 1.099609375 224.666992188 c 0,22,23
 4.7001953125 282.266601562 4.7001953125 282.266601562 13.099609375 303.266601562 c 128,-1,24
 21.5 324.266601562 21.5 324.266601562 44.2998046875 332.666992188 c 0,0,1
213.5 305.06640625 m 0,25,26
 209.900390625 309.866210938 209.900390625 309.866210938 137.299804688 309.266601562 c 128,-1,27
 64.7001953125 308.666992188 64.7001953125 308.666992188 62.2998046875 303.866210938 c 0,28,29
 58.7001953125 297.866210938 58.7001953125 297.866210938 55.099609375 227.06640625 c 2,30,-1
 52.7001953125 156.266601562 l 1,31,-1
 123.5 159.866210938 l 2,32,33
 191.900390625 161.06640625 191.900390625 161.06640625 200.299804688 167.06640625 c 0,34,35
 205.099609375 171.866210938 205.099609375 171.866210938 211.700195312 236.666992188 c 128,-1,36
 218.299804688 301.466796875 218.299804688 301.466796875 213.5 305.06640625 c 0,25,26
EndSplineSet
Validated: 524321
EndChar

StartChar: slash
Encoding: 47 47 17
Width: 441
VWidth: 1059
Flags: W
LayerCount: 2
Fore
SplineSet
269.5 749.647460938 m 0,0,1
 271.900390625 750.84765625 271.900390625 750.84765625 277.900390625 753.247070312 c 0,2,3
 286.299804688 755.647460938 286.299804688 755.647460938 286.299804688 755.647460938 c 2,4,5
 287.5 756.84765625 287.5 756.84765625 348.700195312 731.647460938 c 0,6,7
 399.099609375 712.447265625 399.099609375 712.447265625 414.700195312 699.247070312 c 128,-1,8
 430.299804688 686.047851562 430.299804688 686.047851562 430.299804688 662.047851562 c 0,9,10
 430.299804688 650.047851562 430.299804688 650.047851562 365.5 503.047851562 c 128,-1,11
 300.700195312 356.047851562 300.700195312 356.047851562 233.5 211.447265625 c 128,-1,12
 166.299804688 66.84765625 166.299804688 66.84765625 157.900390625 60.84765625 c 0,13,14
 127.900390625 38.0478515625 127.900390625 38.0478515625 49.900390625 72.84765625 c 0,15,16
 12.7001953125 90.84765625 12.7001953125 90.84765625 -2.2998046875 105.84765625 c 128,-1,17
 -17.2998046875 120.84765625 -17.2998046875 120.84765625 -17.2998046875 143.647460938 c 0,18,19
 -17.2998046875 159.247070312 -17.2998046875 159.247070312 61.900390625 333.247070312 c 0,20,21
 153.099609375 538.447265625 153.099609375 538.447265625 184.299804688 611.647460938 c 0,22,23
 208.299804688 666.84765625 208.299804688 666.84765625 221.5 692.647460938 c 128,-1,24
 234.700195312 718.447265625 234.700195312 718.447265625 244.900390625 731.047851562 c 128,-1,25
 255.099609375 743.647460938 255.099609375 743.647460938 269.5 749.647460938 c 0,0,1
375.099609375 682.447265625 m 0,26,27
 375.099609375 690.84765625 375.099609375 690.84765625 331.900390625 706.447265625 c 0,28,29
 289.900390625 723.247070312 289.900390625 723.247070312 280.299804688 713.647460938 c 0,30,31
 273.099609375 704.047851562 273.099609375 704.047851562 226.299804688 598.447265625 c 0,32,33
 215.5 574.447265625 215.5 574.447265625 108.700195312 334.447265625 c 0,34,35
 37.900390625 176.047851562 37.900390625 176.047851562 37.900390625 167.647460938 c 0,36,37
 37.900390625 161.647460938 37.900390625 161.647460938 70.2998046875 145.447265625 c 128,-1,38
 102.700195312 129.247070312 102.700195312 129.247070312 117.099609375 129.247070312 c 0,39,40
 129.099609375 129.247070312 129.099609375 129.247070312 251.5 401.647460938 c 0,41,42
 375.099609375 672.84765625 375.099609375 672.84765625 375.099609375 682.447265625 c 0,26,27
EndSplineSet
Validated: 524321
EndChar

StartChar: zero
Encoding: 48 48 18
Width: 647
VWidth: 1061
Flags: W
LayerCount: 2
Fore
SplineSet
217.018554688 731.640625 m 0,0,1
 309.41796875 755.640625 309.41796875 755.640625 407.818359375 728.640625 c 128,-1,2
 506.217773438 701.640625 506.217773438 701.640625 557.818359375 636.840820312 c 0,3,4
 611.818359375 567.240234375 611.818359375 567.240234375 629.818359375 480.240234375 c 128,-1,5
 647.818359375 393.240234375 647.818359375 393.240234375 626.217773438 304.440429688 c 0,6,7
 574.618164062 93.240234375 574.618164062 93.240234375 361.018554688 47.640625 c 0,8,9
 267.41796875 28.4404296875 267.41796875 28.4404296875 175.018554688 62.041015625 c 128,-1,10
 82.6181640625 95.640625 82.6181640625 95.640625 26.2177734375 168.840820312 c 0,11,12
 -36.181640625 252.840820312 -36.181640625 252.840820312 -36.181640625 377.640625 c 0,13,14
 -36.181640625 513.240234375 -36.181640625 513.240234375 30.41796875 606.240234375 c 128,-1,15
 97.0185546875 699.240234375 97.0185546875 699.240234375 217.018554688 731.640625 c 0,0,1
428.217773438 690.840820312 m 0,16,17
 393.41796875 706.440429688 393.41796875 706.440429688 323.818359375 710.041015625 c 128,-1,18
 254.217773438 713.640625 254.217773438 713.640625 217.018554688 700.440429688 c 0,19,20
 94.6181640625 660.840820312 94.6181640625 660.840820312 44.2177734375 548.041015625 c 0,21,22
 23.818359375 504.840820312 23.818359375 504.840820312 20.2177734375 425.640625 c 0,23,24
 16.6181640625 328.440429688 16.6181640625 328.440429688 42.41796875 268.440429688 c 128,-1,25
 68.2177734375 208.440429688 68.2177734375 208.440429688 131.818359375 165.240234375 c 0,26,27
 170.217773438 138.840820312 170.217773438 138.840820312 206.217773438 129.840820312 c 128,-1,28
 242.217773438 120.840820312 242.217773438 120.840820312 302.217773438 120.840820312 c 0,29,30
 345.41796875 120.840820312 345.41796875 120.840820312 366.41796875 125.041015625 c 128,-1,31
 387.41796875 129.240234375 387.41796875 129.240234375 419.818359375 144.840820312 c 0,32,33
 548.217773438 204.840820312 548.217773438 204.840820312 575.818359375 350.041015625 c 0,34,35
 597.41796875 461.640625 597.41796875 461.640625 556.618164062 556.440429688 c 128,-1,36
 515.818359375 651.240234375 515.818359375 651.240234375 428.217773438 690.840820312 c 0,16,17
248.217773438 578.041015625 m 0,37,38
 274.618164062 593.640625 274.618164062 593.640625 310.618164062 593.640625 c 0,39,40
 333.41796875 593.640625 333.41796875 593.640625 344.818359375 589.440429688 c 128,-1,41
 356.217773438 585.240234375 356.217773438 585.240234375 370.618164062 569.640625 c 0,42,43
 395.818359375 544.440429688 395.818359375 544.440429688 407.818359375 497.640625 c 128,-1,44
 419.818359375 450.840820312 419.818359375 450.840820312 416.818359375 404.041015625 c 128,-1,45
 413.818359375 357.240234375 413.818359375 357.240234375 397.018554688 315.240234375 c 128,-1,46
 380.217773438 273.240234375 380.217773438 273.240234375 352.618164062 256.440429688 c 0,47,48
 329.818359375 242.041015625 329.818359375 242.041015625 293.818359375 241.440429688 c 128,-1,49
 257.818359375 240.840820312 257.818359375 240.840820312 239.818359375 254.041015625 c 0,50,51
 212.217773438 273.240234375 212.217773438 273.240234375 200.217773438 309.240234375 c 128,-1,52
 188.217773438 345.240234375 188.217773438 345.240234375 187.018554688 410.041015625 c 0,53,54
 187.018554688 456.840820312 187.018554688 456.840820312 193.618164062 489.240234375 c 128,-1,55
 200.217773438 521.640625 200.217773438 521.640625 212.818359375 543.240234375 c 128,-1,56
 225.41796875 564.840820312 225.41796875 564.840820312 248.217773438 578.041015625 c 0,37,38
345.41796875 495.240234375 m 0,57,58
 331.018554688 516.840820312 331.018554688 516.840820312 305.217773438 516.840820312 c 128,-1,59
 279.41796875 516.840820312 279.41796875 516.840820312 262.618164062 495.240234375 c 0,60,61
 241.018554688 467.640625 241.018554688 467.640625 239.217773438 395.640625 c 128,-1,62
 237.41796875 323.640625 237.41796875 323.640625 256.618164062 292.440429688 c 0,63,64
 268.618164062 274.440429688 268.618164062 274.440429688 294.41796875 272.640625 c 128,-1,65
 320.217773438 270.840820312 320.217773438 270.840820312 333.41796875 286.440429688 c 0,66,67
 358.618164062 314.041015625 358.618164062 314.041015625 362.818359375 388.440429688 c 128,-1,68
 367.018554688 462.840820312 367.018554688 462.840820312 345.41796875 495.240234375 c 0,57,58
EndSplineSet
Validated: 524321
EndChar

StartChar: one
Encoding: 49 49 19
Width: 298
VWidth: 1061
Flags: W
LayerCount: 2
Fore
SplineSet
169.6484375 714.768554688 m 0,0,1
 205.6484375 723.16796875 205.6484375 723.16796875 221.248046875 726.768554688 c 0,2,3
 233.248046875 727.967773438 233.248046875 727.967773438 252.448242188 714.768554688 c 128,-1,4
 271.6484375 701.568359375 271.6484375 701.568359375 280.047851562 687.16796875 c 0,5,6
 287.248046875 672.768554688 287.248046875 672.768554688 287.248046875 626.568359375 c 128,-1,7
 287.248046875 580.368164062 287.248046875 580.368164062 278.84765625 419.568359375 c 0,8,9
 268.047851562 178.368164062 268.047851562 178.368164062 262.047851562 154.368164062 c 0,10,11
 257.248046875 127.967773438 257.248046875 127.967773438 230.84765625 111.16796875 c 128,-1,12
 204.448242188 94.3681640625 204.448242188 94.3681640625 142.047851562 75.16796875 c 0,13,14
 88.0478515625 59.568359375 88.0478515625 59.568359375 71.84765625 57.7685546875 c 128,-1,15
 55.6484375 55.9677734375 55.6484375 55.9677734375 37.6484375 64.3681640625 c 0,16,17
 1.6484375 77.568359375 1.6484375 77.568359375 -2.5517578125 120.16796875 c 128,-1,18
 -6.751953125 162.768554688 -6.751953125 162.768554688 4.0478515625 375.16796875 c 0,19,20
 17.248046875 629.568359375 17.248046875 629.568359375 28.0478515625 653.568359375 c 0,21,22
 36.4482421875 673.967773438 36.4482421875 673.967773438 58.6484375 683.568359375 c 128,-1,23
 80.84765625 693.16796875 80.84765625 693.16796875 169.6484375 714.768554688 c 0,0,1
230.84765625 688.967773438 m 128,-1,25
 226.047851562 696.768554688 226.047851562 696.768554688 221.248046875 695.568359375 c 0,26,27
 206.84765625 693.16796875 206.84765625 693.16796875 143.84765625 676.967773438 c 128,-1,28
 80.84765625 660.768554688 80.84765625 660.768554688 77.248046875 657.16796875 c 0,29,30
 70.0478515625 651.16796875 70.0478515625 651.16796875 58.6484375 397.368164062 c 128,-1,31
 47.248046875 143.568359375 47.248046875 143.568359375 53.248046875 137.568359375 c 256,32,33
 59.248046875 131.568359375 59.248046875 131.568359375 127.6484375 148.967773438 c 128,-1,34
 196.047851562 166.368164062 196.047851562 166.368164062 205.6484375 175.967773438 c 0,35,36
 210.448242188 181.967773438 210.448242188 181.967773438 223.047851562 431.568359375 c 128,-1,24
 235.6484375 681.16796875 235.6484375 681.16796875 230.84765625 688.967773438 c 128,-1,25
EndSplineSet
Validated: 524321
EndChar

StartChar: two
Encoding: 50 50 20
Width: 482
VWidth: 1059
Flags: W
LayerCount: 2
Fore
SplineSet
146.805664062 728.547851562 m 0,0,1
 245.206054688 752.547851562 245.206054688 752.547851562 318.40625 726.147460938 c 0,2,3
 355.606445312 711.748046875 355.606445312 711.748046875 385.606445312 685.34765625 c 128,-1,4
 415.606445312 658.947265625 415.606445312 658.947265625 433.606445312 624.748046875 c 128,-1,5
 451.606445312 590.547851562 451.606445312 590.547851562 455.206054688 552.147460938 c 0,6,7
 458.805664062 517.34765625 458.805664062 517.34765625 447.40625 484.34765625 c 128,-1,8
 436.005859375 451.34765625 436.005859375 451.34765625 400.005859375 390.147460938 c 0,9,10
 362.805664062 325.34765625 362.805664062 325.34765625 362.805664062 319.34765625 c 0,11,12
 362.805664062 310.947265625 362.805664062 310.947265625 402.40625 308.547851562 c 0,13,14
 462.40625 302.547851562 462.40625 302.547851562 470.805664062 268.34765625 c 128,-1,15
 479.206054688 234.147460938 479.206054688 234.147460938 439.606445312 159.748046875 c 0,16,17
 437.206054688 154.947265625 437.206054688 154.947265625 432.40625 145.34765625 c 0,18,19
 419.206054688 120.147460938 419.206054688 120.147460938 413.805664062 109.947265625 c 128,-1,20
 408.40625 99.748046875 408.40625 99.748046875 394.606445312 87.748046875 c 128,-1,21
 380.805664062 75.748046875 380.805664062 75.748046875 374.206054688 72.748046875 c 128,-1,22
 367.606445312 69.748046875 367.606445312 69.748046875 341.206054688 66.1474609375 c 128,-1,23
 314.805664062 62.5478515625 314.805664062 62.5478515625 295.005859375 62.5478515625 c 128,-1,24
 275.206054688 62.5478515625 275.206054688 62.5478515625 226.005859375 62.5478515625 c 0,25,26
 206.805664062 62.5478515625 206.805664062 62.5478515625 196.005859375 62.5478515625 c 2,27,-1
 24.40625 62.5478515625 l 1,28,-1
 1.6064453125 88.947265625 l 2,29,30
 -27.1943359375 121.34765625 -27.1943359375 121.34765625 -18.1943359375 152.547851562 c 128,-1,31
 -9.1943359375 183.748046875 -9.1943359375 183.748046875 52.005859375 270.147460938 c 0,32,33
 185.206054688 456.147460938 185.206054688 456.147460938 179.206054688 471.748046875 c 0,34,35
 175.606445312 482.547851562 175.606445312 482.547851562 149.206054688 481.947265625 c 128,-1,36
 122.805664062 481.34765625 122.805664062 481.34765625 103.606445312 470.547851562 c 0,37,38
 58.005859375 444.147460938 58.005859375 444.147460938 23.8056640625 469.34765625 c 128,-1,39
 -10.3935546875 494.547851562 -10.3935546875 494.547851562 -1.994140625 547.34765625 c 0,40,41
 4.005859375 582.147460938 4.005859375 582.147460938 19.6064453125 628.947265625 c 0,42,43
 29.2060546875 661.34765625 29.2060546875 661.34765625 37.005859375 673.34765625 c 128,-1,44
 44.8056640625 685.34765625 44.8056640625 685.34765625 67.6064453125 698.547851562 c 0,45,46
 103.606445312 717.748046875 103.606445312 717.748046875 146.805664062 728.547851562 c 0,0,1
316.005859375 691.34765625 m 0,47,48
 286.005859375 706.947265625 286.005859375 706.947265625 241.005859375 709.34765625 c 128,-1,49
 196.005859375 711.748046875 196.005859375 711.748046875 149.206054688 698.547851562 c 0,50,51
 102.40625 686.547851562 102.40625 686.547851562 87.40625 670.34765625 c 128,-1,52
 72.40625 654.147460938 72.40625 654.147460938 60.40625 604.947265625 c 0,53,54
 46.005859375 546.147460938 46.005859375 546.147460938 52.005859375 540.147460938 c 256,55,56
 58.005859375 534.147460938 58.005859375 534.147460938 83.2060546875 544.947265625 c 0,57,58
 109.606445312 555.748046875 109.606445312 555.748046875 151.606445312 558.147460938 c 0,59,60
 236.805664062 565.34765625 236.805664062 565.34765625 236.805664062 499.34765625 c 0,61,62
 236.805664062 483.748046875 236.805664062 483.748046875 222.40625 455.547851562 c 128,-1,63
 208.005859375 427.34765625 208.005859375 427.34765625 172.005859375 373.947265625 c 128,-1,64
 136.005859375 320.547851562 136.005859375 320.547851562 65.2060546875 219.748046875 c 0,65,66
 30.40625 169.34765625 30.40625 169.34765625 34.005859375 158.547851562 c 0,67,68
 38.8056640625 142.947265625 38.8056640625 142.947265625 125.206054688 141.748046875 c 2,69,-1
 197.206054688 141.748046875 l 1,70,-1
 356.805664062 141.748046875 l 1,71,-1
 391.606445312 202.947265625 l 2,72,73
 424.005859375 266.547851562 424.005859375 266.547851562 420.40625 272.547851562 c 0,74,75
 415.606445312 280.947265625 415.606445312 280.947265625 338.805664062 274.947265625 c 0,76,77
 260.805664062 271.34765625 260.805664062 271.34765625 260.805664062 279.748046875 c 256,78,79
 260.805664062 288.147460938 260.805664062 288.147460938 311.206054688 367.34765625 c 0,80,81
 373.606445312 468.147460938 373.606445312 468.147460938 388.606445312 501.748046875 c 128,-1,82
 403.606445312 535.34765625 403.606445312 535.34765625 400.005859375 572.547851562 c 0,83,84
 392.805664062 650.547851562 392.805664062 650.547851562 316.005859375 691.34765625 c 0,47,48
EndSplineSet
Validated: 524321
EndChar

StartChar: three
Encoding: 51 51 21
Width: 474
VWidth: 1061
Flags: W
LayerCount: 2
Fore
SplineSet
111.736328125 730.596679688 m 0,0,1
 189.736328125 748.596679688 189.736328125 748.596679688 258.13671875 738.397460938 c 128,-1,2
 326.536132812 728.197265625 326.536132812 728.197265625 377.536132812 689.197265625 c 128,-1,3
 428.536132812 650.197265625 428.536132812 650.197265625 445.3359375 591.397460938 c 0,4,5
 456.13671875 555.397460938 456.13671875 555.397460938 453.736328125 529.596679688 c 128,-1,6
 451.3359375 503.796875 451.3359375 503.796875 430.936523438 458.197265625 c 2,7,-1
 415.3359375 420.997070312 l 1,8,-1
 430.936523438 392.197265625 l 2,9,10
 446.536132812 366.997070312 446.536132812 366.997070312 457.3359375 318.997070312 c 0,11,12
 463.3359375 288.997070312 463.3359375 288.997070312 462.736328125 272.796875 c 128,-1,13
 462.13671875 256.596679688 462.13671875 256.596679688 451.3359375 220.596679688 c 0,14,15
 429.736328125 149.796875 429.736328125 149.796875 378.736328125 104.197265625 c 128,-1,16
 327.736328125 58.5966796875 327.736328125 58.5966796875 255.736328125 45.3974609375 c 0,17,18
 225.736328125 39.3974609375 225.736328125 39.3974609375 205.936523438 39.9970703125 c 128,-1,19
 186.13671875 40.5966796875 186.13671875 40.5966796875 150.13671875 48.9970703125 c 0,20,21
 90.13671875 62.197265625 90.13671875 62.197265625 50.5361328125 80.197265625 c 0,22,23
 25.3359375 93.3974609375 25.3359375 93.3974609375 12.736328125 107.197265625 c 128,-1,24
 0.13671875 120.997070312 0.13671875 120.997070312 -6.4638671875 144.397460938 c 128,-1,25
 -13.0634765625 167.796875 -13.0634765625 167.796875 -16.6640625 215.796875 c 0,26,27
 -21.4638671875 261.397460938 -21.4638671875 261.397460938 -19.6640625 273.397460938 c 128,-1,28
 -17.86328125 285.397460938 -17.86328125 285.397460938 -3.4638671875 299.796875 c 0,29,30
 16.9365234375 320.197265625 16.9365234375 320.197265625 36.13671875 320.197265625 c 0,31,32
 49.3359375 320.197265625 49.3359375 320.197265625 53.5361328125 330.997070312 c 128,-1,33
 57.736328125 341.796875 57.736328125 341.796875 64.9365234375 392.197265625 c 0,34,35
 75.736328125 470.197265625 75.736328125 470.197265625 75.13671875 483.397460938 c 128,-1,36
 74.5361328125 496.596679688 74.5361328125 496.596679688 60.13671875 498.997070312 c 0,37,38
 28.9365234375 503.796875 28.9365234375 503.796875 16.9365234375 544.596679688 c 128,-1,39
 4.9365234375 585.397460938 4.9365234375 585.397460938 18.13671875 639.397460938 c 0,40,41
 24.13671875 664.596679688 24.13671875 664.596679688 35.5361328125 681.997070312 c 128,-1,42
 46.9365234375 699.397460938 46.9365234375 699.397460938 65.5361328125 710.796875 c 128,-1,43
 84.13671875 722.197265625 84.13671875 722.197265625 111.736328125 730.596679688 c 0,0,1
319.3359375 689.796875 m 0,44,45
 272.536132812 711.397460938 272.536132812 711.397460938 186.13671875 709.596679688 c 128,-1,46
 99.736328125 707.796875 99.736328125 707.796875 80.5361328125 683.796875 c 0,47,48
 69.736328125 671.796875 69.736328125 671.796875 69.736328125 623.796875 c 0,49,50
 69.736328125 608.197265625 69.736328125 608.197265625 69.736328125 599.197265625 c 128,-1,51
 69.736328125 590.197265625 69.736328125 590.197265625 71.5361328125 584.796875 c 128,-1,52
 73.3359375 579.397460938 73.3359375 579.397460938 75.13671875 578.197265625 c 128,-1,53
 76.9365234375 576.997070312 76.9365234375 576.997070312 80.5361328125 576.997070312 c 0,54,55
 153.736328125 593.796875 153.736328125 593.796875 183.13671875 589.596679688 c 128,-1,56
 212.536132812 585.397460938 212.536132812 585.397460938 218.536132812 557.796875 c 0,57,58
 225.736328125 531.397460938 225.736328125 531.397460938 211.936523438 513.997070312 c 128,-1,59
 198.13671875 496.596679688 198.13671875 496.596679688 168.736328125 494.197265625 c 128,-1,60
 139.3359375 491.796875 139.3359375 491.796875 130.936523438 477.397460938 c 128,-1,61
 122.536132812 462.997070312 122.536132812 462.997070312 118.936523438 410.197265625 c 2,62,-1
 116.536132812 363.397460938 l 1,63,-1
 163.3359375 358.596679688 l 2,64,65
 210.13671875 352.596679688 210.13671875 352.596679688 223.3359375 335.796875 c 0,66,67
 237.736328125 317.796875 237.736328125 317.796875 237.13671875 294.397460938 c 128,-1,68
 236.536132812 270.997070312 236.536132812 270.997070312 220.936523438 256.596679688 c 0,69,70
 204.13671875 239.796875 204.13671875 239.796875 166.936523438 242.796875 c 128,-1,71
 129.736328125 245.796875 129.736328125 245.796875 85.3359375 268.596679688 c 256,72,73
 40.9365234375 291.397460938 40.9365234375 291.397460938 37.3359375 286.596679688 c 0,74,75
 32.5361328125 281.796875 32.5361328125 281.796875 38.5361328125 224.197265625 c 2,76,-1
 45.736328125 166.596679688 l 1,77,-1
 82.9365234375 148.596679688 l 2,78,79
 120.13671875 131.796875 120.13671875 131.796875 165.736328125 123.397460938 c 128,-1,80
 211.3359375 114.997070312 211.3359375 114.997070312 246.13671875 119.796875 c 0,81,82
 294.13671875 125.796875 294.13671875 125.796875 334.3359375 158.197265625 c 128,-1,83
 374.536132812 190.596679688 374.536132812 190.596679688 394.3359375 237.397460938 c 128,-1,84
 414.13671875 284.197265625 414.13671875 284.197265625 406.936523438 330.997070312 c 0,85,86
 400.936523438 360.997070312 400.936523438 360.997070312 391.936523438 378.397460938 c 128,-1,87
 382.936523438 395.796875 382.936523438 395.796875 361.3359375 419.796875 c 2,88,-1
 337.3359375 444.997070312 l 1,89,-1
 361.3359375 471.397460938 l 2,90,91
 410.536132812 527.796875 410.536132812 527.796875 397.936523438 592.596679688 c 128,-1,92
 385.3359375 657.397460938 385.3359375 657.397460938 319.3359375 689.796875 c 0,44,45
EndSplineSet
Validated: 524321
EndChar

StartChar: four
Encoding: 52 52 22
Width: 588
VWidth: 1060
Flags: W
LayerCount: 2
Fore
SplineSet
382.033203125 741.362304688 m 0,0,1
 452.833007812 761.762695312 452.833007812 761.762695312 487.033203125 747.962890625 c 128,-1,2
 521.233398438 734.162109375 521.233398438 734.162109375 522.43359375 686.162109375 c 0,3,4
 522.43359375 647.762695312 522.43359375 647.762695312 517.633789062 533.762695312 c 2,5,-1
 510.43359375 414.962890625 l 1,6,-1
 538.033203125 398.162109375 l 2,7,8
 569.233398438 380.162109375 569.233398438 380.162109375 575.233398438 356.762695312 c 128,-1,9
 581.233398438 333.362304688 581.233398438 333.362304688 569.233398438 275.762695312 c 0,10,11
 558.43359375 216.962890625 558.43359375 216.962890625 549.43359375 200.162109375 c 128,-1,12
 540.43359375 183.362304688 540.43359375 183.362304688 515.233398438 172.5625 c 256,13,14
 490.033203125 161.762695312 490.033203125 161.762695312 484.033203125 137.762695312 c 0,15,16
 479.233398438 113.762695312 479.233398438 113.762695312 454.633789062 97.5625 c 128,-1,17
 430.033203125 81.3623046875 430.033203125 81.3623046875 366.43359375 59.7626953125 c 0,18,19
 314.833007812 42.962890625 314.833007812 42.962890625 300.43359375 41.162109375 c 128,-1,20
 286.033203125 39.3623046875 286.033203125 39.3623046875 265.633789062 47.7626953125 c 256,21,22
 245.233398438 56.162109375 245.233398438 56.162109375 234.43359375 76.5625 c 128,-1,23
 223.633789062 96.962890625 223.633789062 96.962890625 220.033203125 137.762695312 c 0,24,25
 217.633789062 153.362304688 217.633789062 153.362304688 204.43359375 156.362304688 c 128,-1,26
 191.233398438 159.362304688 191.233398438 159.362304688 114.43359375 161.762695312 c 0,27,28
 38.8330078125 164.162109375 38.8330078125 164.162109375 21.43359375 167.762695312 c 128,-1,29
 4.033203125 171.362304688 4.033203125 171.362304688 -10.3662109375 186.962890625 c 0,30,31
 -29.56640625 206.162109375 -29.56640625 206.162109375 -29.56640625 225.962890625 c 128,-1,32
 -29.56640625 245.762695312 -29.56640625 245.762695312 -10.3662109375 284.162109375 c 128,-1,33
 8.8330078125 322.5625 8.8330078125 322.5625 66.43359375 418.5625 c 0,34,35
 157.633789062 569.762695312 157.633789062 569.762695312 184.033203125 617.762695312 c 0,36,37
 204.43359375 652.5625 204.43359375 652.5625 237.43359375 681.362304688 c 128,-1,38
 270.43359375 710.162109375 270.43359375 710.162109375 298.033203125 717.362304688 c 0,39,40
 317.233398438 722.162109375 317.233398438 722.162109375 382.033203125 741.362304688 c 0,0,1
467.233398438 719.762695312 m 0,41,42
 463.633789062 726.962890625 463.633789062 726.962890625 443.233398438 724.5625 c 128,-1,43
 422.833007812 722.162109375 422.833007812 722.162109375 366.43359375 705.362304688 c 0,44,45
 304.033203125 687.362304688 304.033203125 687.362304688 278.233398438 671.162109375 c 128,-1,46
 252.43359375 654.962890625 252.43359375 654.962890625 232.033203125 617.762695312 c 0,47,48
 210.43359375 579.362304688 210.43359375 579.362304688 113.233398438 418.5625 c 0,49,50
 14.8330078125 255.362304688 14.8330078125 255.362304688 22.033203125 248.162109375 c 0,51,52
 30.43359375 239.762695312 30.43359375 239.762695312 155.233398438 238.5625 c 2,53,-1
 280.033203125 236.162109375 l 1,54,-1
 277.633789062 179.762695312 l 2,55,56
 275.233398438 122.162109375 275.233398438 122.162109375 286.033203125 118.5625 c 0,57,58
 294.43359375 114.962890625 294.43359375 114.962890625 352.033203125 134.162109375 c 128,-1,59
 409.633789062 153.362304688 409.633789062 153.362304688 424.033203125 162.962890625 c 0,60,61
 433.633789062 172.5625 433.633789062 172.5625 433.633789062 196.5625 c 0,62,63
 433.633789062 219.362304688 433.633789062 219.362304688 443.233398438 229.5625 c 128,-1,64
 452.833007812 239.762695312 452.833007812 239.762695312 474.43359375 239.762695312 c 256,65,66
 496.033203125 239.762695312 496.033203125 239.762695312 503.233398438 257.762695312 c 0,67,68
 511.633789062 278.162109375 511.633789062 278.162109375 519.43359375 319.5625 c 128,-1,69
 527.233398438 360.962890625 527.233398438 360.962890625 522.43359375 366.962890625 c 0,70,71
 518.833007812 372.962890625 518.833007812 372.962890625 487.633789062 372.962890625 c 256,72,73
 456.43359375 372.962890625 456.43359375 372.962890625 454.033203125 380.162109375 c 0,74,75
 450.43359375 384.962890625 450.43359375 384.962890625 460.033203125 550.5625 c 0,76,77
 470.833007812 713.762695312 470.833007812 713.762695312 467.233398438 719.762695312 c 0,41,42
188.833007812 370.5625 m 0,78,79
 182.833007812 377.762695312 182.833007812 377.762695312 244.033203125 477.362304688 c 128,-1,80
 305.233398438 576.962890625 305.233398438 576.962890625 310.033203125 576.962890625 c 0,81,82
 312.43359375 574.5625 312.43359375 574.5625 312.43359375 555.962890625 c 128,-1,83
 312.43359375 537.362304688 312.43359375 537.362304688 309.43359375 498.362304688 c 128,-1,84
 306.43359375 459.362304688 306.43359375 459.362304688 300.43359375 412.5625 c 2,85,-1
 295.633789062 369.362304688 l 1,86,-1
 245.233398438 366.962890625 l 2,87,88
 197.233398438 364.5625 197.233398438 364.5625 188.833007812 370.5625 c 0,78,79
EndSplineSet
Validated: 524321
EndChar

StartChar: five
Encoding: 53 53 23
Width: 475
VWidth: 1060
Flags: W
LayerCount: 2
Fore
SplineSet
233.950195312 741.205078125 m 0,0,1
 353.950195312 756.8046875 353.950195312 756.8046875 390.549804688 756.8046875 c 128,-1,2
 427.150390625 756.8046875 427.150390625 756.8046875 443.950195312 740.004882812 c 0,3,4
 461.950195312 723.205078125 461.950195312 723.205078125 461.349609375 697.405273438 c 128,-1,5
 460.75 671.60546875 460.75 671.60546875 442.75 609.205078125 c 0,6,7
 424.75 545.60546875 424.75 545.60546875 403.150390625 522.8046875 c 2,8,-1
 382.75 500.004882812 l 1,9,-1
 403.150390625 478.405273438 l 2,10,11
 455.950195312 422.004882812 455.950195312 422.004882812 463.75 343.405273438 c 128,-1,12
 471.549804688 264.8046875 471.549804688 264.8046875 434.950195312 194.004882812 c 128,-1,13
 398.349609375 123.205078125 398.349609375 123.205078125 328.75 87.205078125 c 0,14,15
 266.349609375 54.8046875 266.349609375 54.8046875 191.349609375 44.0048828125 c 128,-1,16
 116.349609375 33.205078125 116.349609375 33.205078125 58.75 46.4052734375 c 128,-1,17
 1.150390625 59.60546875 1.150390625 59.60546875 -14.4501953125 92.0048828125 c 0,18,19
 -21.650390625 106.405273438 -21.650390625 106.405273438 -20.4501953125 122.004882812 c 128,-1,20
 -19.25 137.60546875 -19.25 137.60546875 -7.25 178.405273438 c 0,21,22
 11.9501953125 246.8046875 11.9501953125 246.8046875 27.5498046875 261.205078125 c 128,-1,23
 43.150390625 275.60546875 43.150390625 275.60546875 106.75 279.205078125 c 0,24,25
 147.549804688 281.60546875 147.549804688 281.60546875 161.349609375 284.60546875 c 128,-1,26
 175.150390625 287.60546875 175.150390625 287.60546875 175.150390625 294.8046875 c 0,27,28
 175.150390625 305.60546875 175.150390625 305.60546875 124.75 311.60546875 c 0,29,30
 74.349609375 315.205078125 74.349609375 315.205078125 57.5498046875 324.8046875 c 0,31,32
 17.9501953125 345.205078125 17.9501953125 345.205078125 26.349609375 430.405273438 c 0,33,34
 33.5498046875 506.004882812 33.5498046875 506.004882812 50.349609375 593.004882812 c 128,-1,35
 67.150390625 680.004882812 67.150390625 680.004882812 75.5498046875 693.205078125 c 0,36,37
 87.5498046875 713.60546875 87.5498046875 713.60546875 114.549804688 721.405273438 c 128,-1,38
 141.549804688 729.205078125 141.549804688 729.205078125 233.950195312 741.205078125 c 0,0,1
409.150390625 706.405273438 m 0,39,40
 410.349609375 717.205078125 410.349609375 717.205078125 404.950195312 719.60546875 c 128,-1,41
 399.549804688 722.004882812 399.549804688 722.004882812 379.150390625 723.205078125 c 0,42,43
 344.349609375 724.405273438 344.349609375 724.405273438 237.549804688 710.60546875 c 128,-1,44
 130.75 696.8046875 130.75 696.8046875 124.75 690.8046875 c 0,45,46
 116.349609375 681.205078125 116.349609375 681.205078125 100.75 590.004882812 c 128,-1,47
 85.150390625 498.8046875 85.150390625 498.8046875 82.75 448.405273438 c 2,48,-1
 81.5498046875 393.205078125 l 1,49,-1
 124.75 390.8046875 l 2,50,51
 157.150390625 389.60546875 157.150390625 389.60546875 185.950195312 384.8046875 c 0,52,53
 221.950195312 376.405273438 221.950195312 376.405273438 232.150390625 340.405273438 c 128,-1,54
 242.349609375 304.405273438 242.349609375 304.405273438 215.950195312 274.405273438 c 0,55,56
 207.549804688 264.8046875 207.549804688 264.8046875 199.150390625 260.60546875 c 128,-1,57
 190.75 256.405273438 190.75 256.405273438 176.349609375 254.004882812 c 128,-1,58
 161.950195312 251.60546875 161.950195312 251.60546875 128.349609375 249.205078125 c 2,59,-1
 59.9501953125 244.405273438 l 1,60,-1
 45.5498046875 194.004882812 l 2,61,62
 32.349609375 148.405273438 32.349609375 148.405273438 39.5498046875 135.8046875 c 128,-1,63
 46.75 123.205078125 46.75 123.205078125 88.75 118.405273438 c 0,64,65
 151.150390625 110.004882812 151.150390625 110.004882812 232.75 131.60546875 c 128,-1,66
 314.349609375 153.205078125 314.349609375 153.205078125 350.349609375 188.004882812 c 0,67,68
 394.75 228.8046875 394.75 228.8046875 407.349609375 302.60546875 c 128,-1,69
 419.950195312 376.405273438 419.950195312 376.405273438 391.150390625 428.004882812 c 0,70,71
 351.549804688 497.60546875 351.549804688 497.60546875 260.349609375 516.8046875 c 0,72,73
 205.150390625 527.60546875 205.150390625 527.60546875 205.150390625 538.405273438 c 0,74,75
 203.950195312 542.004882812 203.950195312 542.004882812 211.150390625 550.405273438 c 0,76,77
 220.75 561.205078125 220.75 561.205078125 271.150390625 561.205078125 c 128,-1,78
 321.549804688 561.205078125 321.549804688 561.205078125 347.950195312 572.004882812 c 0,79,80
 365.950195312 580.405273438 365.950195312 580.405273438 373.150390625 591.205078125 c 128,-1,81
 380.349609375 602.004882812 380.349609375 602.004882812 391.150390625 638.004882812 c 0,82,83
 404.349609375 684.8046875 404.349609375 684.8046875 409.150390625 706.405273438 c 0,39,40
EndSplineSet
Validated: 524321
EndChar

StartChar: six
Encoding: 54 54 24
Width: 540
VWidth: 1060
Flags: W
LayerCount: 2
Fore
SplineSet
228.06640625 747.211914062 m 0,0,1
 250.8671875 758.01171875 250.8671875 758.01171875 321.666992188 755.611328125 c 0,2,3
 348.06640625 754.411132812 348.06640625 754.411132812 360.666992188 753.811523438 c 128,-1,4
 373.266601562 753.211914062 373.266601562 753.211914062 383.466796875 750.211914062 c 128,-1,5
 393.666992188 747.211914062 393.666992188 747.211914062 398.466796875 743.01171875 c 128,-1,6
 403.266601562 738.811523438 403.266601562 738.811523438 409.266601562 730.411132812 c 0,7,8
 430.8671875 707.611328125 430.8671875 707.611328125 427.266601562 684.211914062 c 128,-1,9
 423.666992188 660.811523438 423.666992188 660.811523438 393.666992188 620.01171875 c 0,10,11
 357.666992188 574.411132812 357.666992188 574.411132812 357.666992188 567.211914062 c 0,12,13
 357.666992188 561.211914062 357.666992188 561.211914062 386.466796875 549.211914062 c 0,14,15
 453.666992188 520.411132812 453.666992188 520.411132812 492.06640625 457.411132812 c 128,-1,16
 530.466796875 394.411132812 530.466796875 394.411132812 529.8671875 315.811523438 c 128,-1,17
 529.266601562 237.211914062 529.266601562 237.211914062 488.466796875 166.411132812 c 0,18,19
 448.8671875 99.2119140625 448.8671875 99.2119140625 371.466796875 65.611328125 c 128,-1,20
 294.06640625 32.01171875 294.06640625 32.01171875 207.666992188 42.2119140625 c 128,-1,21
 121.266601562 52.4111328125 121.266601562 52.4111328125 60.06640625 104.01171875 c 0,22,23
 -17.93359375 168.811523438 -17.93359375 168.811523438 -25.7333984375 288.211914062 c 128,-1,24
 -33.533203125 407.611328125 -33.533203125 407.611328125 33.6669921875 513.211914062 c 0,25,26
 48.06640625 536.01171875 48.06640625 536.01171875 70.2666015625 566.01171875 c 128,-1,27
 92.466796875 596.01171875 92.466796875 596.01171875 116.466796875 625.411132812 c 128,-1,28
 140.466796875 654.811523438 140.466796875 654.811523438 163.266601562 681.811523438 c 128,-1,29
 186.06640625 708.811523438 186.06640625 708.811523438 204.06640625 726.211914062 c 128,-1,30
 222.06640625 743.611328125 222.06640625 743.611328125 228.06640625 747.211914062 c 0,0,1
370.8671875 714.811523438 m 0,31,32
 366.06640625 726.811523438 366.06640625 726.811523438 307.266601562 726.811523438 c 2,33,-1
 248.466796875 726.811523438 l 1,34,-1
 184.8671875 650.01171875 l 2,35,36
 91.2666015625 538.411132812 91.2666015625 538.411132812 60.06640625 475.411132812 c 128,-1,37
 28.8671875 412.411132812 28.8671875 412.411132812 28.8671875 339.211914062 c 0,38,39
 28.8671875 197.611328125 28.8671875 197.611328125 132.06640625 142.411132812 c 0,40,41
 159.666992188 126.811523438 159.666992188 126.811523438 177.666992188 123.211914062 c 128,-1,42
 195.666992188 119.611328125 195.666992188 119.611328125 240.06640625 119.611328125 c 0,43,44
 344.466796875 119.611328125 344.466796875 119.611328125 405.666992188 172.411132812 c 128,-1,45
 466.8671875 225.211914062 466.8671875 225.211914062 474.06640625 320.01171875 c 0,46,47
 481.266601562 416.01171875 481.266601562 416.01171875 429.666992188 476.01171875 c 0,48,49
 404.466796875 506.01171875 404.466796875 506.01171875 377.466796875 518.01171875 c 128,-1,50
 350.466796875 530.01171875 350.466796875 530.01171875 311.466796875 530.01171875 c 128,-1,51
 272.466796875 530.01171875 272.466796875 530.01171875 268.8671875 536.01171875 c 256,52,53
 265.266601562 542.01171875 265.266601562 542.01171875 295.266601562 591.811523438 c 128,-1,54
 325.266601562 641.611328125 325.266601562 641.611328125 350.466796875 671.611328125 c 0,55,56
 374.466796875 704.01171875 374.466796875 704.01171875 370.8671875 714.811523438 c 0,31,32
225.666992188 416.01171875 m 0,57,58
 241.266601562 436.411132812 241.266601562 436.411132812 264.06640625 436.411132812 c 128,-1,59
 286.8671875 436.411132812 286.8671875 436.411132812 300.06640625 416.01171875 c 0,60,61
 314.466796875 395.611328125 314.466796875 395.611328125 310.8671875 342.211914062 c 128,-1,62
 307.266601562 288.811523438 307.266601562 288.811523438 290.466796875 266.01171875 c 0,63,64
 266.466796875 233.611328125 266.466796875 233.611328125 238.266601562 243.811523438 c 128,-1,65
 210.06640625 254.01171875 210.06640625 254.01171875 202.8671875 297.211914062 c 0,66,67
 199.266601562 328.411132812 199.266601562 328.411132812 205.8671875 363.811523438 c 128,-1,68
 212.466796875 399.211914062 212.466796875 399.211914062 225.666992188 416.01171875 c 0,57,58
EndSplineSet
Validated: 524321
EndChar

StartChar: seven
Encoding: 55 55 25
Width: 501
VWidth: 1064
Flags: W
LayerCount: 2
Fore
SplineSet
87.5712890625 723 m 0,0,1
 103.171875 730.200195312 103.171875 730.200195312 274.771484375 730.200195312 c 2,2,-1
 446.372070312 731.400390625 l 1,3,-1
 470.372070312 707.400390625 l 2,4,5
 484.771484375 691.799804688 484.771484375 691.799804688 488.372070312 682.200195312 c 128,-1,6
 491.971679688 672.599609375 491.971679688 672.599609375 489.571289062 658.200195312 c 0,7,8
 484.771484375 625.799804688 484.771484375 625.799804688 374.971679688 350.400390625 c 128,-1,9
 265.171875 75 265.171875 75 251.971679688 60.599609375 c 0,10,11
 224.372070312 30.599609375 224.372070312 30.599609375 107.971679688 19.7998046875 c 0,12,13
 80.3720703125 17.400390625 80.3720703125 17.400390625 68.3720703125 19.7998046875 c 128,-1,14
 56.3720703125 22.2001953125 56.3720703125 22.2001953125 43.171875 33 c 0,15,16
 28.771484375 43.7998046875 28.771484375 43.7998046875 23.9716796875 55.2001953125 c 128,-1,17
 19.171875 66.599609375 19.171875 66.599609375 24.5712890625 94.2001953125 c 128,-1,18
 29.9716796875 121.799804688 29.9716796875 121.799804688 43.771484375 159 c 128,-1,19
 57.5712890625 196.200195312 57.5712890625 196.200195312 87.5712890625 267 c 0,20,21
 154.771484375 429 154.771484375 429 155.971679688 438.599609375 c 0,22,23
 158.372070312 448.200195312 158.372070312 448.200195312 145.771484375 451.200195312 c 128,-1,24
 133.171875 454.200195312 133.171875 454.200195312 86.3720703125 456.599609375 c 0,25,26
 26.3720703125 460.200195312 26.3720703125 460.200195312 5.3720703125 471 c 128,-1,27
 -15.6279296875 481.799804688 -15.6279296875 481.799804688 -21.6279296875 511.799804688 c 0,28,29
 -26.4287109375 534.599609375 -26.4287109375 534.599609375 5.9716796875 606.599609375 c 0,30,31
 31.171875 663 31.171875 663 49.171875 688.799804688 c 128,-1,32
 67.171875 714.599609375 67.171875 714.599609375 87.5712890625 723 c 0,0,1
434.372070312 688.200195312 m 0,33,34
 429.571289062 700.200195312 429.571289062 700.200195312 265.171875 700.200195312 c 128,-1,35
 100.771484375 700.200195312 100.771484375 700.200195312 94.771484375 690.599609375 c 0,36,37
 82.771484375 671.400390625 82.771484375 671.400390625 67.771484375 638.400390625 c 128,-1,38
 52.771484375 605.400390625 52.771484375 605.400390625 41.9716796875 577.200195312 c 128,-1,39
 31.171875 549 31.171875 549 32.3720703125 545.400390625 c 0,40,41
 35.9716796875 534.599609375 35.9716796875 534.599609375 134.372070312 534.599609375 c 0,42,43
 231.571289062 534.599609375 231.571289062 534.599609375 236.372070312 528.599609375 c 0,44,45
 239.971679688 521.400390625 239.971679688 521.400390625 154.771484375 315 c 0,46,47
 68.3720703125 107.400390625 68.3720703125 107.400390625 76.771484375 100.200195312 c 0,48,49
 80.3720703125 96.599609375 80.3720703125 96.599609375 100.771484375 97.7998046875 c 128,-1,50
 121.171875 99 121.171875 99 144.571289062 102 c 128,-1,51
 167.971679688 105 167.971679688 105 188.971679688 111 c 128,-1,52
 209.971679688 117 209.971679688 117 214.771484375 121.799804688 c 0,53,54
 220.771484375 129 220.771484375 129 276.571289062 268.200195312 c 128,-1,55
 332.372070312 407.400390625 332.372070312 407.400390625 383.971679688 545.400390625 c 128,-1,56
 435.571289062 683.400390625 435.571289062 683.400390625 434.372070312 688.200195312 c 0,33,34
EndSplineSet
Validated: 524321
EndChar

StartChar: eight
Encoding: 56 56 26
Width: 531
VWidth: 1061
Flags: W
LayerCount: 2
Fore
SplineSet
195.284179688 731.548828125 m 0,0,1
 345.284179688 771.1484375 345.284179688 771.1484375 441.284179688 675.1484375 c 0,2,3
 526.484375 591.1484375 526.484375 591.1484375 483.284179688 475.948242188 c 2,4,-1
 467.684570312 435.1484375 l 1,5,-1
 486.884765625 406.348632812 l 2,6,7
 518.084960938 358.348632812 518.084960938 358.348632812 520.484375 294.748046875 c 128,-1,8
 522.884765625 231.1484375 522.884765625 231.1484375 494.084960938 177.1484375 c 0,9,10
 458.084960938 113.548828125 458.084960938 113.548828125 381.884765625 76.3486328125 c 128,-1,11
 305.684570312 39.1484375 305.684570312 39.1484375 218.684570312 41.548828125 c 128,-1,12
 131.684570312 43.9482421875 131.684570312 43.9482421875 69.2841796875 87.1484375 c 0,13,14
 34.484375 111.1484375 34.484375 111.1484375 15.2841796875 138.748046875 c 128,-1,15
 -3.9150390625 166.348632812 -3.9150390625 166.348632812 -17.115234375 209.548828125 c 0,16,17
 -25.515625 239.548828125 -25.515625 239.548828125 -25.515625 253.948242188 c 128,-1,18
 -25.515625 268.348632812 -25.515625 268.348632812 -15.9150390625 304.348632812 c 0,19,20
 -2.7158203125 355.948242188 -2.7158203125 355.948242188 17.6845703125 384.748046875 c 0,21,22
 33.2841796875 406.348632812 33.2841796875 406.348632812 33.884765625 414.748046875 c 128,-1,23
 34.484375 423.1484375 34.484375 423.1484375 24.884765625 453.1484375 c 0,24,25
 -12.3154296875 569.548828125 -12.3154296875 569.548828125 62.0849609375 653.548828125 c 0,26,27
 108.884765625 707.548828125 108.884765625 707.548828125 195.284179688 731.548828125 c 0,0,1
362.084960938 693.1484375 m 0,28,29
 291.284179688 725.548828125 291.284179688 725.548828125 200.084960938 700.948242188 c 128,-1,30
 108.884765625 676.348632812 108.884765625 676.348632812 80.0849609375 615.1484375 c 0,31,32
 64.484375 583.948242188 64.484375 583.948242188 66.884765625 542.548828125 c 128,-1,33
 69.2841796875 501.1484375 69.2841796875 501.1484375 87.2841796875 474.748046875 c 0,34,35
 106.484375 447.1484375 106.484375 447.1484375 106.484375 439.948242188 c 0,36,37
 106.484375 435.1484375 106.484375 435.1484375 75.2841796875 394.348632812 c 0,38,39
 18.884765625 322.348632812 18.884765625 322.348632812 33.884765625 249.748046875 c 128,-1,40
 48.884765625 177.1484375 48.884765625 177.1484375 128.084960938 138.748046875 c 0,41,42
 166.484375 119.548828125 166.484375 119.548828125 227.084960938 120.1484375 c 128,-1,43
 287.684570312 120.748046875 287.684570312 120.748046875 335.684570312 138.748046875 c 0,44,45
 467.684570312 189.1484375 467.684570312 189.1484375 467.684570312 307.948242188 c 0,46,47
 467.684570312 381.1484375 467.684570312 381.1484375 419.684570312 427.948242188 c 2,48,-1
 394.484375 453.1484375 l 1,49,-1
 417.284179688 485.548828125 l 2,50,51
 426.884765625 499.948242188 426.884765625 499.948242188 431.684570312 510.748046875 c 128,-1,52
 436.484375 521.548828125 436.484375 521.548828125 438.284179688 534.1484375 c 128,-1,53
 440.084960938 546.748046875 440.084960938 546.748046875 440.084960938 569.548828125 c 0,54,55
 440.084960938 618.748046875 440.084960938 618.748046875 422.684570312 645.748046875 c 128,-1,56
 405.284179688 672.748046875 405.284179688 672.748046875 362.084960938 693.1484375 c 0,28,29
238.484375 625.948242188 m 0,57,58
 252.884765625 633.1484375 252.884765625 633.1484375 261.884765625 631.948242188 c 128,-1,59
 270.884765625 630.748046875 270.884765625 630.748046875 281.684570312 618.748046875 c 0,60,61
 311.684570312 586.348632812 311.684570312 586.348632812 294.884765625 523.948242188 c 0,62,63
 287.684570312 496.348632812 287.684570312 496.348632812 275.684570312 488.548828125 c 128,-1,64
 263.684570312 480.748046875 263.684570312 480.748046875 243.284179688 490.348632812 c 0,65,66
 214.484375 503.548828125 214.484375 503.548828125 212.684570312 556.348632812 c 128,-1,67
 210.884765625 609.1484375 210.884765625 609.1484375 238.484375 625.948242188 c 0,57,58
222.884765625 376.348632812 m 0,68,69
 234.884765625 390.748046875 234.884765625 390.748046875 252.284179688 389.548828125 c 128,-1,70
 269.684570312 388.348632812 269.684570312 388.348632812 284.084960938 373.948242188 c 0,71,72
 292.484375 363.1484375 292.484375 363.1484375 295.484375 346.948242188 c 128,-1,73
 298.484375 330.748046875 298.484375 330.748046875 298.484375 291.748046875 c 128,-1,74
 298.484375 252.748046875 298.484375 252.748046875 295.484375 236.548828125 c 128,-1,75
 292.484375 220.348632812 292.484375 220.348632812 284.084960938 210.748046875 c 0,76,77
 254.084960938 178.348632812 254.084960938 178.348632812 224.084960938 215.548828125 c 0,78,79
 213.284179688 229.948242188 213.284179688 229.948242188 210.884765625 244.348632812 c 128,-1,80
 208.484375 258.748046875 208.484375 258.748046875 209.684570312 300.748046875 c 0,81,82
 212.084960938 364.348632812 212.084960938 364.348632812 222.884765625 376.348632812 c 0,68,69
EndSplineSet
Validated: 524321
EndChar

StartChar: nine
Encoding: 57 57 27
Width: 559
VWidth: 1063
Flags: W
LayerCount: 2
Fore
SplineSet
209.502929688 729.442382812 m 0,0,1
 352.302734375 771.442382812 352.302734375 771.442382812 449.502929688 683.841796875 c 0,2,3
 541.903320312 601.041992188 541.903320312 601.041992188 548.502929688 481.041992188 c 128,-1,4
 555.102539062 361.041992188 555.102539062 361.041992188 474.703125 229.041992188 c 0,5,6
 436.302734375 164.2421875 436.302734375 164.2421875 382.302734375 98.2421875 c 128,-1,7
 328.302734375 32.2421875 328.302734375 32.2421875 311.502929688 27.4423828125 c 0,8,9
 291.102539062 22.6416015625 291.102539062 22.6416015625 243.102539062 43.0419921875 c 0,10,11
 177.102539062 70.6416015625 177.102539062 70.6416015625 163.903320312 96.4423828125 c 128,-1,12
 150.703125 122.2421875 150.703125 122.2421875 178.302734375 169.041992188 c 0,13,14
 193.903320312 196.641601562 193.903320312 196.641601562 191.502929688 202.641601562 c 128,-1,15
 189.102539062 208.641601562 189.102539062 208.641601562 157.903320312 214.641601562 c 0,16,17
 113.502929688 224.2421875 113.502929688 224.2421875 67.302734375 260.841796875 c 128,-1,18
 21.1025390625 297.442382812 21.1025390625 297.442382812 -0.4970703125 341.841796875 c 0,19,20
 -14.8974609375 369.442382812 -14.8974609375 369.442382812 -22.697265625 412.041992188 c 128,-1,21
 -30.4970703125 454.641601562 -30.4970703125 454.641601562 -26.8974609375 478.641601562 c 0,22,23
 -12.4970703125 572.2421875 -12.4970703125 572.2421875 48.703125 637.041992188 c 128,-1,24
 109.903320312 701.841796875 109.903320312 701.841796875 209.502929688 729.442382812 c 0,0,1
376.302734375 693.442382812 m 0,25,26
 327.102539062 717.442382812 327.102539062 717.442382812 267.102539062 712.041992188 c 128,-1,27
 207.102539062 706.641601562 207.102539062 706.641601562 148.302734375 671.841796875 c 0,28,29
 76.302734375 629.841796875 76.302734375 629.841796875 45.703125 562.041992188 c 128,-1,30
 15.1025390625 494.2421875 15.1025390625 494.2421875 33.1025390625 425.841796875 c 128,-1,31
 51.1025390625 357.442382812 51.1025390625 357.442382812 114.703125 314.2421875 c 0,32,33
 142.302734375 296.2421875 142.302734375 296.2421875 156.703125 292.641601562 c 128,-1,34
 171.102539062 289.041992188 171.102539062 289.041992188 213.102539062 290.2421875 c 0,35,36
 256.302734375 291.442382812 256.302734375 291.442382812 264.102539062 289.041992188 c 128,-1,37
 271.903320312 286.641601562 271.903320312 286.641601562 269.502929688 273.442382812 c 0,38,39
 268.302734375 254.2421875 268.302734375 254.2421875 241.903320312 199.041992188 c 0,40,41
 214.302734375 146.2421875 214.302734375 146.2421875 217.903320312 139.041992188 c 0,42,43
 222.703125 131.841796875 222.703125 131.841796875 258.703125 117.442382812 c 128,-1,44
 294.703125 103.041992188 294.703125 103.041992188 300.703125 106.641601562 c 256,45,46
 306.703125 110.2421875 306.703125 110.2421875 333.703125 144.442382812 c 128,-1,47
 360.703125 178.641601562 360.703125 178.641601562 390.703125 220.641601562 c 128,-1,48
 420.703125 262.641601562 420.703125 262.641601562 433.903320312 285.442382812 c 0,49,50
 499.903320312 393.442382812 499.903320312 393.442382812 493.903320312 497.841796875 c 0,51,52
 485.502929688 638.2421875 485.502929688 638.2421875 376.302734375 693.442382812 c 0,25,26
225.102539062 591.442382812 m 0,53,54
 244.302734375 611.841796875 244.302734375 611.841796875 264.703125 610.041992188 c 128,-1,55
 285.102539062 608.2421875 285.102539062 608.2421875 303.102539062 585.442382812 c 0,56,57
 312.703125 571.041992188 312.703125 571.041992188 315.703125 554.841796875 c 128,-1,58
 318.703125 538.641601562 318.703125 538.641601562 318.703125 496.641601562 c 256,59,60
 318.703125 454.641601562 318.703125 454.641601562 315.703125 439.641601562 c 128,-1,61
 312.703125 424.641601562 312.703125 424.641601562 301.903320312 413.841796875 c 0,62,63
 275.502929688 387.442382812 275.502929688 387.442382812 240.102539062 410.841796875 c 128,-1,64
 204.703125 434.2421875 204.703125 434.2421875 199.903320312 481.041992188 c 0,65,66
 191.502929688 555.442382812 191.502929688 555.442382812 225.102539062 591.442382812 c 0,53,54
268.302734375 485.841796875 m 128,-1,68
 268.302734375 517.041992188 268.302734375 517.041992188 260.502929688 517.041992188 c 128,-1,69
 252.703125 517.041992188 252.703125 517.041992188 252.703125 485.841796875 c 128,-1,70
 252.703125 454.641601562 252.703125 454.641601562 260.502929688 454.641601562 c 128,-1,67
 268.302734375 454.641601562 268.302734375 454.641601562 268.302734375 485.841796875 c 128,-1,68
EndSplineSet
Validated: 524321
EndChar

StartChar: colon
Encoding: 58 58 28
Width: 286
VWidth: 1073
Flags: W
LayerCount: 2
Fore
SplineSet
52.0673828125 602.799804688 m 0,0,1
 72.466796875 613.599609375 72.466796875 613.599609375 138.466796875 613.599609375 c 0,2,3
 234.466796875 613.599609375 234.466796875 613.599609375 257.8671875 589 c 128,-1,4
 281.267578125 564.400390625 281.267578125 564.400390625 271.666992188 475.599609375 c 0,5,6
 269.267578125 448 269.267578125 448 266.267578125 430.599609375 c 128,-1,7
 263.267578125 413.200195312 263.267578125 413.200195312 258.466796875 397.599609375 c 128,-1,8
 253.666992188 382 253.666992188 382 246.466796875 374.799804688 c 128,-1,9
 239.267578125 367.599609375 239.267578125 367.599609375 227.8671875 359.799804688 c 128,-1,10
 216.466796875 352 216.466796875 352 201.466796875 351.400390625 c 128,-1,11
 186.466796875 350.799804688 186.466796875 350.799804688 164.8671875 348.400390625 c 128,-1,12
 143.267578125 346 143.267578125 346 115.666992188 348.400390625 c 0,13,14
 92.8671875 349.599609375 92.8671875 349.599609375 80.267578125 350.200195312 c 128,-1,15
 67.6669921875 350.799804688 67.6669921875 350.799804688 53.8671875 353.200195312 c 128,-1,16
 40.0673828125 355.599609375 40.0673828125 355.599609375 34.0673828125 358 c 128,-1,17
 28.0673828125 360.400390625 28.0673828125 360.400390625 20.8671875 367.599609375 c 128,-1,18
 13.6669921875 374.799804688 13.6669921875 374.799804688 11.8671875 380.799804688 c 128,-1,19
 10.0673828125 386.799804688 10.0673828125 386.799804688 7.6669921875 401.200195312 c 128,-1,20
 5.267578125 415.599609375 5.267578125 415.599609375 5.267578125 428.200195312 c 128,-1,21
 5.267578125 440.799804688 5.267578125 440.799804688 5.267578125 463.599609375 c 0,22,23
 5.267578125 527.200195312 5.267578125 527.200195312 16.0673828125 559 c 128,-1,24
 26.8671875 590.799804688 26.8671875 590.799804688 52.0673828125 602.799804688 c 0,0,1
217.666992188 515.200195312 m 2,25,-1
 220.067382812 578.799804688 l 1,26,-1
 149.267578125 581.200195312 l 2,27,28
 77.267578125 582.400390625 77.267578125 582.400390625 67.6669921875 571.599609375 c 0,29,30
 59.267578125 560.799804688 59.267578125 560.799804688 61.6669921875 494.799804688 c 2,31,-1
 64.0673828125 428.799804688 l 1,32,-1
 131.267578125 426.400390625 l 2,33,34
 150.466796875 426.400390625 150.466796875 426.400390625 158.8671875 425.799804688 c 128,-1,35
 167.267578125 425.200195312 167.267578125 425.200195312 178.666992188 427 c 128,-1,36
 190.067382812 428.799804688 190.067382812 428.799804688 193.666992188 429.400390625 c 128,-1,37
 197.267578125 430 197.267578125 430 203.267578125 436.599609375 c 128,-1,38
 209.267578125 443.200195312 209.267578125 443.200195312 210.466796875 446.799804688 c 128,-1,39
 211.666992188 450.400390625 211.666992188 450.400390625 213.466796875 463 c 128,-1,40
 215.267578125 475.599609375 215.267578125 475.599609375 215.8671875 485.200195312 c 128,-1,41
 216.466796875 494.799804688 216.466796875 494.799804688 217.666992188 515.200195312 c 2,25,-1
37.6669921875 307.599609375 m 0,42,43
 55.6669921875 314.799804688 55.6669921875 314.799804688 143.267578125 314.799804688 c 0,44,45
 204.466796875 314.799804688 204.466796875 314.799804688 219.466796875 312.400390625 c 128,-1,46
 234.466796875 310 234.466796875 310 248.8671875 295.599609375 c 0,47,48
 262.067382812 281.200195312 262.067382812 281.200195312 264.466796875 268.599609375 c 128,-1,49
 266.8671875 256 266.8671875 256 265.666992188 215.200195312 c 0,50,51
 260.8671875 89.2001953125 260.8671875 89.2001953125 228.466796875 68.7998046875 c 0,52,53
 211.666992188 58 211.666992188 58 125.267578125 55.599609375 c 0,54,55
 62.8671875 53.2001953125 62.8671875 53.2001953125 47.267578125 55.599609375 c 128,-1,56
 31.6669921875 58 31.6669921875 58 17.267578125 71.2001953125 c 0,57,58
 2.8671875 85.599609375 2.8671875 85.599609375 -0.1328125 99.400390625 c 128,-1,59
 -3.1328125 113.200195312 -3.1328125 113.200195312 -3.1328125 168.400390625 c 0,60,61
 -3.1328125 290.799804688 -3.1328125 290.799804688 37.6669921875 307.599609375 c 0,42,43
210.466796875 217.599609375 m 2,62,-1
 212.8671875 280 l 1,63,-1
 136.067382812 282.400390625 l 2,64,65
 90.466796875 283.599609375 90.466796875 283.599609375 73.6669921875 281.799804688 c 128,-1,66
 56.8671875 280 56.8671875 280 54.466796875 274 c 0,67,68
 50.8671875 257.200195312 50.8671875 257.200195312 53.267578125 197.200195312 c 2,69,-1
 55.6669921875 131.200195312 l 1,70,-1
 122.8671875 133.599609375 l 2,71,72
 187.666992188 136 187.666992188 136 198.466796875 145.599609375 c 0,73,74
 206.8671875 156.400390625 206.8671875 156.400390625 210.466796875 217.599609375 c 2,62,-1
EndSplineSet
Validated: 524321
EndChar

StartChar: semicolon
Encoding: 59 59 29
Width: 286
VWidth: 1082
Flags: W
LayerCount: 2
Fore
SplineSet
98.912109375 615.415039062 m 0,0,1
 170.912109375 621.415039062 170.912109375 621.415039062 190.711914062 620.815429688 c 128,-1,2
 210.51171875 620.215820312 210.51171875 620.215820312 229.711914062 614.215820312 c 0,3,4
 258.51171875 603.415039062 258.51171875 603.415039062 268.112304688 578.215820312 c 128,-1,5
 277.711914062 553.015625 277.711914062 553.015625 272.912109375 499.015625 c 0,6,7
 270.51171875 470.215820312 270.51171875 470.215820312 268.711914062 453.415039062 c 128,-1,8
 266.912109375 436.615234375 266.912109375 436.615234375 263.3125 419.815429688 c 128,-1,9
 259.711914062 403.015625 259.711914062 403.015625 256.112304688 394.615234375 c 128,-1,10
 252.51171875 386.215820312 252.51171875 386.215820312 243.51171875 377.215820312 c 128,-1,11
 234.51171875 368.215820312 234.51171875 368.215820312 226.112304688 365.215820312 c 128,-1,12
 217.711914062 362.215820312 217.711914062 362.215820312 201.51171875 359.215820312 c 128,-1,13
 185.3125 356.215820312 185.3125 356.215820312 169.112304688 356.215820312 c 128,-1,14
 152.912109375 356.215820312 152.912109375 356.215820312 126.51171875 356.215820312 c 0,15,16
 46.1123046875 356.215820312 46.1123046875 356.215820312 27.51171875 368.815429688 c 128,-1,17
 8.912109375 381.415039062 8.912109375 381.415039062 5.3125 437.815429688 c 0,18,19
 2.912109375 473.815429688 2.912109375 473.815429688 4.7119140625 504.415039062 c 128,-1,20
 6.51171875 535.015625 6.51171875 535.015625 12.51171875 558.415039062 c 128,-1,21
 18.51171875 581.815429688 18.51171875 581.815429688 26.912109375 592.615234375 c 256,22,23
 35.3125 603.415039062 35.3125 603.415039062 49.1123046875 608.215820312 c 128,-1,24
 62.912109375 613.015625 62.912109375 613.015625 98.912109375 615.415039062 c 0,0,1
218.912109375 580.615234375 m 0,25,26
 216.51171875 591.415039062 216.51171875 591.415039062 186.51171875 590.215820312 c 0,27,28
 77.3125 584.215820312 77.3125 584.215820312 66.51171875 572.215820312 c 0,29,30
 56.912109375 560.215820312 56.912109375 560.215820312 60.51171875 499.015625 c 2,31,-1
 61.7119140625 437.815429688 l 1,32,-1
 211.711914062 437.815429688 l 1,33,-1
 217.711914062 505.015625 l 2,34,35
 223.711914062 571.015625 223.711914062 571.015625 218.912109375 580.615234375 c 0,25,26
46.1123046875 313.015625 m 0,36,37
 68.912109375 323.815429688 68.912109375 323.815429688 154.112304688 322.615234375 c 0,38,39
 211.711914062 321.415039062 211.711914062 321.415039062 227.912109375 318.415039062 c 128,-1,40
 244.112304688 315.415039062 244.112304688 315.415039062 256.112304688 302.215820312 c 0,41,42
 268.112304688 291.415039062 268.112304688 291.415039062 270.51171875 277.615234375 c 128,-1,43
 272.912109375 263.815429688 272.912109375 263.815429688 271.711914062 220.615234375 c 0,44,45
 270.51171875 155.815429688 270.51171875 155.815429688 259.112304688 121.015625 c 128,-1,46
 247.711914062 86.2158203125 247.711914062 86.2158203125 212.912109375 35.8154296875 c 0,47,48
 168.51171875 -28.984375 168.51171875 -28.984375 143.3125 -39.7841796875 c 128,-1,49
 118.112304688 -50.5849609375 118.112304688 -50.5849609375 67.7119140625 -25.384765625 c 0,50,51
 25.7119140625 -3.7841796875 25.7119140625 -3.7841796875 13.7119140625 13.015625 c 128,-1,52
 1.7119140625 29.8154296875 1.7119140625 29.8154296875 5.3125 61.015625 c 0,53,54
 11.3125 97.015625 11.3125 97.015625 1.7119140625 101.815429688 c 0,55,56
 -6.6875 106.615234375 -6.6875 106.615234375 -1.8876953125 183.415039062 c 128,-1,57
 2.912109375 260.215820312 2.912109375 260.215820312 12.51171875 281.815429688 c 0,58,59
 23.3125 303.415039062 23.3125 303.415039062 46.1123046875 313.015625 c 0,36,37
220.112304688 283.015625 m 0,60,61
 215.3125 292.615234375 215.3125 292.615234375 140.912109375 292.615234375 c 0,62,63
 137.3125 292.615234375 137.3125 292.615234375 132.51171875 292.615234375 c 0,64,65
 74.912109375 293.815429688 74.912109375 293.815429688 65.912109375 284.215820312 c 128,-1,66
 56.912109375 274.615234375 56.912109375 274.615234375 55.7119140625 217.015625 c 0,67,68
 55.7119140625 211.015625 55.7119140625 211.015625 55.7119140625 208.615234375 c 0,69,70
 55.7119140625 187.015625 55.7119140625 187.015625 55.1123046875 175.015625 c 128,-1,71
 54.51171875 163.015625 54.51171875 163.015625 56.912109375 156.415039062 c 128,-1,72
 59.3125 149.815429688 59.3125 149.815429688 62.3125 148.015625 c 128,-1,73
 65.3125 146.215820312 65.3125 146.215820312 72.51171875 146.215820312 c 0,74,75
 88.1123046875 143.815429688 88.1123046875 143.815429688 88.7119140625 137.815429688 c 128,-1,76
 89.3125 131.815429688 89.3125 131.815429688 73.7119140625 106.615234375 c 0,77,78
 58.1123046875 79.015625 58.1123046875 79.015625 60.51171875 68.2158203125 c 128,-1,79
 62.912109375 57.4150390625 62.912109375 57.4150390625 89.3125 46.615234375 c 0,80,81
 118.112304688 33.4150390625 118.112304688 33.4150390625 130.711914062 41.2158203125 c 128,-1,82
 143.3125 49.015625 143.3125 49.015625 178.112304688 99.4150390625 c 0,83,84
 198.51171875 130.615234375 198.51171875 130.615234375 205.112304688 149.815429688 c 128,-1,85
 211.711914062 169.015625 211.711914062 169.015625 216.51171875 209.815429688 c 0,86,87
 223.711914062 269.815429688 223.711914062 269.815429688 220.112304688 283.015625 c 0,60,61
EndSplineSet
Validated: 524321
EndChar

StartChar: less
Encoding: 60 60 30
Width: 446
VWidth: 1073
Flags: W
LayerCount: 2
Fore
SplineSet
241.373046875 556.5 m 0,0,1
 355.373046875 597.299804688 355.373046875 597.299804688 356.573242188 598.5 c 0,2,3
 358.973632812 598.5 358.973632812 598.5 376.973632812 590.099609375 c 0,4,5
 399.7734375 582.900390625 399.7734375 582.900390625 410.573242188 558.900390625 c 128,-1,6
 421.373046875 534.900390625 421.373046875 534.900390625 428.573242188 474.900390625 c 0,7,8
 436.973632812 408.900390625 436.973632812 408.900390625 429.7734375 385.5 c 128,-1,9
 422.573242188 362.099609375 422.573242188 362.099609375 390.172851562 350.099609375 c 0,10,11
 357.7734375 336.900390625 357.7734375 336.900390625 358.973632812 332.099609375 c 0,12,13
 358.973632812 328.5 358.973632812 328.5 396.172851562 304.5 c 0,14,15
 420.172851562 288.900390625 420.172851562 288.900390625 426.7734375 279.900390625 c 128,-1,16
 433.373046875 270.900390625 433.373046875 270.900390625 435.7734375 251.700195312 c 0,17,18
 438.172851562 224.099609375 438.172851562 224.099609375 422.573242188 192.900390625 c 0,19,20
 408.172851562 165.299804688 408.172851562 165.299804688 397.373046875 131.700195312 c 0,21,22
 376.973632812 64.5 376.973632812 64.5 328.973632812 64.5 c 0,23,24
 304.973632812 64.5 304.973632812 64.5 159.7734375 147.299804688 c 128,-1,25
 14.5732421875 230.099609375 14.5732421875 230.099609375 -1.0263671875 252.900390625 c 0,26,27
 -14.2265625 273.299804688 -14.2265625 273.299804688 -16.626953125 354.900390625 c 0,28,29
 -19.0263671875 413.700195312 -19.0263671875 413.700195312 -16.626953125 428.099609375 c 128,-1,30
 -14.2265625 442.5 -14.2265625 442.5 -1.0263671875 454.5 c 0,31,32
 13.373046875 467.700195312 13.373046875 467.700195312 59.5732421875 486.900390625 c 128,-1,33
 105.7734375 506.099609375 105.7734375 506.099609375 241.373046875 556.5 c 0,0,1
374.573242188 492.900390625 m 0,34,35
 367.373046875 552.900390625 367.373046875 552.900390625 361.373046875 560.099609375 c 0,36,37
 360.172851562 561.299804688 360.172851562 561.299804688 348.7734375 558.299804688 c 128,-1,38
 337.373046875 555.299804688 337.373046875 555.299804688 318.7734375 549.299804688 c 128,-1,39
 300.172851562 543.299804688 300.172851562 543.299804688 277.373046875 535.5 c 128,-1,40
 254.573242188 527.700195312 254.573242188 527.700195312 228.7734375 518.099609375 c 128,-1,41
 202.973632812 508.5 202.973632812 508.5 178.373046875 499.5 c 128,-1,42
 153.7734375 490.5 153.7734375 490.5 130.373046875 481.5 c 128,-1,43
 106.973632812 472.5 106.973632812 472.5 89.5732421875 465.900390625 c 128,-1,44
 72.1728515625 459.299804688 72.1728515625 459.299804688 61.373046875 455.700195312 c 128,-1,45
 50.5732421875 452.099609375 50.5732421875 452.099609375 50.5732421875 452.099609375 c 2,46,47
 36.1728515625 447.299804688 36.1728515625 447.299804688 36.1728515625 383.099609375 c 128,-1,48
 36.1728515625 318.900390625 36.1728515625 318.900390625 50.5732421875 303.299804688 c 0,49,50
 66.1728515625 285.299804688 66.1728515625 285.299804688 198.172851562 210.299804688 c 128,-1,51
 330.172851562 135.299804688 330.172851562 135.299804688 334.973632812 141.299804688 c 0,52,53
 340.973632812 146.099609375 340.973632812 146.099609375 350.573242188 178.5 c 0,54,55
 360.172851562 207.299804688 360.172851562 207.299804688 374.573242188 239.700195312 c 0,56,57
 375.7734375 239.700195312 375.7734375 239.700195312 376.973632812 242.099609375 c 0,58,59
 387.7734375 264.900390625 387.7734375 264.900390625 378.7734375 273.900390625 c 128,-1,60
 369.7734375 282.900390625 369.7734375 282.900390625 306.172851562 315.299804688 c 0,61,62
 300.172851562 317.700195312 300.172851562 317.700195312 297.7734375 318.900390625 c 0,63,64
 224.573242188 354.900390625 224.573242188 354.900390625 224.573242188 362.099609375 c 0,65,66
 224.573242188 365.700195312 224.573242188 365.700195312 261.7734375 380.700195312 c 128,-1,67
 298.973632812 395.700195312 298.973632812 395.700195312 337.373046875 410.099609375 c 128,-1,68
 375.7734375 424.5 375.7734375 424.5 376.973632812 425.700195312 c 0,69,70
 382.973632812 432.900390625 382.973632812 432.900390625 374.573242188 492.900390625 c 0,34,35
EndSplineSet
Validated: 524321
EndChar

StartChar: equal
Encoding: 61 61 31
Width: 417
VWidth: 1073
Flags: W
LayerCount: 2
Fore
SplineSet
146.748046875 520.676757812 m 0,0,1
 279.948242188 527.876953125 279.948242188 527.876953125 325.547851562 524.876953125 c 128,-1,2
 371.1484375 521.876953125 371.1484375 521.876953125 387.948242188 505.076171875 c 0,3,4
 407.1484375 487.076171875 407.1484375 487.076171875 407.748046875 464.876953125 c 128,-1,5
 408.348632812 442.676757812 408.348632812 442.676757812 391.547851562 391.076171875 c 2,6,-1
 375.948242188 338.276367188 l 1,7,-1
 391.547851562 321.4765625 l 2,8,9
 405.948242188 304.676757812 405.948242188 304.676757812 407.1484375 285.4765625 c 128,-1,10
 408.348632812 266.276367188 408.348632812 266.276367188 395.1484375 221.876953125 c 0,11,12
 390.348632812 203.876953125 390.348632812 203.876953125 387.948242188 194.876953125 c 128,-1,13
 385.547851562 185.876953125 385.547851562 185.876953125 378.948242188 175.076171875 c 128,-1,14
 372.348632812 164.276367188 372.348632812 164.276367188 368.748046875 160.076171875 c 128,-1,15
 365.1484375 155.876953125 365.1484375 155.876953125 351.348632812 150.4765625 c 128,-1,16
 337.547851562 145.076171875 337.547851562 145.076171875 328.547851562 143.876953125 c 128,-1,17
 319.547851562 142.676757812 319.547851562 142.676757812 293.748046875 140.876953125 c 128,-1,18
 267.948242188 139.076171875 267.948242188 139.076171875 248.748046875 138.4765625 c 128,-1,19
 229.547851562 137.876953125 229.547851562 137.876953125 187.547851562 137.876953125 c 2,20,-1
 31.5478515625 135.4765625 l 1,21,-1
 8.748046875 158.276367188 l 2,22,23
 -15.251953125 181.076171875 -15.251953125 181.076171875 -15.251953125 196.676757812 c 0,24,25
 -15.251953125 208.676757812 -15.251953125 208.676757812 -3.8515625 246.4765625 c 128,-1,26
 7.5478515625 284.276367188 7.5478515625 284.276367188 15.9482421875 301.076171875 c 0,27,28
 21.9482421875 310.676757812 21.9482421875 310.676757812 19.5478515625 318.4765625 c 128,-1,29
 17.1484375 326.276367188 17.1484375 326.276367188 5.1484375 340.676757812 c 0,30,31
 -15.251953125 365.876953125 -15.251953125 365.876953125 -15.251953125 376.676757812 c 0,32,33
 -15.251953125 397.076171875 -15.251953125 397.076171875 -0.251953125 438.4765625 c 128,-1,34
 14.748046875 479.876953125 14.748046875 479.876953125 27.9482421875 495.4765625 c 0,35,36
 41.1484375 509.876953125 41.1484375 509.876953125 57.3486328125 513.4765625 c 128,-1,37
 73.5478515625 517.076171875 73.5478515625 517.076171875 146.748046875 520.676757812 c 0,0,1
350.748046875 485.876953125 m 0,38,39
 347.1484375 494.276367188 347.1484375 494.276367188 318.348632812 494.876953125 c 128,-1,40
 289.547851562 495.4765625 289.547851562 495.4765625 157.547851562 489.4765625 c 0,41,42
 127.547851562 488.276367188 127.547851562 488.276367188 115.547851562 487.676757812 c 128,-1,43
 103.547851562 487.076171875 103.547851562 487.076171875 87.9482421875 483.4765625 c 128,-1,44
 72.3486328125 479.876953125 72.3486328125 479.876953125 68.748046875 477.4765625 c 128,-1,45
 65.1484375 475.076171875 65.1484375 475.076171875 58.5478515625 466.076171875 c 128,-1,46
 51.9482421875 457.076171875 51.9482421875 457.076171875 50.1484375 449.876953125 c 128,-1,47
 48.3486328125 442.676757812 48.3486328125 442.676757812 43.5478515625 424.676757812 c 0,48,49
 39.9482421875 411.4765625 39.9482421875 411.4765625 43.5478515625 404.876953125 c 128,-1,50
 47.1484375 398.276367188 47.1484375 398.276367188 63.3486328125 394.076171875 c 128,-1,51
 79.5478515625 389.876953125 79.5478515625 389.876953125 112.547851562 391.076171875 c 128,-1,52
 145.547851562 392.276367188 145.547851562 392.276367188 200.748046875 393.4765625 c 2,53,-1
 332.748046875 398.276367188 l 1,54,-1
 343.547851562 436.676757812 l 2,55,56
 354.348632812 475.076171875 354.348632812 475.076171875 350.748046875 485.876953125 c 0,38,39
348.348632812 284.276367188 m 2,57,-1
 349.547851562 311.876953125 l 1,58,-1
 263.1484375 313.076171875 l 2,59,60
 146.748046875 314.276367188 146.748046875 314.276367188 107.748046875 309.4765625 c 128,-1,61
 68.748046875 304.676757812 68.748046875 304.676757812 59.1484375 290.276367188 c 0,62,63
 47.1484375 272.276367188 47.1484375 272.276367188 45.9482421875 245.876953125 c 2,64,-1
 43.5478515625 218.276367188 l 1,65,-1
 187.547851562 215.876953125 l 1,66,-1
 330.348632812 214.676757812 l 1,67,-1
 338.748046875 235.076171875 l 2,68,69
 347.1484375 259.076171875 347.1484375 259.076171875 348.348632812 284.276367188 c 2,57,-1
EndSplineSet
Validated: 524321
EndChar

StartChar: greater
Encoding: 62 62 32
Width: 447
VWidth: 1073
Flags: W
LayerCount: 2
Fore
SplineSet
36.072265625 587.556640625 m 0,0,1
 56.4716796875 598.356445312 56.4716796875 598.356445312 58.8720703125 598.356445312 c 0,2,3
 69.671875 598.356445312 69.671875 598.356445312 330.072265625 498.755859375 c 0,4,5
 361.272460938 486.755859375 361.272460938 486.755859375 375.072265625 480.755859375 c 128,-1,6
 388.872070312 474.755859375 388.872070312 474.755859375 403.872070312 465.15625 c 128,-1,7
 418.872070312 455.556640625 418.872070312 455.556640625 423.072265625 450.15625 c 128,-1,8
 427.272460938 444.755859375 427.272460938 444.755859375 431.471679688 429.755859375 c 128,-1,9
 435.671875 414.755859375 435.671875 414.755859375 436.272460938 402.755859375 c 128,-1,10
 436.872070312 390.755859375 436.872070312 390.755859375 436.872070312 363.755859375 c 128,-1,11
 436.872070312 336.755859375 436.872070312 336.755859375 436.872070312 325.956054688 c 128,-1,12
 436.872070312 315.15625 436.872070312 315.15625 433.272460938 296.556640625 c 128,-1,13
 429.671875 277.956054688 429.671875 277.956054688 428.471679688 273.15625 c 128,-1,14
 427.272460938 268.356445312 427.272460938 268.356445312 414.671875 252.755859375 c 128,-1,15
 402.072265625 237.15625 402.072265625 237.15625 394.872070312 232.356445312 c 128,-1,16
 387.671875 227.556640625 387.671875 227.556640625 363.072265625 210.755859375 c 128,-1,17
 338.471679688 193.956054688 338.471679688 193.956054688 321.671875 184.356445312 c 128,-1,18
 304.872070312 174.755859375 304.872070312 174.755859375 264.072265625 150.755859375 c 0,19,20
 220.872070312 125.556640625 220.872070312 125.556640625 198.072265625 112.356445312 c 128,-1,21
 175.272460938 99.15625 175.272460938 99.15625 148.272460938 86.556640625 c 128,-1,22
 121.272460938 73.9560546875 121.272460938 73.9560546875 109.272460938 69.755859375 c 128,-1,23
 97.2724609375 65.556640625 97.2724609375 65.556640625 81.072265625 66.15625 c 128,-1,24
 64.8720703125 66.755859375 64.8720703125 66.755859375 58.8720703125 71.556640625 c 128,-1,25
 52.8720703125 76.3564453125 52.8720703125 76.3564453125 42.072265625 90.755859375 c 128,-1,26
 31.2724609375 105.15625 31.2724609375 105.15625 25.2724609375 118.956054688 c 128,-1,27
 19.2724609375 132.755859375 19.2724609375 132.755859375 8.4716796875 160.356445312 c 0,28,29
 -13.1279296875 211.956054688 -13.1279296875 211.956054688 -16.7275390625 237.755859375 c 128,-1,30
 -20.328125 263.556640625 -20.328125 263.556640625 -8.927734375 279.15625 c 128,-1,31
 2.4716796875 294.755859375 2.4716796875 294.755859375 34.8720703125 311.556640625 c 0,32,33
 51.671875 319.956054688 51.671875 319.956054688 56.4716796875 325.956054688 c 128,-1,34
 61.2724609375 331.956054688 61.2724609375 331.956054688 55.2724609375 336.755859375 c 128,-1,35
 49.2724609375 341.556640625 49.2724609375 341.556640625 32.4716796875 347.556640625 c 0,36,37
 -1.1279296875 358.356445312 -1.1279296875 358.356445312 -9.5283203125 383.556640625 c 128,-1,38
 -17.927734375 408.755859375 -17.927734375 408.755859375 -10.7275390625 469.956054688 c 0,39,40
 -3.5283203125 529.956054688 -3.5283203125 529.956054688 6.072265625 553.956054688 c 128,-1,41
 15.671875 577.956054688 15.671875 577.956054688 36.072265625 587.556640625 c 0,0,1
294.072265625 479.556640625 m 2,42,43
 62.4716796875 568.356445312 62.4716796875 568.356445312 56.4716796875 558.755859375 c 0,44,45
 50.4716796875 550.356445312 50.4716796875 550.356445312 43.8720703125 489.755859375 c 128,-1,46
 37.2724609375 429.15625 37.2724609375 429.15625 42.072265625 425.556640625 c 0,47,48
 43.2724609375 424.356445312 43.2724609375 424.356445312 81.072265625 409.956054688 c 128,-1,49
 118.872070312 395.556640625 118.872070312 395.556640625 156.072265625 380.556640625 c 128,-1,50
 193.272460938 365.556640625 193.272460938 365.556640625 193.272460938 361.956054688 c 0,51,52
 193.272460938 359.556640625 193.272460938 359.556640625 177.671875 350.556640625 c 128,-1,53
 162.072265625 341.556640625 162.072265625 341.556640625 139.872070312 329.556640625 c 128,-1,54
 117.671875 317.556640625 117.671875 317.556640625 95.4716796875 305.556640625 c 128,-1,55
 73.2724609375 293.556640625 73.2724609375 293.556640625 57.072265625 285.15625 c 128,-1,56
 40.8720703125 276.755859375 40.8720703125 276.755859375 39.671875 275.556640625 c 0,57,58
 30.072265625 268.356445312 30.072265625 268.356445312 56.4716796875 204.755859375 c 0,59,60
 81.671875 142.356445312 81.671875 142.356445312 85.2724609375 138.755859375 c 0,61,62
 86.4716796875 137.556640625 86.4716796875 137.556640625 114.072265625 151.356445312 c 128,-1,63
 141.671875 165.15625 141.671875 165.15625 180.671875 187.356445312 c 128,-1,64
 219.671875 209.556640625 219.671875 209.556640625 259.272460938 232.356445312 c 128,-1,65
 298.872070312 255.15625 298.872070312 255.15625 330.072265625 273.755859375 c 128,-1,66
 361.272460938 292.356445312 361.272460938 292.356445312 368.471679688 298.356445312 c 0,67,68
 376.872070312 305.556640625 376.872070312 305.556640625 379.272460938 321.15625 c 128,-1,69
 381.671875 336.755859375 381.671875 336.755859375 381.671875 377.556640625 c 2,70,-1
 381.671875 444.755859375 l 1,71,-1
 294.072265625 479.556640625 l 2,42,43
EndSplineSet
Validated: 524321
EndChar

StartChar: question
Encoding: 63 63 33
Width: 492
VWidth: 1063
Flags: W
LayerCount: 2
Fore
SplineSet
159.20703125 717.434570312 m 0,0,1
 226.407226562 735.434570312 226.407226562 735.434570312 299.006835938 716.234375 c 128,-1,2
 371.606445312 697.034179688 371.606445312 697.034179688 422.006835938 646.633789062 c 0,3,4
 555.20703125 511.034179688 555.20703125 511.034179688 390.806640625 339.434570312 c 0,5,6
 358.407226562 305.833984375 358.407226562 305.833984375 353.006835938 295.633789062 c 128,-1,7
 347.606445312 285.434570312 347.606445312 285.434570312 354.806640625 273.434570312 c 0,8,9
 363.20703125 254.234375 363.20703125 254.234375 358.407226562 183.434570312 c 0,10,11
 357.20703125 157.034179688 357.20703125 157.034179688 356.006835938 141.434570312 c 128,-1,12
 354.806640625 125.833984375 354.806640625 125.833984375 350.606445312 109.633789062 c 128,-1,13
 346.407226562 93.4345703125 346.407226562 93.4345703125 342.806640625 85.0341796875 c 128,-1,14
 339.20703125 76.6337890625 339.20703125 76.6337890625 330.806640625 68.234375 c 128,-1,15
 322.407226562 59.833984375 322.407226562 59.833984375 314.006835938 56.833984375 c 128,-1,16
 305.606445312 53.833984375 305.606445312 53.833984375 289.407226562 50.833984375 c 128,-1,17
 273.20703125 47.833984375 273.20703125 47.833984375 257.006835938 46.6337890625 c 128,-1,18
 240.806640625 45.4345703125 240.806640625 45.4345703125 214.407226562 45.4345703125 c 0,19,20
 183.20703125 44.234375 183.20703125 44.234375 165.806640625 43.6337890625 c 128,-1,21
 148.407226562 43.0341796875 148.407226562 43.0341796875 137.006835938 45.4345703125 c 128,-1,22
 125.606445312 47.833984375 125.606445312 47.833984375 120.806640625 50.833984375 c 128,-1,23
 116.006835938 53.833984375 116.006835938 53.833984375 108.806640625 61.0341796875 c 0,24,25
 96.806640625 73.0341796875 96.806640625 73.0341796875 93.806640625 88.6337890625 c 128,-1,26
 90.806640625 104.234375 90.806640625 104.234375 92.0068359375 160.633789062 c 0,27,28
 95.6064453125 244.633789062 95.6064453125 244.633789062 102.806640625 262.633789062 c 0,29,30
 110.006835938 283.034179688 110.006835938 283.034179688 98.0068359375 299.833984375 c 0,31,32
 59.6064453125 355.034179688 59.6064453125 355.034179688 148.407226562 417.434570312 c 0,33,34
 179.606445312 439.034179688 179.606445312 439.034179688 147.20703125 436.633789062 c 2,35,-1
 102.806640625 428.234375 l 2,36,37
 56.0068359375 417.434570312 56.0068359375 417.434570312 33.806640625 421.633789062 c 128,-1,38
 11.6064453125 425.833984375 11.6064453125 425.833984375 -2.79296875 449.833984375 c 0,39,40
 -27.9931640625 488.234375 -27.9931640625 488.234375 -19.5927734375 542.234375 c 128,-1,41
 -11.193359375 596.234375 -11.193359375 596.234375 26.0068359375 639.434570312 c 0,42,43
 52.4072265625 669.434570312 52.4072265625 669.434570312 82.4072265625 686.833984375 c 128,-1,44
 112.407226562 704.234375 112.407226562 704.234375 159.20703125 717.434570312 c 0,0,1
336.806640625 668.234375 m 0,45,46
 297.20703125 688.633789062 297.20703125 688.633789062 253.407226562 693.434570312 c 128,-1,47
 209.606445312 698.234375 209.606445312 698.234375 171.20703125 688.633789062 c 128,-1,48
 132.806640625 679.034179688 132.806640625 679.034179688 101.006835938 659.833984375 c 128,-1,49
 69.20703125 640.633789062 69.20703125 640.633789062 50.6064453125 609.434570312 c 128,-1,50
 32.0068359375 578.234375 32.0068359375 578.234375 32.0068359375 542.234375 c 0,51,52
 32.0068359375 508.633789062 32.0068359375 508.633789062 45.806640625 502.633789062 c 128,-1,53
 59.6064453125 496.633789062 59.6064453125 496.633789062 112.407226562 507.434570312 c 0,54,55
 158.006835938 517.034179688 158.006835938 517.034179688 165.806640625 521.833984375 c 128,-1,56
 173.606445312 526.633789062 173.606445312 526.633789062 173.606445312 545.833984375 c 0,57,58
 173.606445312 592.633789062 173.606445312 592.633789062 230.006835938 586.633789062 c 0,59,60
 255.20703125 584.234375 255.20703125 584.234375 266.006835938 563.833984375 c 0,61,62
 296.006835938 511.034179688 296.006835938 511.034179688 196.407226562 413.833984375 c 0,63,64
 142.407226562 362.234375 142.407226562 362.234375 152.006835938 355.034179688 c 0,65,66
 160.407226562 347.833984375 160.407226562 347.833984375 207.20703125 329.833984375 c 0,67,68
 246.806640625 313.034179688 246.806640625 313.034179688 264.806640625 320.833984375 c 128,-1,69
 282.806640625 328.633789062 282.806640625 328.633789062 341.606445312 387.434570312 c 0,70,71
 388.407226562 433.034179688 388.407226562 433.034179688 411.806640625 477.434570312 c 128,-1,72
 435.20703125 521.833984375 435.20703125 521.833984375 429.20703125 554.234375 c 0,73,74
 423.20703125 589.034179688 423.20703125 589.034179688 398.606445312 619.633789062 c 128,-1,75
 374.006835938 650.234375 374.006835938 650.234375 336.806640625 668.234375 c 0,45,46
300.806640625 203.833984375 m 2,76,-1
 302.006835938 269.833984375 l 1,77,-1
 230.006835938 272.234375 l 2,78,79
 156.806640625 274.633789062 156.806640625 274.633789062 153.20703125 265.034179688 c 0,80,81
 149.606445312 249.434570312 149.606445312 249.434570312 148.407226562 188.234375 c 2,82,-1
 146.006835938 121.034179688 l 1,83,-1
 216.806640625 124.633789062 l 2,84,85
 286.407226562 125.833984375 286.407226562 125.833984375 293.606445312 133.034179688 c 0,86,87
 299.606445312 137.833984375 299.606445312 137.833984375 300.806640625 203.833984375 c 2,76,-1
EndSplineSet
Validated: 524321
EndChar

StartChar: at
Encoding: 64 64 34
Width: 712
VWidth: 1066
Flags: W
LayerCount: 2
Fore
SplineSet
274.779296875 725.47265625 m 0,0,1
 327.579101562 742.272460938 327.579101562 742.272460938 398.978515625 738.672851562 c 128,-1,2
 470.37890625 735.072265625 470.37890625 735.072265625 515.978515625 714.672851562 c 0,3,4
 638.37890625 658.272460938 638.37890625 658.272460938 682.779296875 528.672851562 c 0,5,6
 717.579101562 425.47265625 717.579101562 425.47265625 689.978515625 321.672851562 c 128,-1,7
 662.37890625 217.873046875 662.37890625 217.873046875 586.779296875 168.672851562 c 0,8,9
 560.37890625 150.672851562 560.37890625 150.672851562 524.37890625 141.672851562 c 128,-1,10
 488.37890625 132.672851562 488.37890625 132.672851562 466.779296875 138.672851562 c 0,11,12
 452.37890625 142.272460938 452.37890625 142.272460938 446.978515625 133.873046875 c 128,-1,13
 441.579101562 125.47265625 441.579101562 125.47265625 430.779296875 83.47265625 c 0,14,15
 413.978515625 23.47265625 413.978515625 23.47265625 383.37890625 7.2724609375 c 128,-1,16
 352.779296875 -8.927734375 352.779296875 -8.927734375 272.37890625 3.072265625 c 0,17,18
 21.5791015625 36.6728515625 21.5791015625 36.6728515625 -31.220703125 225.072265625 c 0,19,20
 -44.4208984375 269.47265625 -44.4208984375 269.47265625 -41.4208984375 332.47265625 c 128,-1,21
 -38.4208984375 395.47265625 -38.4208984375 395.47265625 -21.62109375 449.47265625 c 0,22,23
 10.779296875 547.873046875 10.779296875 547.873046875 87.5791015625 619.873046875 c 128,-1,24
 164.37890625 691.873046875 164.37890625 691.873046875 274.779296875 725.47265625 c 0,0,1
503.978515625 684.672851562 m 0,25,26
 471.579101562 701.47265625 471.579101562 701.47265625 452.978515625 705.072265625 c 128,-1,27
 434.37890625 708.672851562 434.37890625 708.672851562 388.779296875 707.47265625 c 0,28,29
 322.779296875 707.47265625 322.779296875 707.47265625 285.579101562 697.873046875 c 0,30,31
 190.779296875 671.47265625 190.779296875 671.47265625 119.37890625 600.672851562 c 128,-1,32
 47.978515625 529.873046875 47.978515625 529.873046875 22.779296875 437.47265625 c 0,33,34
 11.978515625 391.873046875 11.978515625 391.873046875 11.978515625 334.873046875 c 128,-1,35
 11.978515625 277.873046875 11.978515625 277.873046875 25.1787109375 240.672851562 c 0,36,37
 38.37890625 201.072265625 38.37890625 201.072265625 78.5791015625 162.072265625 c 128,-1,38
 118.779296875 123.072265625 118.779296875 123.072265625 164.37890625 105.072265625 c 0,39,40
 201.579101562 91.873046875 201.579101562 91.873046875 272.37890625 81.072265625 c 128,-1,41
 343.178710938 70.2724609375 343.178710938 70.2724609375 358.779296875 76.2724609375 c 0,42,43
 370.779296875 79.873046875 370.779296875 79.873046875 380.37890625 125.47265625 c 0,44,45
 387.579101562 155.47265625 387.579101562 155.47265625 386.978515625 164.47265625 c 128,-1,46
 386.37890625 173.47265625 386.37890625 173.47265625 376.779296875 179.47265625 c 0,47,48
 362.37890625 191.47265625 362.37890625 191.47265625 328.779296875 191.47265625 c 0,49,50
 273.579101562 191.47265625 273.579101562 191.47265625 224.37890625 216.072265625 c 128,-1,51
 175.178710938 240.672851562 175.178710938 240.672851562 154.779296875 280.272460938 c 0,52,53
 139.178710938 310.272460938 139.178710938 310.272460938 140.978515625 364.272460938 c 128,-1,54
 142.779296875 418.272460938 142.779296875 418.272460938 160.779296875 457.873046875 c 0,55,56
 194.37890625 528.672851562 194.37890625 528.672851562 242.37890625 561.072265625 c 128,-1,57
 290.37890625 593.47265625 290.37890625 593.47265625 361.178710938 593.47265625 c 0,58,59
 417.579101562 593.47265625 417.579101562 593.47265625 459.579101562 572.47265625 c 128,-1,60
 501.579101562 551.47265625 501.579101562 551.47265625 523.178710938 511.873046875 c 128,-1,61
 544.779296875 472.272460938 544.779296875 472.272460938 544.779296875 419.47265625 c 0,62,63
 544.779296875 370.272460938 544.779296875 370.272460938 528.579101562 331.873046875 c 128,-1,64
 512.37890625 293.47265625 512.37890625 293.47265625 491.978515625 293.47265625 c 0,65,66
 460.779296875 293.47265625 460.779296875 293.47265625 478.779296875 411.072265625 c 0,67,68
 489.579101562 491.47265625 489.579101562 491.47265625 489.579101562 513.072265625 c 2,69,-1
 489.579101562 538.272460938 l 1,70,-1
 434.37890625 534.672851562 l 2,71,72
 376.779296875 529.873046875 376.779296875 529.873046875 356.37890625 538.272460938 c 0,73,74
 331.178710938 547.873046875 331.178710938 547.873046875 296.978515625 535.272460938 c 128,-1,75
 262.779296875 522.672851562 262.779296875 522.672851562 233.978515625 493.873046875 c 0,76,77
 200.37890625 460.272460938 200.37890625 460.272460938 189.579101562 415.272460938 c 128,-1,78
 178.779296875 370.272460938 178.779296875 370.272460938 188.37890625 331.272460938 c 128,-1,79
 197.978515625 292.272460938 197.978515625 292.272460938 227.978515625 265.272460938 c 128,-1,80
 257.978515625 238.272460938 257.978515625 238.272460938 298.779296875 238.272460938 c 0,81,82
 329.978515625 238.272460938 329.978515625 238.272460938 351.579101562 253.873046875 c 0,83,84
 369.579101562 268.272460938 369.579101562 268.272460938 377.978515625 268.272460938 c 128,-1,85
 386.37890625 268.272460938 386.37890625 268.272460938 400.779296875 252.672851562 c 0,86,87
 437.978515625 211.873046875 437.978515625 211.873046875 491.37890625 213.672851562 c 128,-1,88
 544.779296875 215.47265625 544.779296875 215.47265625 585.579101562 258.672851562 c 0,89,90
 609.579101562 283.873046875 609.579101562 283.873046875 620.978515625 306.672851562 c 128,-1,91
 632.37890625 329.47265625 632.37890625 329.47265625 637.779296875 359.47265625 c 128,-1,92
 643.178710938 389.47265625 643.178710938 389.47265625 643.178710938 437.47265625 c 0,93,94
 643.178710938 480.672851562 643.178710938 480.672851562 641.37890625 499.272460938 c 128,-1,95
 639.579101562 517.873046875 639.579101562 517.873046875 635.978515625 531.672851562 c 128,-1,96
 632.37890625 545.47265625 632.37890625 545.47265625 620.37890625 564.672851562 c 0,97,98
 597.579101562 610.272460938 597.579101562 610.272460938 571.178710938 637.272460938 c 128,-1,99
 544.779296875 664.272460938 544.779296875 664.272460938 503.978515625 684.672851562 c 0,25,26
323.978515625 450.672851562 m 0,100,101
 340.779296875 463.873046875 340.779296875 463.873046875 347.37890625 464.47265625 c 128,-1,102
 353.978515625 465.072265625 353.978515625 465.072265625 367.178710938 455.47265625 c 0,103,104
 376.779296875 448.272460938 376.779296875 448.272460938 377.978515625 438.072265625 c 128,-1,105
 379.178710938 427.873046875 379.178710938 427.873046875 374.37890625 391.873046875 c 0,106,107
 367.178710938 348.672851562 367.178710938 348.672851562 358.178710938 332.47265625 c 128,-1,108
 349.178710938 316.272460938 349.178710938 316.272460938 333.579101562 316.272460938 c 0,109,110
 314.37890625 316.272460938 314.37890625 316.272460938 307.178710938 333.072265625 c 128,-1,111
 299.978515625 349.873046875 299.978515625 349.873046875 303.579101562 388.272460938 c 0,112,113
 305.978515625 417.072265625 305.978515625 417.072265625 310.178710938 429.672851562 c 128,-1,114
 314.37890625 442.272460938 314.37890625 442.272460938 323.978515625 450.672851562 c 0,100,101
EndSplineSet
Validated: 524321
EndChar

StartChar: A
Encoding: 65 65 35
Width: 609
VWidth: 1062
Flags: W
LayerCount: 2
Fore
SplineSet
265.021484375 721.872070312 m 0,0,1
 333.420898438 744.671875 333.420898438 744.671875 375.420898438 729.072265625 c 0,2,3
 394.62109375 720.671875 394.62109375 720.671875 416.821289062 672.671875 c 128,-1,4
 439.021484375 624.671875 439.021484375 624.671875 477.420898438 509.471679688 c 0,5,6
 580.62109375 187.872070312 580.62109375 187.872070312 592.62109375 175.872070312 c 0,7,8
 601.021484375 166.271484375 601.021484375 166.271484375 598.021484375 141.072265625 c 128,-1,9
 595.021484375 115.872070312 595.021484375 115.872070312 584.221679688 106.271484375 c 0,10,11
 572.221679688 95.4716796875 572.221679688 95.4716796875 491.821289062 66.671875 c 128,-1,12
 411.420898438 37.8720703125 411.420898438 37.8720703125 393.420898438 37.8720703125 c 0,13,14
 376.62109375 37.8720703125 376.62109375 37.8720703125 355.62109375 59.4716796875 c 128,-1,15
 334.62109375 81.072265625 334.62109375 81.072265625 325.021484375 109.872070312 c 2,16,-1
 311.821289062 144.671875 l 1,17,-1
 226.62109375 144.671875 l 1,18,-1
 202.62109375 97.8720703125 l 2,19,20
 179.821289062 52.271484375 179.821289062 52.271484375 158.221679688 43.8720703125 c 128,-1,21
 136.62109375 35.4716796875 136.62109375 35.4716796875 87.4208984375 53.4716796875 c 0,22,23
 39.4208984375 72.671875 39.4208984375 72.671875 10.62109375 94.271484375 c 0,24,25
 -15.7783203125 113.471679688 -15.7783203125 113.471679688 -20.5791015625 132.072265625 c 128,-1,26
 -25.37890625 150.671875 -25.37890625 150.671875 -12.1787109375 185.471679688 c 0,27,28
 -7.37890625 201.072265625 -7.37890625 201.072265625 -9.1787109375 214.271484375 c 128,-1,29
 -10.978515625 227.471679688 -10.978515625 227.471679688 -20.5791015625 255.072265625 c 0,30,31
 -60.1787109375 359.471679688 -60.1787109375 359.471679688 26.2216796875 372.671875 c 0,32,33
 57.4208984375 378.671875 57.4208984375 378.671875 64.62109375 387.072265625 c 256,34,35
 71.8212890625 395.471679688 71.8212890625 395.471679688 118.62109375 517.872070312 c 0,36,37
 119.821289062 521.471679688 119.821289062 521.471679688 122.221679688 527.471679688 c 0,38,39
 142.62109375 579.072265625 142.62109375 579.072265625 149.821289062 599.471679688 c 128,-1,40
 157.021484375 619.872070312 157.021484375 619.872070312 170.221679688 646.271484375 c 128,-1,41
 183.420898438 672.671875 183.420898438 672.671875 187.62109375 678.671875 c 128,-1,42
 191.821289062 684.671875 191.821289062 684.671875 206.221679688 696.072265625 c 128,-1,43
 220.62109375 707.471679688 220.62109375 707.471679688 229.62109375 710.471679688 c 128,-1,44
 238.62109375 713.471679688 238.62109375 713.471679688 261.420898438 720.671875 c 0,45,46
 263.821289062 721.872070312 263.821289062 721.872070312 265.021484375 721.872070312 c 0,0,1
367.021484375 682.271484375 m 0,47,48
 359.821289062 695.471679688 359.821289062 695.471679688 352.021484375 700.271484375 c 128,-1,49
 344.221679688 705.072265625 344.221679688 705.072265625 329.821289062 703.872070312 c 0,50,51
 298.62109375 702.671875 298.62109375 702.671875 269.221679688 691.271484375 c 128,-1,52
 239.821289062 679.872070312 239.821289062 679.872070312 227.821289062 665.471679688 c 0,53,54
 214.62109375 647.471679688 214.62109375 647.471679688 171.420898438 532.271484375 c 0,55,56
 134.221679688 430.271484375 134.221679688 430.271484375 112.62109375 382.271484375 c 0,57,58
 100.62109375 354.671875 100.62109375 354.671875 94.021484375 349.271484375 c 128,-1,59
 87.4208984375 343.872070312 87.4208984375 343.872070312 61.021484375 343.872070312 c 0,60,61
 26.2216796875 343.872070312 26.2216796875 343.872070312 21.4208984375 331.872070312 c 128,-1,62
 16.62109375 319.872070312 16.62109375 319.872070312 35.8212890625 280.271484375 c 0,63,64
 50.2216796875 250.271484375 50.2216796875 250.271484375 51.4208984375 240.671875 c 128,-1,65
 52.62109375 231.072265625 52.62109375 231.072265625 44.2216796875 209.471679688 c 0,66,67
 32.2216796875 178.271484375 32.2216796875 178.271484375 35.8212890625 168.671875 c 0,68,69
 38.2216796875 161.471679688 38.2216796875 161.471679688 61.62109375 148.872070312 c 128,-1,70
 85.021484375 136.271484375 85.021484375 136.271484375 109.021484375 126.671875 c 128,-1,71
 133.021484375 117.072265625 133.021484375 117.072265625 139.021484375 119.471679688 c 0,72,73
 149.821289062 124.271484375 149.821289062 124.271484375 169.021484375 173.471679688 c 2,74,-1
 189.420898438 222.671875 l 1,75,-1
 350.221679688 222.671875 l 1,76,-1
 367.021484375 172.271484375 l 2,77,78
 383.821289062 120.671875 383.821289062 120.671875 395.821289062 118.271484375 c 0,79,80
 410.221679688 115.872070312 410.221679688 115.872070312 475.021484375 139.872070312 c 128,-1,81
 539.821289062 163.872070312 539.821289062 163.872070312 538.62109375 172.271484375 c 0,82,83
 537.420898438 186.671875 537.420898438 186.671875 457.021484375 425.471679688 c 128,-1,84
 376.62109375 664.271484375 376.62109375 664.271484375 367.021484375 682.271484375 c 0,47,48
237.420898438 346.271484375 m 0,85,86
 237.420898438 353.471679688 237.420898438 353.471679688 257.821289062 415.271484375 c 128,-1,87
 278.221679688 477.072265625 278.221679688 477.072265625 283.021484375 477.072265625 c 0,88,89
 289.021484375 477.072265625 289.021484375 477.072265625 302.821289062 414.072265625 c 128,-1,90
 316.62109375 351.072265625 316.62109375 351.072265625 311.821289062 343.872070312 c 0,91,92
 307.021484375 335.471679688 307.021484375 335.471679688 272.221679688 336.072265625 c 128,-1,93
 237.420898438 336.671875 237.420898438 336.671875 237.420898438 346.271484375 c 0,85,86
EndSplineSet
Validated: 524321
EndChar

StartChar: B
Encoding: 66 66 36
Width: 588
VWidth: 1062
Flags: W
LayerCount: 2
Fore
SplineSet
187.600585938 720.506835938 m 0,0,1
 246.401367188 736.107421875 246.401367188 736.107421875 310.600585938 736.107421875 c 128,-1,2
 374.80078125 736.107421875 374.80078125 736.107421875 425.201171875 719.307617188 c 0,3,4
 475.600585938 704.907226562 475.600585938 704.907226562 514.000976562 669.506835938 c 128,-1,5
 552.401367188 634.107421875 552.401367188 634.107421875 563.201171875 594.506835938 c 0,6,7
 572.80078125 558.506835938 572.80078125 558.506835938 568.000976562 520.107421875 c 128,-1,8
 563.201171875 481.70703125 563.201171875 481.70703125 547.600585938 461.307617188 c 2,9,-1
 529.600585938 437.307617188 l 1,10,-1
 550.000976562 407.307617188 l 2,11,12
 574.000976562 373.70703125 574.000976562 373.70703125 577.600585938 332.907226562 c 128,-1,13
 581.201171875 292.107421875 581.201171875 292.107421875 565.600585938 251.307617188 c 128,-1,14
 550.000976562 210.506835938 550.000976562 210.506835938 520.600585938 172.70703125 c 128,-1,15
 491.201171875 134.907226562 491.201171875 134.907226562 446.80078125 104.907226562 c 128,-1,16
 402.401367188 74.9072265625 402.401367188 74.9072265625 350.80078125 58.107421875 c 0,17,18
 293.201171875 40.107421875 293.201171875 40.107421875 242.80078125 38.9072265625 c 128,-1,19
 192.401367188 37.70703125 192.401367188 37.70703125 115.600585938 53.3076171875 c 0,20,21
 46.0009765625 67.70703125 46.0009765625 67.70703125 26.201171875 85.70703125 c 128,-1,22
 6.4013671875 103.70703125 6.4013671875 103.70703125 6.4013671875 150.506835938 c 0,23,24
 6.4013671875 180.506835938 6.4013671875 180.506835938 13.0009765625 269.907226562 c 128,-1,25
 19.6005859375 359.307617188 19.6005859375 359.307617188 25.6005859375 400.107421875 c 0,26,27
 28.0009765625 419.307617188 28.0009765625 419.307617188 25.0009765625 426.506835938 c 128,-1,28
 22.0009765625 433.70703125 22.0009765625 433.70703125 6.4013671875 440.907226562 c 0,29,30
 -15.19921875 452.907226562 -15.19921875 452.907226562 -25.9990234375 476.907226562 c 0,31,32
 -31.9990234375 493.70703125 -31.9990234375 493.70703125 -29.5986328125 508.70703125 c 128,-1,33
 -27.19921875 523.70703125 -27.19921875 523.70703125 -9.19921875 570.506835938 c 0,34,35
 16.0009765625 637.70703125 16.0009765625 637.70703125 26.80078125 650.907226562 c 0,36,37
 38.80078125 664.107421875 38.80078125 664.107421875 87.4013671875 685.70703125 c 128,-1,38
 136.000976562 707.307617188 136.000976562 707.307617188 187.600585938 720.506835938 c 0,0,1
433.600585938 683.307617188 m 0,39,40
 398.80078125 701.307617188 398.80078125 701.307617188 322.600585938 703.107421875 c 128,-1,41
 246.401367188 704.907226562 246.401367188 704.907226562 188.80078125 690.506835938 c 0,42,43
 119.201171875 671.307617188 119.201171875 671.307617188 92.201171875 653.307617188 c 128,-1,44
 65.201171875 635.307617188 65.201171875 635.307617188 47.201171875 596.907226562 c 0,45,46
 26.80078125 551.307617188 26.80078125 551.307617188 26.80078125 532.107421875 c 0,47,48
 25.6005859375 518.907226562 25.6005859375 518.907226562 30.4013671875 515.907226562 c 128,-1,49
 35.201171875 512.907226562 35.201171875 512.907226562 55.6005859375 515.307617188 c 2,50,-1
 86.80078125 517.70703125 l 1,51,-1
 82.0009765625 460.107421875 l 2,52,53
 55.6005859375 157.70703125 55.6005859375 157.70703125 65.201171875 148.107421875 c 0,54,55
 74.80078125 139.70703125 74.80078125 139.70703125 137.80078125 128.307617188 c 128,-1,56
 200.80078125 116.907226562 200.80078125 116.907226562 240.401367188 116.907226562 c 0,57,58
 316.000976562 116.907226562 316.000976562 116.907226562 384.401367188 151.70703125 c 128,-1,59
 452.80078125 186.506835938 452.80078125 186.506835938 490.600585938 242.307617188 c 128,-1,60
 528.401367188 298.107421875 528.401367188 298.107421875 521.201171875 356.907226562 c 0,61,62
 518.80078125 380.907226562 518.80078125 380.907226562 512.201171875 393.506835938 c 128,-1,63
 505.600585938 406.107421875 505.600585938 406.107421875 484.000976562 425.307617188 c 2,64,-1
 450.401367188 454.107421875 l 1,65,-1
 479.201171875 484.107421875 l 2,66,67
 506.80078125 512.907226562 506.80078125 512.907226562 515.201171875 535.70703125 c 128,-1,68
 523.600585938 558.506835938 523.600585938 558.506835938 516.401367188 588.506835938 c 0,69,70
 503.201171875 647.307617188 503.201171875 647.307617188 433.600585938 683.307617188 c 0,39,40
277.600585938 572.907226562 m 0,71,72
 371.201171875 593.307617188 371.201171875 593.307617188 365.201171875 517.70703125 c 0,73,74
 364.000976562 500.907226562 364.000976562 500.907226562 357.401367188 491.307617188 c 128,-1,75
 350.80078125 481.70703125 350.80078125 481.70703125 329.201171875 467.307617188 c 0,76,77
 298.000976562 446.907226562 298.000976562 446.907226562 277.600585938 418.107421875 c 128,-1,78
 257.201171875 389.307617188 257.201171875 389.307617188 265.600585938 378.506835938 c 0,79,80
 272.80078125 370.107421875 272.80078125 370.107421875 302.80078125 364.107421875 c 0,81,82
 329.201171875 360.506835938 329.201171875 360.506835938 352.000976562 344.307617188 c 128,-1,83
 374.80078125 328.107421875 374.80078125 328.107421875 374.80078125 312.506835938 c 0,84,85
 374.80078125 295.70703125 374.80078125 295.70703125 353.201171875 272.907226562 c 128,-1,86
 331.600585938 250.107421875 331.600585938 250.107421875 310.000976562 242.907226562 c 256,87,88
 288.401367188 235.70703125 288.401367188 235.70703125 253.600585938 232.107421875 c 2,89,-1
 221.201171875 230.907226562 l 1,90,-1
 223.600585938 289.70703125 l 2,91,92
 226.000976562 352.107421875 226.000976562 352.107421875 234.401367188 438.506835938 c 128,-1,93
 242.80078125 524.907226562 242.80078125 524.907226562 248.80078125 545.307617188 c 0,94,95
 253.600585938 568.107421875 253.600585938 568.107421875 277.600585938 572.907226562 c 0,71,72
304.000976562 282.506835938 m 128,-1,97
 304.000976562 289.70703125 304.000976562 289.70703125 296.80078125 289.70703125 c 128,-1,98
 289.600585938 289.70703125 289.600585938 289.70703125 284.201171875 280.70703125 c 128,-1,99
 278.80078125 271.70703125 278.80078125 271.70703125 283.000976562 267.506835938 c 128,-1,100
 287.201171875 263.307617188 287.201171875 263.307617188 295.600585938 269.307617188 c 128,-1,96
 304.000976562 275.307617188 304.000976562 275.307617188 304.000976562 282.506835938 c 128,-1,97
EndSplineSet
Validated: 524321
EndChar

StartChar: C
Encoding: 67 67 37
Width: 548
VWidth: 1062
Flags: W
LayerCount: 2
Fore
SplineSet
210.51171875 717.079101562 m 0,0,1
 283.711914062 742.279296875 283.711914062 742.279296875 368.912109375 732.6796875 c 128,-1,2
 454.112304688 723.079101562 454.112304688 723.079101562 502.112304688 683.479492188 c 0,3,4
 520.112304688 667.87890625 520.112304688 667.87890625 524.912109375 654.079101562 c 128,-1,5
 529.711914062 640.279296875 529.711914062 640.279296875 534.51171875 588.6796875 c 0,6,7
 541.711914062 519.079101562 541.711914062 519.079101562 533.912109375 489.6796875 c 128,-1,8
 526.112304688 460.279296875 526.112304688 460.279296875 497.311523438 448.279296875 c 0,9,10
 476.912109375 439.87890625 476.912109375 439.87890625 465.51171875 442.279296875 c 128,-1,11
 454.112304688 444.6796875 454.112304688 444.6796875 413.311523438 465.079101562 c 0,12,13
 353.311523438 495.079101562 353.311523438 495.079101562 320.912109375 492.079101562 c 128,-1,14
 288.51171875 489.079101562 288.51171875 489.079101562 270.51171875 453.079101562 c 0,15,16
 254.912109375 423.079101562 254.912109375 423.079101562 255.51171875 375.6796875 c 128,-1,17
 256.112304688 328.279296875 256.112304688 328.279296875 272.912109375 306.6796875 c 0,18,19
 280.112304688 297.079101562 280.112304688 297.079101562 286.112304688 292.87890625 c 128,-1,20
 292.112304688 288.6796875 292.112304688 288.6796875 301.711914062 287.479492188 c 128,-1,21
 311.311523438 286.279296875 311.311523438 286.279296875 331.711914062 286.279296875 c 0,22,23
 377.311523438 287.479492188 377.311523438 287.479492188 410.912109375 300.6796875 c 0,24,25
 436.112304688 310.279296875 436.112304688 310.279296875 444.51171875 310.279296875 c 128,-1,26
 452.912109375 310.279296875 452.912109375 310.279296875 466.112304688 301.87890625 c 256,27,28
 479.311523438 293.479492188 479.311523438 293.479492188 485.912109375 285.6796875 c 128,-1,29
 492.51171875 277.87890625 492.51171875 277.87890625 496.711914062 264.079101562 c 128,-1,30
 500.912109375 250.279296875 500.912109375 250.279296875 500.912109375 231.079101562 c 128,-1,31
 500.912109375 211.87890625 500.912109375 211.87890625 500.912109375 181.87890625 c 0,32,33
 498.51171875 130.279296875 498.51171875 130.279296875 494.912109375 116.479492188 c 128,-1,34
 491.311523438 102.6796875 491.311523438 102.6796875 476.912109375 88.279296875 c 0,35,36
 452.912109375 69.0791015625 452.912109375 69.0791015625 398.912109375 53.4794921875 c 128,-1,37
 344.912109375 37.87890625 344.912109375 37.87890625 296.912109375 37.87890625 c 0,38,39
 154.112304688 37.87890625 154.112304688 37.87890625 63.51171875 132.6796875 c 128,-1,40
 -27.087890625 227.479492188 -27.087890625 227.479492188 -27.087890625 375.079101562 c 0,41,42
 -27.087890625 493.87890625 -27.087890625 493.87890625 37.7119140625 586.87890625 c 128,-1,43
 102.51171875 679.87890625 102.51171875 679.87890625 210.51171875 717.079101562 c 0,0,1
413.311523438 693.079101562 m 0,44,45
 329.311523438 718.279296875 329.311523438 718.279296875 246.51171875 695.479492188 c 128,-1,46
 163.711914062 672.6796875 163.711914062 672.6796875 103.711914062 607.87890625 c 0,47,48
 62.912109375 563.479492188 62.912109375 563.479492188 42.51171875 507.079101562 c 128,-1,49
 22.1123046875 450.6796875 22.1123046875 450.6796875 23.912109375 394.279296875 c 128,-1,50
 25.7119140625 337.87890625 25.7119140625 337.87890625 44.912109375 285.6796875 c 128,-1,51
 64.1123046875 233.479492188 64.1123046875 233.479492188 103.112304688 192.6796875 c 128,-1,52
 142.112304688 151.87890625 142.112304688 151.87890625 196.112304688 131.479492188 c 0,53,54
 238.112304688 115.87890625 238.112304688 115.87890625 307.112304688 117.079101562 c 128,-1,55
 376.112304688 118.279296875 376.112304688 118.279296875 412.112304688 136.279296875 c 2,56,-1
 443.311523438 151.87890625 l 1,57,-1
 445.711914062 205.87890625 l 2,58,59
 448.112304688 261.079101562 448.112304688 261.079101562 443.311523438 270.6796875 c 128,-1,60
 438.51171875 280.279296875 438.51171875 280.279296875 412.112304688 269.479492188 c 0,61,62
 377.311523438 255.079101562 377.311523438 255.079101562 334.112304688 253.279296875 c 128,-1,63
 290.912109375 251.479492188 290.912109375 251.479492188 266.912109375 263.479492188 c 0,64,65
 204.51171875 295.87890625 204.51171875 295.87890625 204.51171875 400.279296875 c 0,66,67
 204.51171875 466.279296875 204.51171875 466.279296875 229.711914062 509.479492188 c 128,-1,68
 254.912109375 552.6796875 254.912109375 552.6796875 301.711914062 564.6796875 c 0,69,70
 356.912109375 580.279296875 356.912109375 580.279296875 428.912109375 539.479492188 c 0,71,72
 470.912109375 515.479492188 470.912109375 515.479492188 479.311523438 521.479492188 c 0,73,74
 490.112304688 527.479492188 490.112304688 527.479492188 483.51171875 591.079101562 c 128,-1,75
 476.912109375 654.6796875 476.912109375 654.6796875 464.912109375 667.87890625 c 0,76,77
 451.711914062 682.279296875 451.711914062 682.279296875 413.311523438 693.079101562 c 0,44,45
EndSplineSet
Validated: 524321
EndChar

StartChar: D
Encoding: 68 68 38
Width: 634
VWidth: 1062
Flags: W
LayerCount: 2
Fore
SplineSet
143.877929688 723.884765625 m 0,0,1
 203.877929688 741.884765625 203.877929688 741.884765625 303.478515625 733.484375 c 128,-1,2
 403.078125 725.083984375 403.078125 725.083984375 459.478515625 696.284179688 c 0,3,4
 487.078125 683.083984375 487.078125 683.083984375 527.877929688 645.884765625 c 128,-1,5
 568.677734375 608.684570312 568.677734375 608.684570312 584.278320312 583.484375 c 0,6,7
 640.677734375 493.484375 640.677734375 493.484375 617.278320312 371.083984375 c 128,-1,8
 593.877929688 248.684570312 593.877929688 248.684570312 505.078125 168.284179688 c 0,9,10
 425.877929688 96.2841796875 425.877929688 96.2841796875 292.677734375 60.2841796875 c 0,11,12
 226.677734375 42.2841796875 226.677734375 42.2841796875 121.677734375 41.083984375 c 128,-1,13
 16.677734375 39.884765625 16.677734375 39.884765625 -2.521484375 55.484375 c 0,14,15
 -22.921875 74.6845703125 -22.921875 74.6845703125 -22.322265625 98.6845703125 c 128,-1,16
 -21.7216796875 122.684570312 -21.7216796875 122.684570312 -0.1220703125 167.083984375 c 0,17,18
 17.8779296875 206.684570312 17.8779296875 206.684570312 23.2783203125 233.684570312 c 128,-1,19
 28.677734375 260.684570312 28.677734375 260.684570312 34.677734375 345.884765625 c 0,20,21
 43.078125 470.684570312 43.078125 470.684570312 39.478515625 476.684570312 c 256,22,23
 35.8779296875 482.684570312 35.8779296875 482.684570312 11.8779296875 488.684570312 c 0,24,25
 -20.521484375 495.884765625 -20.521484375 495.884765625 -31.322265625 530.684570312 c 128,-1,26
 -42.1220703125 565.484375 -42.1220703125 565.484375 -20.521484375 591.884765625 c 0,27,28
 8.2783203125 627.884765625 8.2783203125 627.884765625 63.478515625 671.684570312 c 128,-1,29
 118.677734375 715.484375 118.677734375 715.484375 143.877929688 723.884765625 c 0,0,1
387.478515625 690.284179688 m 0,30,31
 349.078125 702.284179688 349.078125 702.284179688 265.078125 704.684570312 c 128,-1,32
 181.078125 707.083984375 181.078125 707.083984375 154.677734375 696.284179688 c 0,33,34
 135.478515625 687.884765625 135.478515625 687.884765625 77.8779296875 635.684570312 c 128,-1,35
 20.2783203125 583.484375 20.2783203125 583.484375 22.677734375 576.284179688 c 0,36,37
 25.078125 567.884765625 25.078125 567.884765625 63.478515625 567.884765625 c 2,38,-1
 101.877929688 567.884765625 l 1,39,-1
 99.478515625 519.884765625 l 2,40,41
 98.2783203125 497.083984375 98.2783203125 497.083984375 86.2783203125 347.083984375 c 0,42,43
 79.078125 257.083984375 79.078125 257.083984375 74.2783203125 231.884765625 c 128,-1,44
 69.478515625 206.684570312 69.478515625 206.684570312 51.478515625 175.484375 c 0,45,46
 27.478515625 132.284179688 27.478515625 132.284179688 32.2783203125 123.884765625 c 0,47,48
 39.478515625 111.884765625 39.478515625 111.884765625 144.478515625 118.484375 c 128,-1,49
 249.478515625 125.083984375 249.478515625 125.083984375 298.677734375 139.484375 c 0,50,51
 394.677734375 169.484375 394.677734375 169.484375 451.078125 213.284179688 c 128,-1,52
 507.478515625 257.083984375 507.478515625 257.083984375 539.877929688 326.684570312 c 0,53,54
 551.877929688 351.884765625 551.877929688 351.884765625 556.677734375 366.884765625 c 128,-1,55
 561.478515625 381.884765625 561.478515625 381.884765625 563.278320312 400.484375 c 128,-1,56
 565.078125 419.083984375 565.078125 419.083984375 565.078125 457.484375 c 0,57,58
 565.078125 511.484375 565.078125 511.484375 561.478515625 529.484375 c 128,-1,59
 557.877929688 547.484375 557.877929688 547.484375 543.478515625 572.684570312 c 0,60,61
 521.877929688 609.884765625 521.877929688 609.884765625 478.078125 642.884765625 c 128,-1,62
 434.278320312 675.884765625 434.278320312 675.884765625 387.478515625 690.284179688 c 0,30,31
267.478515625 578.684570312 m 0,63,64
 272.278320312 588.284179688 272.278320312 588.284179688 295.677734375 584.083984375 c 128,-1,65
 319.078125 579.884765625 319.078125 579.884765625 339.478515625 567.884765625 c 0,66,67
 373.078125 545.083984375 373.078125 545.083984375 387.478515625 488.684570312 c 128,-1,68
 401.877929688 432.284179688 401.877929688 432.284179688 390.478515625 371.684570312 c 128,-1,69
 379.078125 311.083984375 379.078125 311.083984375 346.677734375 278.684570312 c 0,70,71
 326.278320312 258.284179688 326.278320312 258.284179688 287.278320312 243.884765625 c 128,-1,72
 248.278320312 229.484375 248.278320312 229.484375 238.677734375 239.083984375 c 0,73,74
 233.877929688 245.083984375 233.877929688 245.083984375 247.078125 407.083984375 c 128,-1,75
 260.278320312 569.083984375 260.278320312 569.083984375 267.478515625 578.684570312 c 0,63,64
332.278320312 465.884765625 m 0,76,77
 319.078125 494.684570312 319.078125 494.684570312 313.078125 476.684570312 c 0,78,79
 307.078125 456.284179688 307.078125 456.284179688 297.478515625 348.284179688 c 0,80,81
 296.278320312 329.083984375 296.278320312 329.083984375 295.677734375 317.684570312 c 128,-1,82
 295.078125 306.284179688 295.078125 306.284179688 295.677734375 299.684570312 c 128,-1,83
 296.278320312 293.083984375 296.278320312 293.083984375 298.078125 291.284179688 c 128,-1,84
 299.877929688 289.484375 299.877929688 289.484375 303.478515625 290.684570312 c 0,85,86
 327.478515625 297.884765625 327.478515625 297.884765625 338.278320312 363.284179688 c 128,-1,87
 349.078125 428.684570312 349.078125 428.684570312 332.278320312 465.884765625 c 0,76,77
EndSplineSet
Validated: 524321
EndChar

StartChar: E
Encoding: 69 69 39
Width: 518
VWidth: 1062
Flags: W
LayerCount: 2
Fore
SplineSet
311.713867188 729.090820312 m 0,0,1
 461.713867188 744.690429688 461.713867188 744.690429688 491.713867188 717.090820312 c 0,2,3
 526.513671875 685.890625 526.513671875 685.890625 485.713867188 583.890625 c 0,4,5
 462.9140625 528.690429688 462.9140625 528.690429688 436.513671875 510.690429688 c 0,6,7
 414.9140625 496.291015625 414.9140625 496.291015625 413.114257812 486.690429688 c 128,-1,8
 411.314453125 477.090820312 411.314453125 477.090820312 418.513671875 453.090820312 c 0,9,10
 422.114257812 442.291015625 422.114257812 442.291015625 411.314453125 406.291015625 c 128,-1,11
 400.513671875 370.291015625 400.513671875 370.291015625 384.9140625 334.890625 c 128,-1,12
 369.314453125 299.490234375 369.314453125 299.490234375 358.513671875 288.690429688 c 0,13,14
 344.114257812 273.090820312 344.114257812 273.090820312 344.114257812 270.690429688 c 256,15,16
 344.114257812 268.291015625 344.114257812 268.291015625 353.114257812 267.690429688 c 128,-1,17
 362.114257812 267.090820312 362.114257812 267.090820312 375.9140625 265.890625 c 128,-1,18
 389.713867188 264.690429688 389.713867188 264.690429688 404.713867188 263.490234375 c 128,-1,19
 419.713867188 262.291015625 419.713867188 262.291015625 433.513671875 256.890625 c 128,-1,20
 447.314453125 251.490234375 447.314453125 251.490234375 454.513671875 243.090820312 c 0,21,22
 472.513671875 221.490234375 472.513671875 221.490234375 467.713867188 193.291015625 c 128,-1,23
 462.9140625 165.090820312 462.9140625 165.090820312 430.513671875 115.890625 c 0,24,25
 416.114257812 93.0908203125 416.114257812 93.0908203125 408.9140625 82.291015625 c 128,-1,26
 401.713867188 71.490234375 401.713867188 71.490234375 387.314453125 60.0908203125 c 128,-1,27
 372.9140625 48.6904296875 372.9140625 48.6904296875 362.713867188 45.6904296875 c 128,-1,28
 352.513671875 42.6904296875 352.513671875 42.6904296875 326.713867188 40.291015625 c 128,-1,29
 300.9140625 37.890625 300.9140625 37.890625 277.513671875 38.490234375 c 128,-1,30
 254.114257812 39.0908203125 254.114257812 39.0908203125 206.114257812 40.291015625 c 0,31,32
 93.314453125 45.0908203125 93.314453125 45.0908203125 46.513671875 53.490234375 c 128,-1,33
 -0.2861328125 61.890625 -0.2861328125 61.890625 -13.486328125 79.890625 c 0,34,35
 -39.8857421875 118.291015625 -39.8857421875 118.291015625 -5.0859375 175.890625 c 0,36,37
 12.9140625 204.690429688 12.9140625 204.690429688 14.1142578125 235.291015625 c 128,-1,38
 15.314453125 265.890625 15.314453125 265.890625 -1.486328125 287.490234375 c 0,39,40
 -35.0859375 330.690429688 -35.0859375 330.690429688 6.9140625 391.890625 c 0,41,42
 53.7138671875 460.291015625 53.7138671875 460.291015625 4.513671875 501.090820312 c 0,43,44
 -21.8857421875 523.890625 -21.8857421875 523.890625 -19.486328125 551.490234375 c 128,-1,45
 -17.0859375 579.090820312 -17.0859375 579.090820312 14.1142578125 633.090820312 c 0,46,47
 30.9140625 661.890625 30.9140625 661.890625 40.513671875 675.090820312 c 128,-1,48
 50.1142578125 688.291015625 50.1142578125 688.291015625 60.9140625 699.690429688 c 128,-1,49
 71.7138671875 711.090820312 71.7138671875 711.090820312 87.314453125 714.690429688 c 128,-1,50
 102.9140625 718.291015625 102.9140625 718.291015625 119.713867188 719.490234375 c 128,-1,51
 136.513671875 720.690429688 136.513671875 720.690429688 170.114257812 721.890625 c 0,52,53
 255.314453125 723.090820312 255.314453125 723.090820312 311.713867188 729.090820312 c 0,0,1
454.513671875 683.490234375 m 0,54,55
 456.9140625 695.490234375 456.9140625 695.490234375 450.314453125 698.490234375 c 128,-1,56
 443.713867188 701.490234375 443.713867188 701.490234375 413.713867188 701.490234375 c 0,57,58
 374.114257812 702.690429688 374.114257812 702.690429688 311.713867188 696.690429688 c 0,59,60
 255.314453125 691.890625 255.314453125 691.890625 178.513671875 690.690429688 c 0,61,62
 150.9140625 689.490234375 150.9140625 689.490234375 142.513671875 690.090820312 c 128,-1,63
 134.114257812 690.690429688 134.114257812 690.690429688 118.513671875 687.090820312 c 128,-1,64
 102.9140625 683.490234375 102.9140625 683.490234375 100.513671875 682.291015625 c 128,-1,65
 98.1142578125 681.090820312 98.1142578125 681.090820312 87.314453125 669.090820312 c 128,-1,66
 76.513671875 657.090820312 76.513671875 657.090820312 72.314453125 649.890625 c 128,-1,67
 68.1142578125 642.690429688 68.1142578125 642.690429688 53.7138671875 619.890625 c 0,68,69
 28.513671875 577.890625 28.513671875 577.890625 35.7138671875 570.690429688 c 0,70,71
 40.513671875 565.890625 40.513671875 565.890625 65.7138671875 562.291015625 c 2,72,-1
 88.513671875 559.890625 l 1,73,-1
 86.1142578125 497.490234375 l 2,74,75
 84.9140625 456.690429688 84.9140625 456.690429688 80.1142578125 439.890625 c 128,-1,76
 75.314453125 423.090820312 75.314453125 423.090820312 60.9140625 401.490234375 c 0,77,78
 46.513671875 381.090820312 46.513671875 381.090820312 41.7138671875 369.090820312 c 128,-1,79
 36.9140625 357.090820312 36.9140625 357.090820312 40.513671875 350.490234375 c 128,-1,80
 44.1142578125 343.890625 44.1142578125 343.890625 56.1142578125 342.690429688 c 128,-1,81
 68.1142578125 341.490234375 68.1142578125 341.490234375 70.513671875 332.490234375 c 128,-1,82
 72.9140625 323.490234375 72.9140625 323.490234375 70.513671875 281.490234375 c 0,83,84
 68.1142578125 222.690429688 68.1142578125 222.690429688 47.7138671875 181.890625 c 0,85,86
 26.1142578125 139.890625 26.1142578125 139.890625 30.9140625 136.291015625 c 0,87,88
 38.1142578125 130.291015625 38.1142578125 130.291015625 132.9140625 123.690429688 c 128,-1,89
 227.713867188 117.090820312 227.713867188 117.090820312 285.314453125 118.291015625 c 2,90,-1
 354.9140625 120.690429688 l 1,91,-1
 384.9140625 163.890625 l 2,92,93
 394.513671875 177.090820312 394.513671875 177.090820312 399.314453125 184.890625 c 128,-1,94
 404.114257812 192.690429688 404.114257812 192.690429688 407.713867188 201.090820312 c 128,-1,95
 411.314453125 209.490234375 411.314453125 209.490234375 411.9140625 213.090820312 c 128,-1,96
 412.513671875 216.690429688 412.513671875 216.690429688 408.314453125 220.890625 c 128,-1,97
 404.114257812 225.090820312 404.114257812 225.090820312 398.713867188 226.890625 c 128,-1,98
 393.314453125 228.690429688 393.314453125 228.690429688 380.713867188 230.490234375 c 128,-1,99
 368.114257812 232.291015625 368.114257812 232.291015625 355.513671875 232.890625 c 128,-1,100
 342.9140625 233.490234375 342.9140625 233.490234375 320.114257812 234.690429688 c 2,101,-1
 230.114257812 238.291015625 l 1,102,-1
 227.713867188 270.690429688 l 2,103,104
 225.314453125 298.291015625 225.314453125 298.291015625 232.513671875 323.490234375 c 0,105,106
 238.513671875 337.890625 238.513671875 337.890625 246.314453125 340.890625 c 128,-1,107
 254.114257812 343.890625 254.114257812 343.890625 280.513671875 343.890625 c 2,108,-1
 321.314453125 343.890625 l 1,109,-1
 341.713867188 389.490234375 l 2,110,111
 362.114257812 438.690429688 362.114257812 438.690429688 362.114257812 454.291015625 c 0,112,113
 363.314453125 468.690429688 363.314453125 468.690429688 356.114257812 471.090820312 c 128,-1,114
 348.9140625 473.490234375 348.9140625 473.490234375 305.713867188 472.291015625 c 2,115,-1
 249.314453125 472.291015625 l 1,116,117
 251.713867188 520.291015625 251.713867188 520.291015625 252.9140625 568.291015625 c 1,118,-1
 410.114257812 575.490234375 l 1,119,-1
 431.713867188 619.890625 l 2,120,121
 453.314453125 663.090820312 453.314453125 663.090820312 454.513671875 683.490234375 c 0,54,55
EndSplineSet
Validated: 524321
EndChar

StartChar: F
Encoding: 70 70 40
Width: 547
VWidth: 1062
Flags: W
LayerCount: 2
Fore
SplineSet
349.8046875 728.845703125 m 0,0,1
 443.404296875 737.245117188 443.404296875 737.245117188 469.8046875 734.845703125 c 128,-1,2
 496.204101562 732.4453125 496.204101562 732.4453125 515.404296875 713.245117188 c 0,3,4
 537.004882812 691.645507812 537.004882812 691.645507812 537.004882812 669.4453125 c 128,-1,5
 537.004882812 647.245117188 537.004882812 647.245117188 514.204101562 590.845703125 c 0,6,7
 480.604492188 500.845703125 480.604492188 500.845703125 454.204101562 500.845703125 c 0,8,9
 444.604492188 500.845703125 444.604492188 500.845703125 443.404296875 493.645507812 c 128,-1,10
 442.204101562 486.4453125 442.204101562 486.4453125 450.604492188 481.645507812 c 0,11,12
 478.204101562 464.845703125 478.204101562 464.845703125 442.204101562 372.4453125 c 0,13,14
 417.004882812 308.845703125 417.004882812 308.845703125 399.004882812 290.245117188 c 128,-1,15
 381.004882812 271.645507812 381.004882812 271.645507812 339.004882812 268.045898438 c 0,16,17
 294.604492188 263.245117188 294.604492188 263.245117188 289.8046875 257.245117188 c 0,18,19
 286.204101562 250.045898438 286.204101562 250.045898438 279.004882812 185.245117188 c 0,20,21
 273.004882812 127.645507812 273.004882812 127.645507812 257.404296875 108.4453125 c 128,-1,22
 241.8046875 89.2451171875 241.8046875 89.2451171875 183.004882812 66.4453125 c 0,23,24
 130.204101562 44.845703125 130.204101562 44.845703125 105.604492188 41.2451171875 c 128,-1,25
 81.0048828125 37.6455078125 81.0048828125 37.6455078125 59.404296875 46.0458984375 c 0,26,27
 29.404296875 58.0458984375 29.404296875 58.0458984375 20.404296875 85.6455078125 c 128,-1,28
 11.404296875 113.245117188 11.404296875 113.245117188 16.2041015625 181.645507812 c 2,29,-1
 22.2041015625 259.645507812 l 1,30,-1
 -2.9951171875 282.4453125 l 2,31,32
 -28.1953125 305.245117188 -28.1953125 305.245117188 -26.9951171875 331.645507812 c 128,-1,33
 -25.7958984375 358.045898438 -25.7958984375 358.045898438 4.2041015625 402.4453125 c 0,34,35
 31.8046875 444.4453125 31.8046875 444.4453125 34.8046875 464.245117188 c 128,-1,36
 37.8046875 484.045898438 37.8046875 484.045898438 17.404296875 492.4453125 c 0,37,38
 0.6044921875 498.4453125 0.6044921875 498.4453125 -13.1953125 516.4453125 c 128,-1,39
 -26.9951171875 534.4453125 -26.9951171875 534.4453125 -26.9951171875 551.245117188 c 0,40,41
 -26.9951171875 566.845703125 -26.9951171875 566.845703125 10.2041015625 628.645507812 c 128,-1,42
 47.404296875 690.4453125 47.404296875 690.4453125 65.404296875 704.845703125 c 0,43,44
 78.6044921875 714.4453125 78.6044921875 714.4453125 99.6044921875 717.4453125 c 128,-1,45
 120.604492188 720.4453125 120.604492188 720.4453125 187.8046875 721.645507812 c 0,46,47
 292.204101562 722.845703125 292.204101562 722.845703125 349.8046875 728.845703125 c 0,0,1
479.404296875 692.845703125 m 0,48,49
 475.8046875 702.4453125 475.8046875 702.4453125 451.204101562 703.045898438 c 128,-1,50
 426.604492188 703.645507812 426.604492188 703.645507812 349.8046875 696.4453125 c 0,51,52
 292.204101562 691.645507812 292.204101562 691.645507812 192.604492188 690.4453125 c 2,53,-1
 93.0048828125 689.245117188 l 1,54,-1
 60.6044921875 632.845703125 l 2,55,56
 25.8046875 577.645507812 25.8046875 577.645507812 33.0048828125 571.645507812 c 0,57,58
 39.0048828125 565.645507812 39.0048828125 565.645507812 67.8046875 562.045898438 c 2,59,-1
 94.2041015625 559.645507812 l 1,60,-1
 93.0048828125 509.245117188 l 2,61,62
 90.6044921875 476.845703125 90.6044921875 476.845703125 84.6044921875 460.045898438 c 128,-1,63
 78.6044921875 443.245117188 78.6044921875 443.245117188 58.2041015625 413.245117188 c 0,64,65
 48.6044921875 398.845703125 48.6044921875 398.845703125 42.6044921875 389.245117188 c 128,-1,66
 36.6044921875 379.645507812 36.6044921875 379.645507812 33.0048828125 371.245117188 c 128,-1,67
 29.404296875 362.845703125 29.404296875 362.845703125 29.404296875 358.045898438 c 128,-1,68
 29.404296875 353.245117188 29.404296875 353.245117188 31.8046875 349.645507812 c 128,-1,69
 34.2041015625 346.045898438 34.2041015625 346.045898438 39.6044921875 344.845703125 c 128,-1,70
 45.0048828125 343.645507812 45.0048828125 343.645507812 53.404296875 342.4453125 c 2,71,-1
 78.6044921875 340.045898438 l 1,72,-1
 75.0048828125 281.245117188 l 2,73,74
 71.404296875 200.845703125 71.404296875 200.845703125 71.404296875 172.045898438 c 0,75,76
 71.404296875 137.245117188 71.404296875 137.245117188 73.8046875 128.845703125 c 128,-1,77
 76.2041015625 120.4453125 76.2041015625 120.4453125 88.2041015625 118.045898438 c 0,78,79
 100.204101562 116.845703125 100.204101562 116.845703125 154.204101562 135.4453125 c 128,-1,80
 208.204101562 154.045898438 208.204101562 154.045898438 217.8046875 162.4453125 c 0,81,82
 222.604492188 166.045898438 222.604492188 166.045898438 229.8046875 253.645507812 c 2,83,-1
 235.8046875 340.045898438 l 1,84,-1
 295.8046875 342.4453125 l 2,85,86
 355.8046875 344.845703125 355.8046875 344.845703125 364.204101562 354.4453125 c 0,87,88
 370.204101562 362.845703125 370.204101562 362.845703125 382.204101562 389.845703125 c 128,-1,89
 394.204101562 416.845703125 394.204101562 416.845703125 402.004882812 442.045898438 c 128,-1,90
 409.8046875 467.245117188 409.8046875 467.245117188 407.404296875 470.845703125 c 0,91,92
 402.604492188 479.245117188 402.604492188 479.245117188 327.004882812 476.845703125 c 2,93,-1
 251.404296875 473.245117188 l 1,94,-1
 255.004882812 516.4453125 l 2,95,96
 256.204101562 557.245117188 256.204101562 557.245117188 261.004882812 565.645507812 c 0,97,98
 263.404296875 571.645507812 263.404296875 571.645507812 348.604492188 571.645507812 c 256,99,100
 433.8046875 571.645507812 433.8046875 571.645507812 442.204101562 581.245117188 c 0,101,102
 453.004882812 594.4453125 453.004882812 594.4453125 468.004882812 639.4453125 c 128,-1,103
 483.004882812 684.4453125 483.004882812 684.4453125 479.404296875 692.845703125 c 0,48,49
EndSplineSet
Validated: 524321
EndChar

StartChar: G
Encoding: 71 71 41
Width: 616
VWidth: 1062
Flags: W
LayerCount: 2
Fore
SplineSet
221.200195312 721.838867188 m 0,0,1
 287.200195312 742.239257812 287.200195312 742.239257812 368.799804688 731.439453125 c 128,-1,2
 450.400390625 720.638671875 450.400390625 720.638671875 494.799804688 683.439453125 c 0,3,4
 514 667.838867188 514 667.838867188 518.200195312 654.638671875 c 128,-1,5
 522.400390625 641.439453125 522.400390625 641.439453125 527.200195312 591.0390625 c 0,6,7
 534.400390625 521.439453125 534.400390625 521.439453125 529.599609375 495.0390625 c 0,8,9
 526 478.239257812 526 478.239257812 528.400390625 474.0390625 c 128,-1,10
 530.799804688 469.838867188 530.799804688 469.838867188 542.799804688 469.838867188 c 0,11,12
 558.400390625 469.838867188 558.400390625 469.838867188 581.799804688 447.0390625 c 128,-1,13
 605.200195312 424.239257812 605.200195312 424.239257812 605.200195312 409.838867188 c 0,14,15
 605.200195312 384.638671875 605.200195312 384.638671875 583.599609375 321.0390625 c 128,-1,16
 562 257.439453125 562 257.439453125 547.599609375 243.0390625 c 0,17,18
 529.599609375 222.638671875 529.599609375 222.638671875 523.599609375 187.838867188 c 0,19,20
 518.799804688 151.838867188 518.799804688 151.838867188 508 136.239257812 c 128,-1,21
 497.200195312 120.638671875 497.200195312 120.638671875 461.200195312 96.638671875 c 0,22,23
 377.200195312 39.0390625 377.200195312 39.0390625 279.400390625 38.439453125 c 128,-1,24
 181.599609375 37.8388671875 181.599609375 37.8388671875 101.799804688 91.8388671875 c 128,-1,25
 22 145.838867188 22 145.838867188 -15.2001953125 239.439453125 c 0,26,27
 -33.2001953125 286.239257812 -33.2001953125 286.239257812 -33.2001953125 364.239257812 c 0,28,29
 -33.2001953125 435.0390625 -33.2001953125 435.0390625 -17.599609375 486.0390625 c 128,-1,30
 -2 537.0390625 -2 537.0390625 36.400390625 592.239257812 c 0,31,32
 73.599609375 642.638671875 73.599609375 642.638671875 114.400390625 671.439453125 c 128,-1,33
 155.200195312 700.239257812 155.200195312 700.239257812 221.200195312 721.838867188 c 0,0,1
407.200195312 693.0390625 m 0,34,35
 361.599609375 706.239257812 361.599609375 706.239257812 307 704.439453125 c 128,-1,36
 252.400390625 702.638671875 252.400390625 702.638671875 212.799804688 685.838867188 c 0,37,38
 151.599609375 661.838867188 151.599609375 661.838867188 113.200195312 624.638671875 c 128,-1,39
 74.7998046875 587.439453125 74.7998046875 587.439453125 44.7998046875 525.0390625 c 0,40,41
 28 489.0390625 28 489.0390625 24.400390625 468.638671875 c 128,-1,42
 20.7998046875 448.239257812 20.7998046875 448.239257812 20.7998046875 391.838867188 c 0,43,44
 20.7998046875 336.638671875 20.7998046875 336.638671875 24.400390625 315.0390625 c 128,-1,45
 28 293.439453125 28 293.439453125 41.2001953125 265.838867188 c 0,46,47
 79.599609375 184.239257812 79.599609375 184.239257812 160 142.239257812 c 0,48,49
 187.599609375 127.838867188 187.599609375 127.838867188 206.799804688 124.239257812 c 128,-1,50
 226 120.638671875 226 120.638671875 276.400390625 120.638671875 c 0,51,52
 308.799804688 120.638671875 308.799804688 120.638671875 326.799804688 122.439453125 c 128,-1,53
 344.799804688 124.239257812 344.799804688 124.239257812 358 127.838867188 c 128,-1,54
 371.200195312 131.439453125 371.200195312 131.439453125 388 139.838867188 c 0,55,56
 424 156.638671875 424 156.638671875 440.799804688 169.838867188 c 128,-1,57
 457.599609375 183.0390625 457.599609375 183.0390625 465.400390625 199.838867188 c 128,-1,58
 473.200195312 216.638671875 473.200195312 216.638671875 475.599609375 246.638671875 c 0,59,60
 479.200195312 279.0390625 479.200195312 279.0390625 484 289.838867188 c 128,-1,61
 488.799804688 300.638671875 488.799804688 300.638671875 502 307.838867188 c 0,62,63
 514 312.638671875 514 312.638671875 521.200195312 325.239257812 c 128,-1,64
 528.400390625 337.838867188 528.400390625 337.838867188 536.799804688 367.838867188 c 0,65,66
 550 419.439453125 550 419.439453125 546.400390625 429.0390625 c 0,67,68
 544 438.638671875 544 438.638671875 427.599609375 436.239257812 c 2,69,-1
 311.200195312 433.838867188 l 1,70,-1
 300.400390625 402.638671875 l 2,71,72
 290.799804688 370.239257812 290.799804688 370.239257812 289.599609375 340.239257812 c 0,73,74
 288.400390625 316.239257812 288.400390625 316.239257812 292 312.0390625 c 128,-1,75
 295.599609375 307.838867188 295.599609375 307.838867188 318.400390625 305.439453125 c 0,76,77
 341.200195312 301.838867188 341.200195312 301.838867188 345.400390625 297.638671875 c 128,-1,78
 349.599609375 293.439453125 349.599609375 293.439453125 347.200195312 277.838867188 c 0,79,80
 346 259.838867188 346 259.838867188 343 253.239257812 c 128,-1,81
 340 246.638671875 340 246.638671875 334 243.638671875 c 128,-1,82
 328 240.638671875 328 240.638671875 310 237.0390625 c 0,83,84
 266.799804688 229.838867188 266.799804688 229.838867188 236.799804688 259.838867188 c 128,-1,85
 206.799804688 289.838867188 206.799804688 289.838867188 197.200195312 351.0390625 c 0,86,87
 187.599609375 423.0390625 187.599609375 423.0390625 210.400390625 479.439453125 c 128,-1,88
 233.200195312 535.838867188 233.200195312 535.838867188 281.200195312 557.439453125 c 0,89,90
 314.799804688 571.838867188 314.799804688 571.838867188 347.200195312 568.239257812 c 128,-1,91
 379.599609375 564.638671875 379.599609375 564.638671875 422.799804688 539.439453125 c 0,92,93
 463.599609375 515.439453125 463.599609375 515.439453125 473.200195312 521.439453125 c 0,94,95
 481.599609375 527.439453125 481.599609375 527.439453125 475.599609375 591.0390625 c 128,-1,96
 469.599609375 654.638671875 469.599609375 654.638671875 457.599609375 667.838867188 c 0,97,98
 445.599609375 682.239257812 445.599609375 682.239257812 407.200195312 693.0390625 c 0,34,35
360.400390625 489.0390625 m 0,99,100
 340 492.638671875 340 492.638671875 325.599609375 492.638671875 c 0,101,102
 310 492.638671875 310 492.638671875 284.799804688 472.838867188 c 128,-1,103
 259.599609375 453.0390625 259.599609375 453.0390625 259.599609375 439.838867188 c 0,104,105
 259.599609375 427.838867188 259.599609375 427.838867188 277.599609375 443.439453125 c 0,106,107
 278.799804688 444.638671875 278.799804688 444.638671875 280 445.838867188 c 0,108,109
 298 463.838867188 298 463.838867188 338.799804688 468.638671875 c 0,110,111
 378.400390625 472.239257812 378.400390625 472.239257812 377.200195312 479.439453125 c 0,112,113
 374.799804688 484.239257812 374.799804688 484.239257812 360.400390625 489.0390625 c 0,99,100
EndSplineSet
Validated: 524321
EndChar

StartChar: H
Encoding: 72 72 42
Width: 621
VWidth: 1062
Flags: W
LayerCount: 2
Fore
SplineSet
158.216796875 716.969726562 m 0,0,1
 218.216796875 732.5703125 218.216796875 732.5703125 239.81640625 734.370117188 c 128,-1,2
 261.416992188 736.169921875 261.416992188 736.169921875 283.016601562 728.969726562 c 0,3,4
 308.216796875 718.169921875 308.216796875 718.169921875 315.416992188 688.169921875 c 128,-1,5
 322.616210938 658.169921875 322.616210938 658.169921875 316.616210938 584.969726562 c 0,6,7
 308.216796875 499.76953125 308.216796875 499.76953125 311.81640625 494.969726562 c 0,8,9
 323.81640625 485.370117188 323.81640625 485.370117188 329.81640625 511.76953125 c 2,10,-1
 337.016601562 570.5703125 l 2,11,12
 339.416992188 594.5703125 339.416992188 594.5703125 340.616210938 608.370117188 c 128,-1,13
 341.81640625 622.169921875 341.81640625 622.169921875 345.416992188 637.76953125 c 128,-1,14
 349.016601562 653.370117188 349.016601562 653.370117188 351.416992188 660.5703125 c 128,-1,15
 353.81640625 667.76953125 353.81640625 667.76953125 362.216796875 677.370117188 c 128,-1,16
 370.616210938 686.969726562 370.616210938 686.969726562 377.81640625 690.5703125 c 128,-1,17
 385.016601562 694.169921875 385.016601562 694.169921875 400.616210938 700.76953125 c 128,-1,18
 416.216796875 707.370117188 416.216796875 707.370117188 430.016601562 710.969726562 c 128,-1,19
 443.81640625 714.5703125 443.81640625 714.5703125 469.016601562 720.5703125 c 0,20,21
 525.416992188 733.76953125 525.416992188 733.76953125 553.016601562 731.969726562 c 128,-1,22
 580.616210938 730.169921875 580.616210938 730.169921875 597.416992188 710.969726562 c 0,23,24
 607.016601562 701.370117188 607.016601562 701.370117188 609.416992188 685.169921875 c 128,-1,25
 611.81640625 668.969726562 611.81640625 668.969726562 610.616210938 623.370117188 c 0,26,27
 609.416992188 553.76953125 609.416992188 553.76953125 599.81640625 500.969726562 c 0,28,29
 598.616210938 490.169921875 598.616210938 490.169921875 588.416992188 393.5703125 c 128,-1,30
 578.216796875 296.969726562 578.216796875 296.969726562 567.416992188 209.370117188 c 128,-1,31
 556.616210938 121.76953125 556.616210938 121.76953125 550.616210938 112.169921875 c 0,32,33
 541.016601562 98.9697265625 541.016601562 98.9697265625 480.416992188 73.169921875 c 128,-1,34
 419.81640625 47.3701171875 419.81640625 47.3701171875 380.216796875 41.3701171875 c 0,35,36
 359.81640625 37.76953125 359.81640625 37.76953125 350.81640625 41.3701171875 c 128,-1,37
 341.81640625 44.9697265625 341.81640625 44.9697265625 325.016601562 60.5703125 c 2,38,-1
 301.016601562 85.76953125 l 1,39,-1
 303.416992188 169.76953125 l 2,40,41
 304.616210938 222.5703125 304.616210938 222.5703125 303.416992188 238.169921875 c 128,-1,42
 302.216796875 253.76953125 302.216796875 253.76953125 293.81640625 253.76953125 c 0,43,44
 281.81640625 253.76953125 281.81640625 253.76953125 278.216796875 210.5703125 c 0,45,46
 274.616210938 176.969726562 274.616210938 176.969726562 272.81640625 162.5703125 c 128,-1,47
 271.016601562 148.169921875 271.016601562 148.169921875 264.416992188 130.169921875 c 128,-1,48
 257.81640625 112.169921875 257.81640625 112.169921875 253.616210938 106.76953125 c 128,-1,49
 249.416992188 101.370117188 249.416992188 101.370117188 231.416992188 91.169921875 c 128,-1,50
 213.416992188 80.9697265625 213.416992188 80.9697265625 200.216796875 76.169921875 c 128,-1,51
 187.016601562 71.3701171875 187.016601562 71.3701171875 152.216796875 60.5703125 c 0,52,53
 95.81640625 41.3701171875 95.81640625 41.3701171875 82.0166015625 40.169921875 c 128,-1,54
 68.216796875 38.9697265625 68.216796875 38.9697265625 47.81640625 47.3701171875 c 0,55,56
 20.216796875 61.76953125 20.216796875 61.76953125 12.4169921875 89.3701171875 c 128,-1,57
 4.6162109375 116.969726562 4.6162109375 116.969726562 10.6162109375 182.969726562 c 2,58,-1
 15.4169921875 253.76953125 l 1,59,-1
 -10.9833984375 278.969726562 l 2,60,61
 -27.783203125 295.76953125 -27.783203125 295.76953125 -31.3837890625 304.76953125 c 128,-1,62
 -34.9833984375 313.76953125 -34.9833984375 313.76953125 -31.3837890625 330.5703125 c 0,63,64
 -27.783203125 353.370117188 -27.783203125 353.370117188 4.6162109375 402.5703125 c 0,65,66
 16.6162109375 421.76953125 16.6162109375 421.76953125 21.4169921875 430.76953125 c 128,-1,67
 26.216796875 439.76953125 26.216796875 439.76953125 31.0166015625 457.169921875 c 128,-1,68
 35.81640625 474.5703125 35.81640625 474.5703125 37.6162109375 490.76953125 c 128,-1,69
 39.4169921875 506.969726562 39.4169921875 506.969726562 43.0166015625 545.370117188 c 0,70,71
 45.4169921875 571.76953125 45.4169921875 571.76953125 46.0166015625 584.370117188 c 128,-1,72
 46.6162109375 596.969726562 46.6162109375 596.969726562 49.6162109375 615.5703125 c 128,-1,73
 52.6162109375 634.169921875 52.6162109375 634.169921875 53.81640625 640.76953125 c 128,-1,74
 55.0166015625 647.370117188 55.0166015625 647.370117188 59.81640625 659.370117188 c 128,-1,75
 64.6162109375 671.370117188 64.6162109375 671.370117188 67.0166015625 674.969726562 c 128,-1,76
 69.4169921875 678.5703125 69.4169921875 678.5703125 77.216796875 685.76953125 c 128,-1,77
 85.0166015625 692.969726562 85.0166015625 692.969726562 90.4169921875 694.76953125 c 128,-1,78
 95.81640625 696.5703125 95.81640625 696.5703125 108.416992188 701.969726562 c 128,-1,79
 121.016601562 707.370117188 121.016601562 707.370117188 130.616210938 709.76953125 c 128,-1,80
 140.216796875 712.169921875 140.216796875 712.169921875 158.216796875 716.969726562 c 0,0,1
265.016601562 658.169921875 m 0,81,82
 266.216796875 688.169921875 266.216796875 688.169921875 263.81640625 694.76953125 c 128,-1,83
 261.416992188 701.370117188 261.416992188 701.370117188 247.016601562 702.5703125 c 0,84,85
 229.016601562 703.76953125 229.016601562 703.76953125 175.016601562 689.370117188 c 128,-1,86
 121.016601562 674.969726562 121.016601562 674.969726562 112.616210938 667.76953125 c 0,87,88
 105.416992188 660.5703125 105.416992188 660.5703125 97.0166015625 559.76953125 c 0,89,90
 91.0166015625 485.370117188 91.0166015625 485.370117188 85.6162109375 465.5703125 c 128,-1,91
 80.216796875 445.76953125 80.216796875 445.76953125 53.81640625 404.969726562 c 0,92,93
 19.0166015625 352.169921875 19.0166015625 352.169921875 23.81640625 343.76953125 c 0,94,95
 29.81640625 336.5703125 29.81640625 336.5703125 47.81640625 336.5703125 c 0,96,97
 67.0166015625 336.5703125 67.0166015625 336.5703125 70.6162109375 328.169921875 c 0,98,99
 75.4169921875 320.969726562 75.4169921875 320.969726562 67.0166015625 224.969726562 c 256,100,101
 58.6162109375 128.969726562 58.6162109375 128.969726562 67.0166015625 121.76953125 c 0,102,103
 75.4169921875 113.370117188 75.4169921875 113.370117188 143.81640625 136.169921875 c 2,104,-1
 212.216796875 160.169921875 l 1,105,-1
 217.016601562 194.969726562 l 2,106,107
 224.216796875 239.370117188 224.216796875 239.370117188 229.016601562 281.370117188 c 2,108,-1
 235.016601562 332.969726562 l 1,109,-1
 302.216796875 332.969726562 l 2,110,111
 349.016601562 332.969726562 349.016601562 332.969726562 358.616210938 330.5703125 c 128,-1,112
 368.216796875 328.169921875 368.216796875 328.169921875 367.016601562 316.169921875 c 0,113,114
 365.81640625 306.5703125 365.81640625 306.5703125 359.81640625 212.969726562 c 0,115,116
 357.416992188 157.76953125 357.416992188 157.76953125 358.616210938 140.969726562 c 128,-1,117
 359.81640625 124.169921875 359.81640625 124.169921875 367.016601562 120.5703125 c 0,118,119
 377.81640625 115.76953125 377.81640625 115.76953125 439.616210938 138.5703125 c 128,-1,120
 501.416992188 161.370117188 501.416992188 161.370117188 507.416992188 172.169921875 c 0,121,122
 512.216796875 182.969726562 512.216796875 182.969726562 530.216796875 359.370117188 c 0,123,124
 550.616210938 572.969726562 550.616210938 572.969726562 554.216796875 612.5703125 c 0,125,126
 562.616210938 690.5703125 562.616210938 690.5703125 554.216796875 698.969726562 c 0,127,128
 551.81640625 701.370117188 551.81640625 701.370117188 532.616210938 699.5703125 c 128,-1,129
 513.416992188 697.76953125 513.416992188 697.76953125 490.616210938 694.169921875 c 128,-1,130
 467.81640625 690.5703125 467.81640625 690.5703125 444.416992188 684.5703125 c 128,-1,131
 421.016601562 678.5703125 421.016601562 678.5703125 411.416992188 672.5703125 c 0,132,133
 398.216796875 666.5703125 398.216796875 666.5703125 389.81640625 570.5703125 c 0,134,135
 379.016601562 474.5703125 379.016601562 474.5703125 375.416992188 468.5703125 c 0,136,137
 371.81640625 461.370117188 371.81640625 461.370117188 313.616210938 461.969726562 c 128,-1,138
 255.416992188 462.5703125 255.416992188 462.5703125 251.81640625 469.76953125 c 0,139,140
 245.81640625 478.169921875 245.81640625 478.169921875 254.216796875 546.5703125 c 0,141,142
 262.616210938 617.370117188 262.616210938 617.370117188 265.016601562 658.169921875 c 0,81,82
EndSplineSet
Validated: 524321
EndChar

